STARTFONT 2.1
FONT -TakWolf-Ark Pixel 16px Proportional ko-Regular-R-Normal-Sans Serif-16-160-75-75-P-136-ISO10646-1
SIZE 16 75 75
FONTBOUNDINGBOX 16 24 0 -6
STARTPROPERTIES 22
FOUNDRY "TakWolf"
FAMILY_NAME "Ark Pixel 16px Proportional ko"
WEIGHT_NAME "Regular"
SLANT "R"
SETWIDTH_NAME "Normal"
ADD_STYLE_NAME "Sans Serif"
PIXEL_SIZE 16
POINT_SIZE 160
RESOLUTION_X 75
RESOLUTION_Y 75
SPACING "P"
AVERAGE_WIDTH 136
CHARSET_REGISTRY "ISO10646"
CHARSET_ENCODING "1"
DEFAULT_CHAR -1
FONT_ASCENT 18
FONT_DESCENT -6
X_HEIGHT 8
CAP_HEIGHT 11
FONT_VERSION "2023.08.24"
COPYRIGHT "Copyright (c) 2021, TakWolf (https://takwolf.com), with Reserved Font Name 'Ark Pixel'."
LICENSE "This Font Software is licensed under the SIL Open Font License, Version 1.1."
ENDPROPERTIES
CHARS 1805
STARTCHAR .notdef
ENCODING -1
SWIDTH 960 0
DWIDTH 16 0
BBX 16 16 0 -2
BITMAP
FFFF
8001
8001
8001
8001
8001
8001
8001
8001
8001
8001
8001
8001
8001
8001
FFFF
ENDCHAR
STARTCHAR uni0020
ENCODING 32
SWIDTH 420 0
DWIDTH 7 0
BBX 0 0 7 -6
BITMAP
ENDCHAR
STARTCHAR uni0021
ENCODING 33
SWIDTH 360 0
DWIDTH 6 0
BBX 3 11 1 0
BITMAP
40
E0
E0
E0
40
40
40
40
00
00
40
ENDCHAR
STARTCHAR uni0022
ENCODING 34
SWIDTH 360 0
DWIDTH 6 0
BBX 3 3 1 8
BITMAP
A0
A0
A0
ENDCHAR
STARTCHAR uni0023
ENCODING 35
SWIDTH 420 0
DWIDTH 7 0
BBX 6 11 0 0
BITMAP
48
48
FC
48
48
48
48
48
FC
48
48
ENDCHAR
STARTCHAR uni0024
ENCODING 36
SWIDTH 480 0
DWIDTH 8 0
BBX 7 13 0 -1
BITMAP
10
7C
92
90
90
50
38
14
12
12
92
7C
10
ENDCHAR
STARTCHAR uni0025
ENCODING 37
SWIDTH 480 0
DWIDTH 8 0
BBX 7 11 0 0
BITMAP
44
A4
48
08
10
10
10
20
24
4A
44
ENDCHAR
STARTCHAR uni0026
ENCODING 38
SWIDTH 480 0
DWIDTH 8 0
BBX 7 11 0 0
BITMAP
30
48
48
48
30
50
4A
8A
84
84
7A
ENDCHAR
STARTCHAR uni0027
ENCODING 39
SWIDTH 240 0
DWIDTH 4 0
BBX 1 3 1 8
BITMAP
80
80
80
ENDCHAR
STARTCHAR uni0028
ENCODING 40
SWIDTH 360 0
DWIDTH 6 0
BBX 3 14 1 -2
BITMAP
20
40
40
80
80
80
80
80
80
80
80
40
40
20
ENDCHAR
STARTCHAR uni0029
ENCODING 41
SWIDTH 360 0
DWIDTH 6 0
BBX 3 14 1 -2
BITMAP
80
40
40
20
20
20
20
20
20
20
20
40
40
80
ENDCHAR
STARTCHAR uni002A
ENCODING 42
SWIDTH 360 0
DWIDTH 6 0
BBX 5 5 0 3
BITMAP
20
A8
70
A8
20
ENDCHAR
STARTCHAR uni002B
ENCODING 43
SWIDTH 360 0
DWIDTH 6 0
BBX 5 5 0 3
BITMAP
20
20
F8
20
20
ENDCHAR
STARTCHAR uni002C
ENCODING 44
SWIDTH 300 0
DWIDTH 5 0
BBX 2 4 1 -2
BITMAP
C0
C0
40
80
ENDCHAR
STARTCHAR uni002D
ENCODING 45
SWIDTH 360 0
DWIDTH 6 0
BBX 5 1 0 5
BITMAP
F8
ENDCHAR
STARTCHAR uni002E
ENCODING 46
SWIDTH 300 0
DWIDTH 5 0
BBX 2 2 1 0
BITMAP
C0
C0
ENDCHAR
STARTCHAR uni002F
ENCODING 47
SWIDTH 360 0
DWIDTH 6 0
BBX 5 14 0 -2
BITMAP
08
08
08
10
10
10
20
20
40
40
40
80
80
80
ENDCHAR
STARTCHAR uni0030
ENCODING 48
SWIDTH 420 0
DWIDTH 7 0
BBX 6 11 0 0
BITMAP
78
84
84
84
8C
B4
C4
84
84
84
78
ENDCHAR
STARTCHAR uni0031
ENCODING 49
SWIDTH 420 0
DWIDTH 7 0
BBX 5 11 1 0
BITMAP
20
60
A0
20
20
20
20
20
20
20
F8
ENDCHAR
STARTCHAR uni0032
ENCODING 50
SWIDTH 420 0
DWIDTH 7 0
BBX 6 11 0 0
BITMAP
78
84
04
04
04
08
10
20
40
80
FC
ENDCHAR
STARTCHAR uni0033
ENCODING 51
SWIDTH 420 0
DWIDTH 7 0
BBX 6 11 0 0
BITMAP
78
84
04
04
04
38
04
04
04
84
78
ENDCHAR
STARTCHAR uni0034
ENCODING 52
SWIDTH 420 0
DWIDTH 7 0
BBX 6 11 0 0
BITMAP
18
28
28
48
48
48
88
88
FC
08
08
ENDCHAR
STARTCHAR uni0035
ENCODING 53
SWIDTH 420 0
DWIDTH 7 0
BBX 6 11 0 0
BITMAP
FC
80
80
80
80
F8
04
04
04
84
78
ENDCHAR
STARTCHAR uni0036
ENCODING 54
SWIDTH 420 0
DWIDTH 7 0
BBX 6 11 0 0
BITMAP
78
84
80
80
80
F8
84
84
84
84
78
ENDCHAR
STARTCHAR uni0037
ENCODING 55
SWIDTH 420 0
DWIDTH 7 0
BBX 6 11 0 0
BITMAP
FC
04
04
08
08
08
10
10
10
10
10
ENDCHAR
STARTCHAR uni0038
ENCODING 56
SWIDTH 420 0
DWIDTH 7 0
BBX 6 11 0 0
BITMAP
78
84
84
84
84
78
84
84
84
84
78
ENDCHAR
STARTCHAR uni0039
ENCODING 57
SWIDTH 420 0
DWIDTH 7 0
BBX 6 11 0 0
BITMAP
78
84
84
84
84
7C
04
04
04
84
78
ENDCHAR
STARTCHAR uni003A
ENCODING 58
SWIDTH 300 0
DWIDTH 5 0
BBX 2 8 1 0
BITMAP
C0
C0
00
00
00
00
C0
C0
ENDCHAR
STARTCHAR uni003B
ENCODING 59
SWIDTH 300 0
DWIDTH 5 0
BBX 2 10 1 -2
BITMAP
C0
C0
00
00
00
00
C0
C0
40
80
ENDCHAR
STARTCHAR uni003C
ENCODING 60
SWIDTH 300 0
DWIDTH 5 0
BBX 4 7 0 2
BITMAP
10
20
40
80
40
20
10
ENDCHAR
STARTCHAR uni003D
ENCODING 61
SWIDTH 360 0
DWIDTH 6 0
BBX 5 3 0 4
BITMAP
F8
00
F8
ENDCHAR
STARTCHAR uni003E
ENCODING 62
SWIDTH 300 0
DWIDTH 5 0
BBX 4 7 0 2
BITMAP
80
40
20
10
20
40
80
ENDCHAR
STARTCHAR uni003F
ENCODING 63
SWIDTH 420 0
DWIDTH 7 0
BBX 6 11 0 0
BITMAP
78
84
84
04
08
10
10
10
00
00
10
ENDCHAR
STARTCHAR uni0040
ENCODING 64
SWIDTH 540 0
DWIDTH 9 0
BBX 8 12 0 -1
BITMAP
3C
42
81
9D
A5
A5
A5
A5
BB
80
40
3E
ENDCHAR
STARTCHAR uni0041
ENCODING 65
SWIDTH 480 0
DWIDTH 8 0
BBX 7 11 0 0
BITMAP
10
10
28
28
28
44
44
7C
82
82
82
ENDCHAR
STARTCHAR uni0042
ENCODING 66
SWIDTH 480 0
DWIDTH 8 0
BBX 7 11 0 0
BITMAP
F8
84
82
82
84
F8
84
82
82
84
F8
ENDCHAR
STARTCHAR uni0043
ENCODING 67
SWIDTH 480 0
DWIDTH 8 0
BBX 7 11 0 0
BITMAP
3C
42
80
80
80
80
80
80
80
42
3C
ENDCHAR
STARTCHAR uni0044
ENCODING 68
SWIDTH 480 0
DWIDTH 8 0
BBX 7 11 0 0
BITMAP
F8
84
82
82
82
82
82
82
82
84
F8
ENDCHAR
STARTCHAR uni0045
ENCODING 69
SWIDTH 480 0
DWIDTH 8 0
BBX 7 11 0 0
BITMAP
FE
80
80
80
80
FC
80
80
80
80
FE
ENDCHAR
STARTCHAR uni0046
ENCODING 70
SWIDTH 480 0
DWIDTH 8 0
BBX 7 11 0 0
BITMAP
FE
80
80
80
80
FC
80
80
80
80
80
ENDCHAR
STARTCHAR uni0047
ENCODING 71
SWIDTH 480 0
DWIDTH 8 0
BBX 7 11 0 0
BITMAP
3C
42
80
80
80
80
8E
82
82
42
3E
ENDCHAR
STARTCHAR uni0048
ENCODING 72
SWIDTH 480 0
DWIDTH 8 0
BBX 7 11 0 0
BITMAP
82
82
82
82
82
FE
82
82
82
82
82
ENDCHAR
STARTCHAR uni0049
ENCODING 73
SWIDTH 240 0
DWIDTH 4 0
BBX 3 11 0 0
BITMAP
E0
40
40
40
40
40
40
40
40
40
E0
ENDCHAR
STARTCHAR uni004A
ENCODING 74
SWIDTH 420 0
DWIDTH 7 0
BBX 6 11 0 0
BITMAP
04
04
04
04
04
04
04
84
84
84
78
ENDCHAR
STARTCHAR uni004B
ENCODING 75
SWIDTH 480 0
DWIDTH 8 0
BBX 7 11 0 0
BITMAP
82
84
88
90
A0
C0
A0
90
88
84
82
ENDCHAR
STARTCHAR uni004C
ENCODING 76
SWIDTH 420 0
DWIDTH 7 0
BBX 6 11 0 0
BITMAP
80
80
80
80
80
80
80
80
80
80
FC
ENDCHAR
STARTCHAR uni004D
ENCODING 77
SWIDTH 720 0
DWIDTH 12 0
BBX 11 11 0 0
BITMAP
8020
C060
C060
A0A0
A0A0
9120
9120
8A20
8A20
8420
8420
ENDCHAR
STARTCHAR uni004E
ENCODING 78
SWIDTH 480 0
DWIDTH 8 0
BBX 7 11 0 0
BITMAP
82
C2
C2
A2
A2
92
8A
8A
86
86
82
ENDCHAR
STARTCHAR uni004F
ENCODING 79
SWIDTH 480 0
DWIDTH 8 0
BBX 7 11 0 0
BITMAP
38
44
82
82
82
82
82
82
82
44
38
ENDCHAR
STARTCHAR uni0050
ENCODING 80
SWIDTH 480 0
DWIDTH 8 0
BBX 7 11 0 0
BITMAP
FC
82
82
82
82
FC
80
80
80
80
80
ENDCHAR
STARTCHAR uni0051
ENCODING 81
SWIDTH 480 0
DWIDTH 8 0
BBX 7 11 0 0
BITMAP
38
44
82
82
82
82
82
82
8A
44
3A
ENDCHAR
STARTCHAR uni0052
ENCODING 82
SWIDTH 480 0
DWIDTH 8 0
BBX 7 11 0 0
BITMAP
FC
82
82
82
82
FC
90
88
88
84
82
ENDCHAR
STARTCHAR uni0053
ENCODING 83
SWIDTH 480 0
DWIDTH 8 0
BBX 7 11 0 0
BITMAP
7C
82
80
80
40
38
04
02
02
82
7C
ENDCHAR
STARTCHAR uni0054
ENCODING 84
SWIDTH 480 0
DWIDTH 8 0
BBX 7 11 0 0
BITMAP
FE
10
10
10
10
10
10
10
10
10
10
ENDCHAR
STARTCHAR uni0055
ENCODING 85
SWIDTH 480 0
DWIDTH 8 0
BBX 7 11 0 0
BITMAP
82
82
82
82
82
82
82
82
82
44
38
ENDCHAR
STARTCHAR uni0056
ENCODING 86
SWIDTH 480 0
DWIDTH 8 0
BBX 7 11 0 0
BITMAP
82
82
82
44
44
44
28
28
28
10
10
ENDCHAR
STARTCHAR uni0057
ENCODING 87
SWIDTH 720 0
DWIDTH 12 0
BBX 11 11 0 0
BITMAP
8420
8420
8A20
8A20
4A40
5140
5140
5140
2080
2080
2080
ENDCHAR
STARTCHAR uni0058
ENCODING 88
SWIDTH 480 0
DWIDTH 8 0
BBX 7 11 0 0
BITMAP
82
82
44
44
28
10
28
44
44
82
82
ENDCHAR
STARTCHAR uni0059
ENCODING 89
SWIDTH 480 0
DWIDTH 8 0
BBX 7 11 0 0
BITMAP
82
82
44
44
28
28
10
10
10
10
10
ENDCHAR
STARTCHAR uni005A
ENCODING 90
SWIDTH 480 0
DWIDTH 8 0
BBX 7 11 0 0
BITMAP
FE
02
04
08
08
10
20
20
40
80
FE
ENDCHAR
STARTCHAR uni005B
ENCODING 91
SWIDTH 360 0
DWIDTH 6 0
BBX 3 14 1 -2
BITMAP
E0
80
80
80
80
80
80
80
80
80
80
80
80
E0
ENDCHAR
STARTCHAR uni005C
ENCODING 92
SWIDTH 360 0
DWIDTH 6 0
BBX 5 14 0 -2
BITMAP
80
80
80
40
40
40
20
20
10
10
10
08
08
08
ENDCHAR
STARTCHAR uni005D
ENCODING 93
SWIDTH 360 0
DWIDTH 6 0
BBX 3 14 1 -2
BITMAP
E0
20
20
20
20
20
20
20
20
20
20
20
20
E0
ENDCHAR
STARTCHAR uni005E
ENCODING 94
SWIDTH 360 0
DWIDTH 6 0
BBX 5 3 0 8
BITMAP
20
50
88
ENDCHAR
STARTCHAR uni005F
ENCODING 95
SWIDTH 420 0
DWIDTH 7 0
BBX 6 1 0 -3
BITMAP
FC
ENDCHAR
STARTCHAR uni0060
ENCODING 96
SWIDTH 360 0
DWIDTH 6 0
BBX 3 3 1 8
BITMAP
80
40
20
ENDCHAR
STARTCHAR uni0061
ENCODING 97
SWIDTH 420 0
DWIDTH 7 0
BBX 6 8 0 0
BITMAP
78
04
04
7C
84
84
84
7C
ENDCHAR
STARTCHAR uni0062
ENCODING 98
SWIDTH 420 0
DWIDTH 7 0
BBX 6 11 0 0
BITMAP
80
80
80
F8
84
84
84
84
84
84
F8
ENDCHAR
STARTCHAR uni0063
ENCODING 99
SWIDTH 420 0
DWIDTH 7 0
BBX 6 8 0 0
BITMAP
78
84
80
80
80
80
84
78
ENDCHAR
STARTCHAR uni0064
ENCODING 100
SWIDTH 420 0
DWIDTH 7 0
BBX 6 11 0 0
BITMAP
04
04
04
7C
84
84
84
84
84
84
7C
ENDCHAR
STARTCHAR uni0065
ENCODING 101
SWIDTH 420 0
DWIDTH 7 0
BBX 6 8 0 0
BITMAP
78
84
84
FC
80
80
84
78
ENDCHAR
STARTCHAR uni0066
ENCODING 102
SWIDTH 420 0
DWIDTH 7 0
BBX 6 11 0 0
BITMAP
1C
20
20
FC
20
20
20
20
20
20
20
ENDCHAR
STARTCHAR uni0067
ENCODING 103
SWIDTH 420 0
DWIDTH 7 0
BBX 6 11 0 -3
BITMAP
7C
84
84
84
84
84
84
7C
04
04
78
ENDCHAR
STARTCHAR uni0068
ENCODING 104
SWIDTH 420 0
DWIDTH 7 0
BBX 6 11 0 0
BITMAP
80
80
80
B8
C4
84
84
84
84
84
84
ENDCHAR
STARTCHAR uni0069
ENCODING 105
SWIDTH 240 0
DWIDTH 4 0
BBX 3 11 0 0
BITMAP
40
00
00
C0
40
40
40
40
40
40
E0
ENDCHAR
STARTCHAR uni006A
ENCODING 106
SWIDTH 240 0
DWIDTH 4 0
BBX 3 14 0 -3
BITMAP
20
00
00
E0
20
20
20
20
20
20
20
20
20
C0
ENDCHAR
STARTCHAR uni006B
ENCODING 107
SWIDTH 420 0
DWIDTH 7 0
BBX 6 11 0 0
BITMAP
80
80
80
84
98
A0
C0
A0
90
88
84
ENDCHAR
STARTCHAR uni006C
ENCODING 108
SWIDTH 240 0
DWIDTH 4 0
BBX 3 11 0 0
BITMAP
C0
40
40
40
40
40
40
40
40
40
60
ENDCHAR
STARTCHAR uni006D
ENCODING 109
SWIDTH 720 0
DWIDTH 12 0
BBX 11 8 0 0
BITMAP
BBC0
C420
8420
8420
8420
8420
8420
8420
ENDCHAR
STARTCHAR uni006E
ENCODING 110
SWIDTH 420 0
DWIDTH 7 0
BBX 6 8 0 0
BITMAP
B8
C4
84
84
84
84
84
84
ENDCHAR
STARTCHAR uni006F
ENCODING 111
SWIDTH 420 0
DWIDTH 7 0
BBX 6 8 0 0
BITMAP
78
84
84
84
84
84
84
78
ENDCHAR
STARTCHAR uni0070
ENCODING 112
SWIDTH 420 0
DWIDTH 7 0
BBX 6 11 0 -3
BITMAP
F8
84
84
84
84
84
84
F8
80
80
80
ENDCHAR
STARTCHAR uni0071
ENCODING 113
SWIDTH 420 0
DWIDTH 7 0
BBX 6 11 0 -3
BITMAP
7C
84
84
84
84
84
84
7C
04
04
04
ENDCHAR
STARTCHAR uni0072
ENCODING 114
SWIDTH 360 0
DWIDTH 6 0
BBX 5 8 0 0
BITMAP
B8
C0
80
80
80
80
80
80
ENDCHAR
STARTCHAR uni0073
ENCODING 115
SWIDTH 420 0
DWIDTH 7 0
BBX 6 8 0 0
BITMAP
78
84
80
60
18
04
84
78
ENDCHAR
STARTCHAR uni0074
ENCODING 116
SWIDTH 420 0
DWIDTH 7 0
BBX 6 11 0 0
BITMAP
20
20
20
FC
20
20
20
20
20
20
1C
ENDCHAR
STARTCHAR uni0075
ENCODING 117
SWIDTH 420 0
DWIDTH 7 0
BBX 6 8 0 0
BITMAP
84
84
84
84
84
84
8C
74
ENDCHAR
STARTCHAR uni0076
ENCODING 118
SWIDTH 480 0
DWIDTH 8 0
BBX 7 8 0 0
BITMAP
82
82
44
44
28
28
10
10
ENDCHAR
STARTCHAR uni0077
ENCODING 119
SWIDTH 720 0
DWIDTH 12 0
BBX 11 8 0 0
BITMAP
8420
8420
8A20
4A40
5140
5140
2080
2080
ENDCHAR
STARTCHAR uni0078
ENCODING 120
SWIDTH 480 0
DWIDTH 8 0
BBX 7 8 0 0
BITMAP
82
44
28
10
10
28
44
82
ENDCHAR
STARTCHAR uni0079
ENCODING 121
SWIDTH 480 0
DWIDTH 8 0
BBX 7 11 0 -3
BITMAP
82
82
44
44
44
28
28
10
10
20
C0
ENDCHAR
STARTCHAR uni007A
ENCODING 122
SWIDTH 420 0
DWIDTH 7 0
BBX 6 8 0 0
BITMAP
FC
04
08
10
20
40
80
FC
ENDCHAR
STARTCHAR uni007B
ENCODING 123
SWIDTH 420 0
DWIDTH 7 0
BBX 4 14 1 -2
BITMAP
30
40
40
40
40
40
80
40
40
40
40
40
40
30
ENDCHAR
STARTCHAR uni007C
ENCODING 124
SWIDTH 240 0
DWIDTH 4 0
BBX 1 14 1 -2
BITMAP
80
80
80
80
80
80
80
80
80
80
80
80
80
80
ENDCHAR
STARTCHAR uni007D
ENCODING 125
SWIDTH 420 0
DWIDTH 7 0
BBX 4 14 1 -2
BITMAP
C0
20
20
20
20
20
10
20
20
20
20
20
20
C0
ENDCHAR
STARTCHAR uni007E
ENCODING 126
SWIDTH 480 0
DWIDTH 8 0
BBX 7 3 0 4
BITMAP
60
92
0C
ENDCHAR
STARTCHAR uni00A1
ENCODING 161
SWIDTH 360 0
DWIDTH 6 0
BBX 3 11 1 -3
BITMAP
40
00
00
40
40
40
40
E0
E0
E0
40
ENDCHAR
STARTCHAR uni00A2
ENCODING 162
SWIDTH 480 0
DWIDTH 8 0
BBX 7 10 0 -1
BITMAP
10
7C
92
90
90
90
90
92
7C
10
ENDCHAR
STARTCHAR uni00A3
ENCODING 163
SWIDTH 420 0
DWIDTH 7 0
BBX 6 11 0 0
BITMAP
78
84
80
80
40
20
F8
20
40
80
FC
ENDCHAR
STARTCHAR uni00A4
ENCODING 164
SWIDTH 480 0
DWIDTH 8 0
BBX 7 7 0 2
BITMAP
BA
44
82
82
82
44
BA
ENDCHAR
STARTCHAR uni00A5
ENCODING 165
SWIDTH 480 0
DWIDTH 8 0
BBX 7 11 0 0
BITMAP
82
82
44
44
28
FE
10
10
FE
10
10
ENDCHAR
STARTCHAR uni00A6
ENCODING 166
SWIDTH 240 0
DWIDTH 4 0
BBX 1 14 1 -2
BITMAP
80
80
80
80
80
80
00
00
80
80
80
80
80
80
ENDCHAR
STARTCHAR uni00A7
ENCODING 167
SWIDTH 420 0
DWIDTH 7 0
BBX 6 14 0 -3
BITMAP
78
84
80
80
60
98
84
84
64
18
04
04
84
78
ENDCHAR
STARTCHAR uni00A8
ENCODING 168
SWIDTH 420 0
DWIDTH 7 0
BBX 4 1 1 10
BITMAP
90
ENDCHAR
STARTCHAR uni00A9
ENCODING 169
SWIDTH 960 0
DWIDTH 16 0
BBX 11 11 2 0
BITMAP
1F00
2080
4E40
9120
9020
9020
9020
9120
4E40
2080
1F00
ENDCHAR
STARTCHAR uni00AA
ENCODING 170
SWIDTH 360 0
DWIDTH 6 0
BBX 5 5 0 6
BITMAP
70
08
78
88
78
ENDCHAR
STARTCHAR uni00AB
ENCODING 171
SWIDTH 480 0
DWIDTH 8 0
BBX 7 7 0 1
BITMAP
12
24
48
90
48
24
12
ENDCHAR
STARTCHAR uni00AC
ENCODING 172
SWIDTH 420 0
DWIDTH 7 0
BBX 6 4 0 3
BITMAP
FC
04
04
04
ENDCHAR
STARTCHAR uni00AE
ENCODING 174
SWIDTH 960 0
DWIDTH 16 0
BBX 10 10 0 3
BITMAP
3F00
4080
9C40
9240
9240
9C40
9240
9240
4080
3F00
ENDCHAR
STARTCHAR uni00AF
ENCODING 175
SWIDTH 420 0
DWIDTH 7 0
BBX 6 1 0 10
BITMAP
FC
ENDCHAR
STARTCHAR uni00B0
ENCODING 176
SWIDTH 300 0
DWIDTH 5 0
BBX 4 4 0 7
BITMAP
60
90
90
60
ENDCHAR
STARTCHAR uni00B1
ENCODING 177
SWIDTH 360 0
DWIDTH 6 0
BBX 5 7 0 1
BITMAP
20
20
F8
20
20
00
F8
ENDCHAR
STARTCHAR uni00B2
ENCODING 178
SWIDTH 360 0
DWIDTH 6 0
BBX 5 7 0 6
BITMAP
70
88
08
30
40
80
F8
ENDCHAR
STARTCHAR uni00B3
ENCODING 179
SWIDTH 360 0
DWIDTH 6 0
BBX 5 7 0 6
BITMAP
70
88
08
30
08
88
70
ENDCHAR
STARTCHAR uni00B4
ENCODING 180
SWIDTH 360 0
DWIDTH 6 0
BBX 3 3 1 8
BITMAP
20
40
80
ENDCHAR
STARTCHAR uni00B5
ENCODING 181
SWIDTH 420 0
DWIDTH 7 0
BBX 6 11 0 -3
BITMAP
84
84
84
84
84
84
CC
B4
80
80
80
ENDCHAR
STARTCHAR uni00B6
ENCODING 182
SWIDTH 480 0
DWIDTH 8 0
BBX 7 14 0 -3
BITMAP
1E
7A
FA
FA
FA
FA
7A
1A
0A
0A
0A
0A
0A
0A
ENDCHAR
STARTCHAR uni00B7
ENCODING 183
SWIDTH 300 0
DWIDTH 5 0
BBX 2 2 1 4
BITMAP
C0
C0
ENDCHAR
STARTCHAR uni00B8
ENCODING 184
SWIDTH 420 0
DWIDTH 7 0
BBX 3 4 2 -3
BITMAP
40
40
20
C0
ENDCHAR
STARTCHAR uni00B9
ENCODING 185
SWIDTH 360 0
DWIDTH 6 0
BBX 5 7 0 6
BITMAP
20
E0
20
20
20
20
F8
ENDCHAR
STARTCHAR uni00BA
ENCODING 186
SWIDTH 360 0
DWIDTH 6 0
BBX 5 5 0 6
BITMAP
70
88
88
88
70
ENDCHAR
STARTCHAR uni00BB
ENCODING 187
SWIDTH 480 0
DWIDTH 8 0
BBX 7 7 0 1
BITMAP
90
48
24
12
24
48
90
ENDCHAR
STARTCHAR uni00BC
ENCODING 188
SWIDTH 960 0
DWIDTH 16 0
BBX 15 15 0 -2
BITMAP
1002
7004
1008
1010
1020
1040
7C80
0100
0218
0428
0828
1048
2048
407C
8008
ENDCHAR
STARTCHAR uni00BD
ENCODING 189
SWIDTH 960 0
DWIDTH 16 0
BBX 15 15 0 -2
BITMAP
1002
7004
1008
1010
1020
1040
7C80
0100
0238
0444
0804
1018
2020
4040
807C
ENDCHAR
STARTCHAR uni00BE
ENCODING 190
SWIDTH 960 0
DWIDTH 16 0
BBX 15 15 0 -2
BITMAP
3802
4404
0408
1810
0420
4440
3880
0100
0218
0428
0828
1048
2048
407C
8008
ENDCHAR
STARTCHAR uni00BF
ENCODING 191
SWIDTH 420 0
DWIDTH 7 0
BBX 6 11 0 -3
BITMAP
20
00
00
20
20
20
40
80
84
84
78
ENDCHAR
STARTCHAR uni00C0
ENCODING 192
SWIDTH 480 0
DWIDTH 8 0
BBX 7 15 0 0
BITMAP
20
10
00
00
10
10
28
28
28
44
44
7C
82
82
82
ENDCHAR
STARTCHAR uni00C1
ENCODING 193
SWIDTH 480 0
DWIDTH 8 0
BBX 7 15 0 0
BITMAP
08
10
00
00
10
10
28
28
28
44
44
7C
82
82
82
ENDCHAR
STARTCHAR uni00C2
ENCODING 194
SWIDTH 480 0
DWIDTH 8 0
BBX 7 15 0 0
BITMAP
10
28
00
00
10
10
28
28
28
44
44
7C
82
82
82
ENDCHAR
STARTCHAR uni00C3
ENCODING 195
SWIDTH 480 0
DWIDTH 8 0
BBX 7 15 0 0
BITMAP
34
48
00
00
10
10
28
28
28
44
44
7C
82
82
82
ENDCHAR
STARTCHAR uni00C4
ENCODING 196
SWIDTH 480 0
DWIDTH 8 0
BBX 7 14 0 0
BITMAP
28
00
00
10
10
28
28
28
44
44
7C
82
82
82
ENDCHAR
STARTCHAR uni00C5
ENCODING 197
SWIDTH 480 0
DWIDTH 8 0
BBX 7 15 0 0
BITMAP
10
28
10
00
10
10
28
28
28
44
44
7C
82
82
82
ENDCHAR
STARTCHAR uni00C6
ENCODING 198
SWIDTH 720 0
DWIDTH 12 0
BBX 11 11 0 0
BITMAP
0FE0
0C00
1400
1400
2400
27C0
4400
7C00
8400
8400
87E0
ENDCHAR
STARTCHAR uni00C7
ENCODING 199
SWIDTH 480 0
DWIDTH 8 0
BBX 7 14 0 -3
BITMAP
3C
42
80
80
80
80
80
80
80
42
3C
08
04
18
ENDCHAR
STARTCHAR uni00C8
ENCODING 200
SWIDTH 480 0
DWIDTH 8 0
BBX 7 15 0 0
BITMAP
20
10
00
00
FE
80
80
80
80
FC
80
80
80
80
FE
ENDCHAR
STARTCHAR uni00C9
ENCODING 201
SWIDTH 480 0
DWIDTH 8 0
BBX 7 15 0 0
BITMAP
08
10
00
00
FE
80
80
80
80
FC
80
80
80
80
FE
ENDCHAR
STARTCHAR uni00CA
ENCODING 202
SWIDTH 480 0
DWIDTH 8 0
BBX 7 15 0 0
BITMAP
10
28
00
00
FE
80
80
80
80
FC
80
80
80
80
FE
ENDCHAR
STARTCHAR uni00CB
ENCODING 203
SWIDTH 480 0
DWIDTH 8 0
BBX 7 14 0 0
BITMAP
28
00
00
FE
80
80
80
80
FC
80
80
80
80
FE
ENDCHAR
STARTCHAR uni00CC
ENCODING 204
SWIDTH 240 0
DWIDTH 4 0
BBX 3 15 0 0
BITMAP
80
40
00
00
E0
40
40
40
40
40
40
40
40
40
E0
ENDCHAR
STARTCHAR uni00CD
ENCODING 205
SWIDTH 240 0
DWIDTH 4 0
BBX 3 15 0 0
BITMAP
20
40
00
00
E0
40
40
40
40
40
40
40
40
40
E0
ENDCHAR
STARTCHAR uni00CE
ENCODING 206
SWIDTH 240 0
DWIDTH 4 0
BBX 3 15 0 0
BITMAP
40
A0
00
00
E0
40
40
40
40
40
40
40
40
40
E0
ENDCHAR
STARTCHAR uni00CF
ENCODING 207
SWIDTH 240 0
DWIDTH 4 0
BBX 3 14 0 0
BITMAP
A0
00
00
E0
40
40
40
40
40
40
40
40
40
E0
ENDCHAR
STARTCHAR uni00D0
ENCODING 208
SWIDTH 540 0
DWIDTH 9 0
BBX 8 11 0 0
BITMAP
7C
42
41
41
41
F1
41
41
41
42
7C
ENDCHAR
STARTCHAR uni00D1
ENCODING 209
SWIDTH 480 0
DWIDTH 8 0
BBX 7 15 0 0
BITMAP
34
48
00
00
82
C2
C2
A2
A2
92
8A
8A
86
86
82
ENDCHAR
STARTCHAR uni00D2
ENCODING 210
SWIDTH 480 0
DWIDTH 8 0
BBX 7 15 0 0
BITMAP
20
10
00
00
38
44
82
82
82
82
82
82
82
44
38
ENDCHAR
STARTCHAR uni00D3
ENCODING 211
SWIDTH 480 0
DWIDTH 8 0
BBX 7 15 0 0
BITMAP
08
10
00
00
38
44
82
82
82
82
82
82
82
44
38
ENDCHAR
STARTCHAR uni00D4
ENCODING 212
SWIDTH 480 0
DWIDTH 8 0
BBX 7 15 0 0
BITMAP
10
28
00
00
38
44
82
82
82
82
82
82
82
44
38
ENDCHAR
STARTCHAR uni00D5
ENCODING 213
SWIDTH 480 0
DWIDTH 8 0
BBX 7 15 0 0
BITMAP
34
48
00
00
38
44
82
82
82
82
82
82
82
44
38
ENDCHAR
STARTCHAR uni00D6
ENCODING 214
SWIDTH 480 0
DWIDTH 8 0
BBX 7 14 0 0
BITMAP
28
00
00
38
44
82
82
82
82
82
82
82
44
38
ENDCHAR
STARTCHAR uni00D7
ENCODING 215
SWIDTH 360 0
DWIDTH 6 0
BBX 5 5 0 3
BITMAP
88
50
20
50
88
ENDCHAR
STARTCHAR uni00D8
ENCODING 216
SWIDTH 480 0
DWIDTH 8 0
BBX 7 13 0 -1
BITMAP
02
3A
44
8A
8A
92
92
92
A2
A2
44
B8
80
ENDCHAR
STARTCHAR uni00D9
ENCODING 217
SWIDTH 480 0
DWIDTH 8 0
BBX 7 15 0 0
BITMAP
20
10
00
00
82
82
82
82
82
82
82
82
82
44
38
ENDCHAR
STARTCHAR uni00DA
ENCODING 218
SWIDTH 480 0
DWIDTH 8 0
BBX 7 15 0 0
BITMAP
08
10
00
00
82
82
82
82
82
82
82
82
82
44
38
ENDCHAR
STARTCHAR uni00DB
ENCODING 219
SWIDTH 480 0
DWIDTH 8 0
BBX 7 15 0 0
BITMAP
10
28
00
00
82
82
82
82
82
82
82
82
82
44
38
ENDCHAR
STARTCHAR uni00DC
ENCODING 220
SWIDTH 480 0
DWIDTH 8 0
BBX 7 14 0 0
BITMAP
28
00
00
82
82
82
82
82
82
82
82
82
44
38
ENDCHAR
STARTCHAR uni00DD
ENCODING 221
SWIDTH 480 0
DWIDTH 8 0
BBX 7 15 0 0
BITMAP
08
10
00
00
82
82
44
44
28
28
10
10
10
10
10
ENDCHAR
STARTCHAR uni00DE
ENCODING 222
SWIDTH 480 0
DWIDTH 8 0
BBX 7 11 0 0
BITMAP
80
80
80
FC
82
82
82
FC
80
80
80
ENDCHAR
STARTCHAR uni00DF
ENCODING 223
SWIDTH 420 0
DWIDTH 7 0
BBX 6 11 0 0
BITMAP
70
88
88
88
90
90
88
84
84
A4
98
ENDCHAR
STARTCHAR uni00E0
ENCODING 224
SWIDTH 420 0
DWIDTH 7 0
BBX 6 12 0 0
BITMAP
20
10
00
00
78
04
04
7C
84
84
84
7C
ENDCHAR
STARTCHAR uni00E1
ENCODING 225
SWIDTH 420 0
DWIDTH 7 0
BBX 6 12 0 0
BITMAP
10
20
00
00
78
04
04
7C
84
84
84
7C
ENDCHAR
STARTCHAR uni00E2
ENCODING 226
SWIDTH 420 0
DWIDTH 7 0
BBX 6 12 0 0
BITMAP
30
48
00
00
78
04
04
7C
84
84
84
7C
ENDCHAR
STARTCHAR uni00E3
ENCODING 227
SWIDTH 420 0
DWIDTH 7 0
BBX 6 12 0 0
BITMAP
64
98
00
00
78
04
04
7C
84
84
84
7C
ENDCHAR
STARTCHAR uni00E4
ENCODING 228
SWIDTH 420 0
DWIDTH 7 0
BBX 6 11 0 0
BITMAP
48
00
00
78
04
04
7C
84
84
84
7C
ENDCHAR
STARTCHAR uni00E5
ENCODING 229
SWIDTH 420 0
DWIDTH 7 0
BBX 6 12 0 0
BITMAP
10
28
10
00
78
04
04
7C
84
84
84
7C
ENDCHAR
STARTCHAR uni00E6
ENCODING 230
SWIDTH 720 0
DWIDTH 12 0
BBX 11 8 0 0
BITMAP
7BC0
0420
0420
7FE0
8400
8400
8420
7BC0
ENDCHAR
STARTCHAR uni00E7
ENCODING 231
SWIDTH 420 0
DWIDTH 7 0
BBX 6 11 0 -3
BITMAP
78
84
80
80
80
80
84
78
10
08
30
ENDCHAR
STARTCHAR uni00E8
ENCODING 232
SWIDTH 420 0
DWIDTH 7 0
BBX 6 12 0 0
BITMAP
20
10
00
00
78
84
84
FC
80
80
84
78
ENDCHAR
STARTCHAR uni00E9
ENCODING 233
SWIDTH 420 0
DWIDTH 7 0
BBX 6 12 0 0
BITMAP
10
20
00
00
78
84
84
FC
80
80
84
78
ENDCHAR
STARTCHAR uni00EA
ENCODING 234
SWIDTH 420 0
DWIDTH 7 0
BBX 6 12 0 0
BITMAP
30
48
00
00
78
84
84
FC
80
80
84
78
ENDCHAR
STARTCHAR uni00EB
ENCODING 235
SWIDTH 420 0
DWIDTH 7 0
BBX 6 11 0 0
BITMAP
48
00
00
78
84
84
FC
80
80
84
78
ENDCHAR
STARTCHAR uni00EC
ENCODING 236
SWIDTH 240 0
DWIDTH 4 0
BBX 3 12 0 0
BITMAP
80
40
00
00
C0
40
40
40
40
40
40
E0
ENDCHAR
STARTCHAR uni00ED
ENCODING 237
SWIDTH 240 0
DWIDTH 4 0
BBX 3 12 0 0
BITMAP
20
40
00
00
C0
40
40
40
40
40
40
E0
ENDCHAR
STARTCHAR uni00EE
ENCODING 238
SWIDTH 240 0
DWIDTH 4 0
BBX 3 12 0 0
BITMAP
40
A0
00
00
C0
40
40
40
40
40
40
E0
ENDCHAR
STARTCHAR uni00EF
ENCODING 239
SWIDTH 240 0
DWIDTH 4 0
BBX 3 11 0 0
BITMAP
A0
00
00
C0
40
40
40
40
40
40
E0
ENDCHAR
STARTCHAR uni00F0
ENCODING 240
SWIDTH 420 0
DWIDTH 7 0
BBX 6 13 0 0
BITMAP
64
18
30
48
08
78
84
84
84
84
84
84
78
ENDCHAR
STARTCHAR uni00F1
ENCODING 241
SWIDTH 420 0
DWIDTH 7 0
BBX 6 12 0 0
BITMAP
64
98
00
00
B8
C4
84
84
84
84
84
84
ENDCHAR
STARTCHAR uni00F2
ENCODING 242
SWIDTH 420 0
DWIDTH 7 0
BBX 6 12 0 0
BITMAP
20
10
00
00
78
84
84
84
84
84
84
78
ENDCHAR
STARTCHAR uni00F3
ENCODING 243
SWIDTH 420 0
DWIDTH 7 0
BBX 6 12 0 0
BITMAP
10
20
00
00
78
84
84
84
84
84
84
78
ENDCHAR
STARTCHAR uni00F4
ENCODING 244
SWIDTH 420 0
DWIDTH 7 0
BBX 6 12 0 0
BITMAP
30
48
00
00
78
84
84
84
84
84
84
78
ENDCHAR
STARTCHAR uni00F5
ENCODING 245
SWIDTH 420 0
DWIDTH 7 0
BBX 6 12 0 0
BITMAP
64
98
00
00
78
84
84
84
84
84
84
78
ENDCHAR
STARTCHAR uni00F6
ENCODING 246
SWIDTH 420 0
DWIDTH 7 0
BBX 6 11 0 0
BITMAP
48
00
00
78
84
84
84
84
84
84
78
ENDCHAR
STARTCHAR uni00F7
ENCODING 247
SWIDTH 360 0
DWIDTH 6 0
BBX 5 5 0 3
BITMAP
20
00
F8
00
20
ENDCHAR
STARTCHAR uni00F8
ENCODING 248
SWIDTH 420 0
DWIDTH 7 0
BBX 6 10 0 -1
BITMAP
04
78
8C
94
94
A4
A4
C4
78
80
ENDCHAR
STARTCHAR uni00F9
ENCODING 249
SWIDTH 420 0
DWIDTH 7 0
BBX 6 12 0 0
BITMAP
20
10
00
00
84
84
84
84
84
84
8C
74
ENDCHAR
STARTCHAR uni00FA
ENCODING 250
SWIDTH 420 0
DWIDTH 7 0
BBX 6 12 0 0
BITMAP
10
20
00
00
84
84
84
84
84
84
8C
74
ENDCHAR
STARTCHAR uni00FB
ENCODING 251
SWIDTH 420 0
DWIDTH 7 0
BBX 6 12 0 0
BITMAP
30
48
00
00
84
84
84
84
84
84
8C
74
ENDCHAR
STARTCHAR uni00FC
ENCODING 252
SWIDTH 420 0
DWIDTH 7 0
BBX 6 11 0 0
BITMAP
48
00
00
84
84
84
84
84
84
8C
74
ENDCHAR
STARTCHAR uni00FD
ENCODING 253
SWIDTH 480 0
DWIDTH 8 0
BBX 7 15 0 -3
BITMAP
08
10
00
00
82
82
44
44
44
28
28
10
10
20
C0
ENDCHAR
STARTCHAR uni00FE
ENCODING 254
SWIDTH 420 0
DWIDTH 7 0
BBX 6 14 0 -3
BITMAP
80
80
80
F8
84
84
84
84
84
84
F8
80
80
80
ENDCHAR
STARTCHAR uni00FF
ENCODING 255
SWIDTH 480 0
DWIDTH 8 0
BBX 7 14 0 -3
BITMAP
28
00
00
82
82
44
44
44
28
28
10
10
20
C0
ENDCHAR
STARTCHAR uni0100
ENCODING 256
SWIDTH 480 0
DWIDTH 8 0
BBX 7 14 0 0
BITMAP
38
00
00
10
10
28
28
28
44
44
7C
82
82
82
ENDCHAR
STARTCHAR uni0101
ENCODING 257
SWIDTH 420 0
DWIDTH 7 0
BBX 6 11 0 0
BITMAP
78
00
00
78
04
04
7C
84
84
84
7C
ENDCHAR
STARTCHAR uni0102
ENCODING 258
SWIDTH 480 0
DWIDTH 8 0
BBX 7 15 0 0
BITMAP
44
38
00
00
10
10
28
28
28
44
44
7C
82
82
82
ENDCHAR
STARTCHAR uni0103
ENCODING 259
SWIDTH 420 0
DWIDTH 7 0
BBX 6 12 0 0
BITMAP
84
78
00
00
78
04
04
7C
84
84
84
7C
ENDCHAR
STARTCHAR uni0106
ENCODING 262
SWIDTH 480 0
DWIDTH 8 0
BBX 7 15 0 0
BITMAP
08
10
00
00
3C
42
80
80
80
80
80
80
80
42
3C
ENDCHAR
STARTCHAR uni0107
ENCODING 263
SWIDTH 420 0
DWIDTH 7 0
BBX 6 12 0 0
BITMAP
10
20
00
00
78
84
80
80
80
80
84
78
ENDCHAR
STARTCHAR uni0108
ENCODING 264
SWIDTH 480 0
DWIDTH 8 0
BBX 7 15 0 0
BITMAP
18
24
00
00
3C
42
80
80
80
80
80
80
80
42
3C
ENDCHAR
STARTCHAR uni0109
ENCODING 265
SWIDTH 420 0
DWIDTH 7 0
BBX 6 12 0 0
BITMAP
30
48
00
00
78
84
80
80
80
80
84
78
ENDCHAR
STARTCHAR uni010A
ENCODING 266
SWIDTH 480 0
DWIDTH 8 0
BBX 7 14 0 0
BITMAP
08
00
00
3C
42
80
80
80
80
80
80
80
42
3C
ENDCHAR
STARTCHAR uni010B
ENCODING 267
SWIDTH 420 0
DWIDTH 7 0
BBX 6 11 0 0
BITMAP
10
00
00
78
84
80
80
80
80
84
78
ENDCHAR
STARTCHAR uni010C
ENCODING 268
SWIDTH 480 0
DWIDTH 8 0
BBX 7 15 0 0
BITMAP
24
18
00
00
3C
42
80
80
80
80
80
80
80
42
3C
ENDCHAR
STARTCHAR uni010D
ENCODING 269
SWIDTH 420 0
DWIDTH 7 0
BBX 6 12 0 0
BITMAP
48
30
00
00
78
84
80
80
80
80
84
78
ENDCHAR
STARTCHAR uni0110
ENCODING 272
SWIDTH 540 0
DWIDTH 9 0
BBX 8 11 0 0
BITMAP
7C
42
41
41
41
F1
41
41
41
42
7C
ENDCHAR
STARTCHAR uni0111
ENCODING 273
SWIDTH 480 0
DWIDTH 8 0
BBX 7 11 0 0
BITMAP
04
0E
04
7C
84
84
84
84
84
84
7C
ENDCHAR
STARTCHAR uni0112
ENCODING 274
SWIDTH 480 0
DWIDTH 8 0
BBX 7 14 0 0
BITMAP
38
00
00
FE
80
80
80
80
FC
80
80
80
80
FE
ENDCHAR
STARTCHAR uni0113
ENCODING 275
SWIDTH 420 0
DWIDTH 7 0
BBX 6 11 0 0
BITMAP
78
00
00
78
84
84
FC
80
80
84
78
ENDCHAR
STARTCHAR uni0114
ENCODING 276
SWIDTH 480 0
DWIDTH 8 0
BBX 7 15 0 0
BITMAP
44
38
00
00
FE
80
80
80
80
FC
80
80
80
80
FE
ENDCHAR
STARTCHAR uni0115
ENCODING 277
SWIDTH 420 0
DWIDTH 7 0
BBX 6 12 0 0
BITMAP
84
78
00
00
78
84
84
FC
80
80
84
78
ENDCHAR
STARTCHAR uni0116
ENCODING 278
SWIDTH 480 0
DWIDTH 8 0
BBX 7 14 0 0
BITMAP
10
00
00
FE
80
80
80
80
FC
80
80
80
80
FE
ENDCHAR
STARTCHAR uni0117
ENCODING 279
SWIDTH 420 0
DWIDTH 7 0
BBX 6 11 0 0
BITMAP
10
00
00
78
84
84
FC
80
80
84
78
ENDCHAR
STARTCHAR uni011A
ENCODING 282
SWIDTH 480 0
DWIDTH 8 0
BBX 7 15 0 0
BITMAP
28
10
00
00
FE
80
80
80
80
FC
80
80
80
80
FE
ENDCHAR
STARTCHAR uni011B
ENCODING 283
SWIDTH 420 0
DWIDTH 7 0
BBX 6 12 0 0
BITMAP
48
30
00
00
78
84
84
FC
80
80
84
78
ENDCHAR
STARTCHAR uni011C
ENCODING 284
SWIDTH 480 0
DWIDTH 8 0
BBX 7 15 0 0
BITMAP
18
24
00
00
3C
42
80
80
80
80
8E
82
82
42
3E
ENDCHAR
STARTCHAR uni011D
ENCODING 285
SWIDTH 420 0
DWIDTH 7 0
BBX 6 15 0 -3
BITMAP
10
28
00
00
7C
84
84
84
84
84
84
7C
04
04
78
ENDCHAR
STARTCHAR uni011E
ENCODING 286
SWIDTH 480 0
DWIDTH 8 0
BBX 7 15 0 0
BITMAP
42
3C
00
00
3C
42
80
80
80
80
8E
82
82
42
3E
ENDCHAR
STARTCHAR uni011F
ENCODING 287
SWIDTH 420 0
DWIDTH 7 0
BBX 6 15 0 -3
BITMAP
44
38
00
00
7C
84
84
84
84
84
84
7C
04
04
78
ENDCHAR
STARTCHAR uni0120
ENCODING 288
SWIDTH 480 0
DWIDTH 8 0
BBX 7 14 0 0
BITMAP
08
00
00
3C
42
80
80
80
80
8E
82
82
42
3E
ENDCHAR
STARTCHAR uni0121
ENCODING 289
SWIDTH 420 0
DWIDTH 7 0
BBX 6 14 0 -3
BITMAP
10
00
00
7C
84
84
84
84
84
84
7C
04
04
78
ENDCHAR
STARTCHAR uni0128
ENCODING 296
SWIDTH 240 0
DWIDTH 4 0
BBX 4 15 0 0
BITMAP
50
A0
00
00
E0
40
40
40
40
40
40
40
40
40
E0
ENDCHAR
STARTCHAR uni0129
ENCODING 297
SWIDTH 240 0
DWIDTH 4 0
BBX 4 12 0 0
BITMAP
50
A0
00
00
C0
40
40
40
40
40
40
E0
ENDCHAR
STARTCHAR uni012A
ENCODING 298
SWIDTH 240 0
DWIDTH 4 0
BBX 3 14 0 0
BITMAP
E0
00
00
E0
40
40
40
40
40
40
40
40
40
E0
ENDCHAR
STARTCHAR uni012B
ENCODING 299
SWIDTH 240 0
DWIDTH 4 0
BBX 3 11 0 0
BITMAP
E0
00
00
C0
40
40
40
40
40
40
E0
ENDCHAR
STARTCHAR uni012C
ENCODING 300
SWIDTH 240 0
DWIDTH 4 0
BBX 4 15 0 0
BITMAP
90
60
00
00
E0
40
40
40
40
40
40
40
40
40
E0
ENDCHAR
STARTCHAR uni012D
ENCODING 301
SWIDTH 240 0
DWIDTH 4 0
BBX 4 12 0 0
BITMAP
90
60
00
00
C0
40
40
40
40
40
40
E0
ENDCHAR
STARTCHAR uni0143
ENCODING 323
SWIDTH 480 0
DWIDTH 8 0
BBX 7 15 0 0
BITMAP
08
10
00
00
82
C2
C2
A2
A2
92
8A
8A
86
86
82
ENDCHAR
STARTCHAR uni0144
ENCODING 324
SWIDTH 420 0
DWIDTH 7 0
BBX 6 12 0 0
BITMAP
10
20
00
00
B8
C4
84
84
84
84
84
84
ENDCHAR
STARTCHAR uni0147
ENCODING 327
SWIDTH 480 0
DWIDTH 8 0
BBX 7 15 0 0
BITMAP
28
10
00
00
82
C2
C2
A2
A2
92
8A
8A
86
86
82
ENDCHAR
STARTCHAR uni0148
ENCODING 328
SWIDTH 420 0
DWIDTH 7 0
BBX 6 12 0 0
BITMAP
48
30
00
00
B8
C4
84
84
84
84
84
84
ENDCHAR
STARTCHAR uni014C
ENCODING 332
SWIDTH 480 0
DWIDTH 8 0
BBX 7 14 0 0
BITMAP
38
00
00
38
44
82
82
82
82
82
82
82
44
38
ENDCHAR
STARTCHAR uni014D
ENCODING 333
SWIDTH 420 0
DWIDTH 7 0
BBX 6 11 0 0
BITMAP
78
00
00
78
84
84
84
84
84
84
78
ENDCHAR
STARTCHAR uni014E
ENCODING 334
SWIDTH 480 0
DWIDTH 8 0
BBX 7 15 0 0
BITMAP
44
38
00
00
38
44
82
82
82
82
82
82
82
44
38
ENDCHAR
STARTCHAR uni014F
ENCODING 335
SWIDTH 420 0
DWIDTH 7 0
BBX 6 12 0 0
BITMAP
84
78
00
00
78
84
84
84
84
84
84
78
ENDCHAR
STARTCHAR uni0154
ENCODING 340
SWIDTH 480 0
DWIDTH 8 0
BBX 7 15 0 0
BITMAP
08
10
00
00
FC
82
82
82
82
FC
90
88
88
84
82
ENDCHAR
STARTCHAR uni0155
ENCODING 341
SWIDTH 360 0
DWIDTH 6 0
BBX 5 12 0 0
BITMAP
10
20
00
00
B8
C0
80
80
80
80
80
80
ENDCHAR
STARTCHAR uni0168
ENCODING 360
SWIDTH 480 0
DWIDTH 8 0
BBX 7 15 0 0
BITMAP
34
48
00
00
82
82
82
82
82
82
82
82
82
44
38
ENDCHAR
STARTCHAR uni0169
ENCODING 361
SWIDTH 420 0
DWIDTH 7 0
BBX 6 12 0 0
BITMAP
64
98
00
00
84
84
84
84
84
84
8C
74
ENDCHAR
STARTCHAR uni016A
ENCODING 362
SWIDTH 480 0
DWIDTH 8 0
BBX 7 14 0 0
BITMAP
38
00
00
82
82
82
82
82
82
82
82
82
44
38
ENDCHAR
STARTCHAR uni016B
ENCODING 363
SWIDTH 420 0
DWIDTH 7 0
BBX 6 11 0 0
BITMAP
78
00
00
84
84
84
84
84
84
8C
74
ENDCHAR
STARTCHAR uni016C
ENCODING 364
SWIDTH 480 0
DWIDTH 8 0
BBX 7 15 0 0
BITMAP
44
38
00
00
82
82
82
82
82
82
82
82
82
44
38
ENDCHAR
STARTCHAR uni016D
ENCODING 365
SWIDTH 420 0
DWIDTH 7 0
BBX 6 12 0 0
BITMAP
84
78
00
00
84
84
84
84
84
84
8C
74
ENDCHAR
STARTCHAR uni0174
ENCODING 372
SWIDTH 720 0
DWIDTH 12 0
BBX 11 15 0 0
BITMAP
0400
0A00
0000
0000
8420
8420
8A20
8A20
4A40
5140
5140
5140
2080
2080
2080
ENDCHAR
STARTCHAR uni0175
ENCODING 373
SWIDTH 720 0
DWIDTH 12 0
BBX 11 12 0 0
BITMAP
0400
0A00
0000
0000
8420
8420
8A20
4A40
5140
5140
2080
2080
ENDCHAR
STARTCHAR uni0176
ENCODING 374
SWIDTH 480 0
DWIDTH 8 0
BBX 7 15 0 0
BITMAP
10
28
00
00
82
82
44
44
28
28
10
10
10
10
10
ENDCHAR
STARTCHAR uni0177
ENCODING 375
SWIDTH 480 0
DWIDTH 8 0
BBX 7 15 0 -3
BITMAP
10
28
00
00
82
82
44
44
44
28
28
10
10
20
C0
ENDCHAR
STARTCHAR uni0178
ENCODING 376
SWIDTH 480 0
DWIDTH 8 0
BBX 7 14 0 0
BITMAP
28
00
00
82
82
44
44
28
28
10
10
10
10
10
ENDCHAR
STARTCHAR uni0179
ENCODING 377
SWIDTH 480 0
DWIDTH 8 0
BBX 7 15 0 0
BITMAP
08
10
00
00
FE
02
04
08
08
10
20
20
40
80
FE
ENDCHAR
STARTCHAR uni017A
ENCODING 378
SWIDTH 420 0
DWIDTH 7 0
BBX 6 12 0 0
BITMAP
10
20
00
00
FC
04
08
10
20
40
80
FC
ENDCHAR
STARTCHAR uni017B
ENCODING 379
SWIDTH 480 0
DWIDTH 8 0
BBX 7 14 0 0
BITMAP
10
00
00
FE
02
04
08
08
10
20
20
40
80
FE
ENDCHAR
STARTCHAR uni017C
ENCODING 380
SWIDTH 420 0
DWIDTH 7 0
BBX 6 11 0 0
BITMAP
10
00
00
FC
04
08
10
20
40
80
FC
ENDCHAR
STARTCHAR uni017D
ENCODING 381
SWIDTH 480 0
DWIDTH 8 0
BBX 7 15 0 0
BITMAP
28
10
00
00
FE
02
04
08
08
10
20
20
40
80
FE
ENDCHAR
STARTCHAR uni017E
ENCODING 382
SWIDTH 420 0
DWIDTH 7 0
BBX 6 12 0 0
BITMAP
48
30
00
00
FC
04
08
10
20
40
80
FC
ENDCHAR
STARTCHAR uni0192
ENCODING 402
SWIDTH 480 0
DWIDTH 8 0
BBX 7 14 0 -3
BITMAP
0E
10
10
FE
10
10
10
10
10
10
10
10
10
E0
ENDCHAR
STARTCHAR uni01CD
ENCODING 461
SWIDTH 480 0
DWIDTH 8 0
BBX 7 15 0 0
BITMAP
28
10
00
00
10
10
28
28
28
44
44
7C
82
82
82
ENDCHAR
STARTCHAR uni01CE
ENCODING 462
SWIDTH 420 0
DWIDTH 7 0
BBX 6 12 0 0
BITMAP
48
30
00
00
78
04
04
7C
84
84
84
7C
ENDCHAR
STARTCHAR uni01CF
ENCODING 463
SWIDTH 240 0
DWIDTH 4 0
BBX 3 15 0 0
BITMAP
A0
40
00
00
E0
40
40
40
40
40
40
40
40
40
E0
ENDCHAR
STARTCHAR uni01D0
ENCODING 464
SWIDTH 240 0
DWIDTH 4 0
BBX 3 12 0 0
BITMAP
A0
40
00
00
C0
40
40
40
40
40
40
E0
ENDCHAR
STARTCHAR uni01D1
ENCODING 465
SWIDTH 480 0
DWIDTH 8 0
BBX 7 15 0 0
BITMAP
28
10
00
00
38
44
82
82
82
82
82
82
82
44
38
ENDCHAR
STARTCHAR uni01D2
ENCODING 466
SWIDTH 420 0
DWIDTH 7 0
BBX 6 12 0 0
BITMAP
48
30
00
00
78
84
84
84
84
84
84
78
ENDCHAR
STARTCHAR uni01D3
ENCODING 467
SWIDTH 480 0
DWIDTH 8 0
BBX 7 15 0 0
BITMAP
28
10
00
00
82
82
82
82
82
82
82
82
82
44
38
ENDCHAR
STARTCHAR uni01D4
ENCODING 468
SWIDTH 420 0
DWIDTH 7 0
BBX 6 12 0 0
BITMAP
48
30
00
00
84
84
84
84
84
84
8C
74
ENDCHAR
STARTCHAR uni01D5
ENCODING 469
SWIDTH 480 0
DWIDTH 8 0
BBX 7 15 0 0
BITMAP
38
00
28
00
82
82
82
82
82
82
82
82
82
44
38
ENDCHAR
STARTCHAR uni01D6
ENCODING 470
SWIDTH 420 0
DWIDTH 7 0
BBX 6 12 0 0
BITMAP
78
00
48
00
84
84
84
84
84
84
8C
74
ENDCHAR
STARTCHAR uni01D7
ENCODING 471
SWIDTH 480 0
DWIDTH 8 0
BBX 7 16 0 0
BITMAP
08
10
00
28
00
82
82
82
82
82
82
82
82
82
44
38
ENDCHAR
STARTCHAR uni01D8
ENCODING 472
SWIDTH 420 0
DWIDTH 7 0
BBX 6 13 0 0
BITMAP
10
20
00
48
00
84
84
84
84
84
84
8C
74
ENDCHAR
STARTCHAR uni01D9
ENCODING 473
SWIDTH 480 0
DWIDTH 8 0
BBX 7 16 0 0
BITMAP
28
10
00
28
00
82
82
82
82
82
82
82
82
82
44
38
ENDCHAR
STARTCHAR uni01DA
ENCODING 474
SWIDTH 420 0
DWIDTH 7 0
BBX 6 13 0 0
BITMAP
48
30
00
48
00
84
84
84
84
84
84
8C
74
ENDCHAR
STARTCHAR uni01DB
ENCODING 475
SWIDTH 480 0
DWIDTH 8 0
BBX 7 16 0 0
BITMAP
20
10
00
28
00
82
82
82
82
82
82
82
82
82
44
38
ENDCHAR
STARTCHAR uni01DC
ENCODING 476
SWIDTH 420 0
DWIDTH 7 0
BBX 6 13 0 0
BITMAP
20
10
00
48
00
84
84
84
84
84
84
8C
74
ENDCHAR
STARTCHAR uni01DD
ENCODING 477
SWIDTH 420 0
DWIDTH 7 0
BBX 6 8 0 0
BITMAP
78
84
04
04
FC
84
84
78
ENDCHAR
STARTCHAR uni01DE
ENCODING 478
SWIDTH 480 0
DWIDTH 8 0
BBX 7 15 0 0
BITMAP
38
00
28
00
10
10
28
28
28
44
44
7C
82
82
82
ENDCHAR
STARTCHAR uni01DF
ENCODING 479
SWIDTH 420 0
DWIDTH 7 0
BBX 6 12 0 0
BITMAP
78
00
48
00
78
04
04
7C
84
84
84
7C
ENDCHAR
STARTCHAR uni01E0
ENCODING 480
SWIDTH 480 0
DWIDTH 8 0
BBX 7 15 0 0
BITMAP
38
00
10
00
10
10
28
28
28
44
44
7C
82
82
82
ENDCHAR
STARTCHAR uni01E1
ENCODING 481
SWIDTH 420 0
DWIDTH 7 0
BBX 6 12 0 0
BITMAP
78
00
10
00
78
04
04
7C
84
84
84
7C
ENDCHAR
STARTCHAR uni01E2
ENCODING 482
SWIDTH 720 0
DWIDTH 12 0
BBX 11 14 0 0
BITMAP
1F00
0000
0000
0FE0
0C00
1400
1400
2400
27C0
4400
7C00
8400
8400
87E0
ENDCHAR
STARTCHAR uni01E3
ENCODING 483
SWIDTH 720 0
DWIDTH 12 0
BBX 11 11 0 0
BITMAP
0E00
0000
0000
7BC0
0420
0420
7FE0
8400
8400
8420
7BC0
ENDCHAR
STARTCHAR uni01F8
ENCODING 504
SWIDTH 480 0
DWIDTH 8 0
BBX 7 15 0 0
BITMAP
20
10
00
00
82
C2
C2
A2
A2
92
8A
8A
86
86
82
ENDCHAR
STARTCHAR uni01F9
ENCODING 505
SWIDTH 420 0
DWIDTH 7 0
BBX 6 12 0 0
BITMAP
20
10
00
00
B8
C4
84
84
84
84
84
84
ENDCHAR
STARTCHAR uni01FC
ENCODING 508
SWIDTH 720 0
DWIDTH 12 0
BBX 11 15 0 0
BITMAP
0200
0400
0000
0000
0FE0
1400
1400
1400
2400
27C0
3C00
4400
4400
8400
87E0
ENDCHAR
STARTCHAR uni01FD
ENCODING 509
SWIDTH 720 0
DWIDTH 12 0
BBX 11 12 0 0
BITMAP
0200
0400
0000
0000
7BC0
0420
0420
7FE0
8400
8400
8420
7BC0
ENDCHAR
STARTCHAR uni021E
ENCODING 542
SWIDTH 480 0
DWIDTH 8 0
BBX 7 15 0 0
BITMAP
28
10
00
00
82
82
82
82
82
FE
82
82
82
82
82
ENDCHAR
STARTCHAR uni021F
ENCODING 543
SWIDTH 420 0
DWIDTH 7 0
BBX 6 15 0 0
BITMAP
48
30
00
00
80
80
80
B8
C4
84
84
84
84
84
84
ENDCHAR
STARTCHAR uni0232
ENCODING 562
SWIDTH 480 0
DWIDTH 8 0
BBX 7 14 0 0
BITMAP
38
00
00
82
82
44
44
28
28
10
10
10
10
10
ENDCHAR
STARTCHAR uni0233
ENCODING 563
SWIDTH 480 0
DWIDTH 8 0
BBX 7 14 0 -3
BITMAP
38
00
00
82
82
44
44
28
28
28
10
10
20
C0
ENDCHAR
STARTCHAR uni0384
ENCODING 900
SWIDTH 300 0
DWIDTH 5 0
BBX 2 2 1 11
BITMAP
40
80
ENDCHAR
STARTCHAR uni0385
ENCODING 901
SWIDTH 420 0
DWIDTH 7 0
BBX 4 4 1 9
BITMAP
20
40
00
90
ENDCHAR
STARTCHAR uni0386
ENCODING 902
SWIDTH 480 0
DWIDTH 8 0
BBX 7 15 0 0
BITMAP
40
80
00
00
10
10
28
28
28
44
44
7C
82
82
82
ENDCHAR
STARTCHAR uni0388
ENCODING 904
SWIDTH 480 0
DWIDTH 8 0
BBX 7 15 0 0
BITMAP
40
80
00
00
FE
80
80
80
80
FC
80
80
80
80
FE
ENDCHAR
STARTCHAR uni0389
ENCODING 905
SWIDTH 480 0
DWIDTH 8 0
BBX 7 15 0 0
BITMAP
40
80
00
00
82
82
82
82
82
FE
82
82
82
82
82
ENDCHAR
STARTCHAR uni038A
ENCODING 906
SWIDTH 240 0
DWIDTH 4 0
BBX 3 15 0 0
BITMAP
40
80
00
00
E0
40
40
40
40
40
40
40
40
40
E0
ENDCHAR
STARTCHAR uni038C
ENCODING 908
SWIDTH 480 0
DWIDTH 8 0
BBX 7 15 0 0
BITMAP
40
80
00
00
38
44
82
82
82
82
82
82
82
44
38
ENDCHAR
STARTCHAR uni038E
ENCODING 910
SWIDTH 480 0
DWIDTH 8 0
BBX 7 15 0 0
BITMAP
40
80
00
00
82
82
44
44
28
28
10
10
10
10
10
ENDCHAR
STARTCHAR uni038F
ENCODING 911
SWIDTH 540 0
DWIDTH 9 0
BBX 8 15 0 0
BITMAP
40
80
00
00
3C
42
81
81
81
81
81
81
42
24
E7
ENDCHAR
STARTCHAR uni0390
ENCODING 912
SWIDTH 240 0
DWIDTH 4 0
BBX 3 13 0 0
BITMAP
20
40
00
A0
00
40
C0
40
40
40
40
40
20
ENDCHAR
STARTCHAR uni0391
ENCODING 913
SWIDTH 480 0
DWIDTH 8 0
BBX 7 11 0 0
BITMAP
10
10
28
28
28
44
44
7C
82
82
82
ENDCHAR
STARTCHAR uni0392
ENCODING 914
SWIDTH 480 0
DWIDTH 8 0
BBX 7 11 0 0
BITMAP
F8
84
82
82
84
F8
84
82
82
84
F8
ENDCHAR
STARTCHAR uni0393
ENCODING 915
SWIDTH 420 0
DWIDTH 7 0
BBX 6 11 0 0
BITMAP
FC
80
80
80
80
80
80
80
80
80
80
ENDCHAR
STARTCHAR uni0394
ENCODING 916
SWIDTH 480 0
DWIDTH 8 0
BBX 7 11 0 0
BITMAP
10
10
28
28
28
44
44
44
82
82
FE
ENDCHAR
STARTCHAR uni0395
ENCODING 917
SWIDTH 480 0
DWIDTH 8 0
BBX 7 11 0 0
BITMAP
FE
80
80
80
80
FC
80
80
80
80
FE
ENDCHAR
STARTCHAR uni0396
ENCODING 918
SWIDTH 480 0
DWIDTH 8 0
BBX 7 11 0 0
BITMAP
FE
02
04
08
08
10
20
20
40
80
FE
ENDCHAR
STARTCHAR uni0397
ENCODING 919
SWIDTH 480 0
DWIDTH 8 0
BBX 7 11 0 0
BITMAP
82
82
82
82
82
FE
82
82
82
82
82
ENDCHAR
STARTCHAR uni0398
ENCODING 920
SWIDTH 480 0
DWIDTH 8 0
BBX 7 11 0 0
BITMAP
38
44
82
82
82
BA
82
82
82
44
38
ENDCHAR
STARTCHAR uni0399
ENCODING 921
SWIDTH 240 0
DWIDTH 4 0
BBX 3 11 0 0
BITMAP
E0
40
40
40
40
40
40
40
40
40
E0
ENDCHAR
STARTCHAR uni039A
ENCODING 922
SWIDTH 480 0
DWIDTH 8 0
BBX 7 11 0 0
BITMAP
82
84
88
90
A0
C0
A0
90
88
84
82
ENDCHAR
STARTCHAR uni039B
ENCODING 923
SWIDTH 480 0
DWIDTH 8 0
BBX 7 11 0 0
BITMAP
10
10
28
28
28
44
44
44
82
82
82
ENDCHAR
STARTCHAR uni039C
ENCODING 924
SWIDTH 720 0
DWIDTH 12 0
BBX 11 11 0 0
BITMAP
8020
C060
C060
A0A0
A0A0
9120
9120
8A20
8A20
8420
8420
ENDCHAR
STARTCHAR uni039D
ENCODING 925
SWIDTH 480 0
DWIDTH 8 0
BBX 7 11 0 0
BITMAP
82
C2
C2
A2
A2
92
8A
8A
86
86
82
ENDCHAR
STARTCHAR uni039E
ENCODING 926
SWIDTH 420 0
DWIDTH 7 0
BBX 6 11 0 0
BITMAP
FC
00
00
00
00
78
00
00
00
00
FC
ENDCHAR
STARTCHAR uni039F
ENCODING 927
SWIDTH 480 0
DWIDTH 8 0
BBX 7 11 0 0
BITMAP
38
44
82
82
82
82
82
82
82
44
38
ENDCHAR
STARTCHAR uni03A0
ENCODING 928
SWIDTH 480 0
DWIDTH 8 0
BBX 7 11 0 0
BITMAP
FE
82
82
82
82
82
82
82
82
82
82
ENDCHAR
STARTCHAR uni03A1
ENCODING 929
SWIDTH 480 0
DWIDTH 8 0
BBX 7 11 0 0
BITMAP
FC
82
82
82
82
FC
80
80
80
80
80
ENDCHAR
STARTCHAR uni03A3
ENCODING 931
SWIDTH 480 0
DWIDTH 8 0
BBX 7 11 0 0
BITMAP
FE
40
20
10
08
04
08
10
20
40
FE
ENDCHAR
STARTCHAR uni03A4
ENCODING 932
SWIDTH 480 0
DWIDTH 8 0
BBX 7 11 0 0
BITMAP
FE
10
10
10
10
10
10
10
10
10
10
ENDCHAR
STARTCHAR uni03A5
ENCODING 933
SWIDTH 480 0
DWIDTH 8 0
BBX 7 11 0 0
BITMAP
82
82
44
44
28
28
10
10
10
10
10
ENDCHAR
STARTCHAR uni03A6
ENCODING 934
SWIDTH 720 0
DWIDTH 12 0
BBX 11 11 0 0
BITMAP
0400
3F80
4440
8420
8420
8420
8420
8420
4440
3F80
0400
ENDCHAR
STARTCHAR uni03A7
ENCODING 935
SWIDTH 480 0
DWIDTH 8 0
BBX 7 11 0 0
BITMAP
82
82
44
44
28
10
28
44
44
82
82
ENDCHAR
STARTCHAR uni03A8
ENCODING 936
SWIDTH 720 0
DWIDTH 12 0
BBX 11 11 0 0
BITMAP
8420
8420
8420
8420
8420
4440
3F80
0400
0400
0400
0400
ENDCHAR
STARTCHAR uni03A9
ENCODING 937
SWIDTH 540 0
DWIDTH 9 0
BBX 8 11 0 0
BITMAP
3C
42
81
81
81
81
81
81
42
24
E7
ENDCHAR
STARTCHAR uni03AA
ENCODING 938
SWIDTH 240 0
DWIDTH 4 0
BBX 3 14 0 0
BITMAP
A0
00
00
E0
40
40
40
40
40
40
40
40
40
E0
ENDCHAR
STARTCHAR uni03AB
ENCODING 939
SWIDTH 480 0
DWIDTH 8 0
BBX 7 14 0 0
BITMAP
28
00
00
82
82
44
44
28
28
10
10
10
10
10
ENDCHAR
STARTCHAR uni03AC
ENCODING 940
SWIDTH 420 0
DWIDTH 7 0
BBX 6 12 0 0
BITMAP
10
20
00
00
74
8C
84
84
84
84
8C
74
ENDCHAR
STARTCHAR uni03AD
ENCODING 941
SWIDTH 420 0
DWIDTH 7 0
BBX 6 12 0 0
BITMAP
10
20
00
00
78
84
80
70
80
80
84
78
ENDCHAR
STARTCHAR uni03AE
ENCODING 942
SWIDTH 420 0
DWIDTH 7 0
BBX 6 15 0 -3
BITMAP
10
20
00
00
B8
C4
84
84
84
84
84
84
04
04
04
ENDCHAR
STARTCHAR uni03AF
ENCODING 943
SWIDTH 240 0
DWIDTH 4 0
BBX 3 12 0 0
BITMAP
20
40
00
00
40
C0
40
40
40
40
40
20
ENDCHAR
STARTCHAR uni03B0
ENCODING 944
SWIDTH 420 0
DWIDTH 7 0
BBX 6 13 0 0
BITMAP
10
20
00
48
00
84
84
84
84
84
84
84
78
ENDCHAR
STARTCHAR uni03B1
ENCODING 945
SWIDTH 420 0
DWIDTH 7 0
BBX 6 8 0 0
BITMAP
74
8C
84
84
84
84
8C
74
ENDCHAR
STARTCHAR uni03B2
ENCODING 946
SWIDTH 420 0
DWIDTH 7 0
BBX 6 14 0 -3
BITMAP
70
88
88
88
B0
88
84
84
84
C4
B8
80
80
80
ENDCHAR
STARTCHAR uni03B3
ENCODING 947
SWIDTH 480 0
DWIDTH 8 0
BBX 7 11 0 -3
BITMAP
82
42
44
24
28
28
10
10
20
20
40
ENDCHAR
STARTCHAR uni03B4
ENCODING 948
SWIDTH 420 0
DWIDTH 7 0
BBX 6 11 0 0
BITMAP
7C
80
40
20
50
88
84
84
84
84
78
ENDCHAR
STARTCHAR uni03B5
ENCODING 949
SWIDTH 420 0
DWIDTH 7 0
BBX 6 8 0 0
BITMAP
78
84
80
70
80
80
84
78
ENDCHAR
STARTCHAR uni03B6
ENCODING 950
SWIDTH 420 0
DWIDTH 7 0
BBX 6 14 0 -3
BITMAP
FC
08
10
20
40
80
80
80
80
40
38
04
04
08
ENDCHAR
STARTCHAR uni03B7
ENCODING 951
SWIDTH 420 0
DWIDTH 7 0
BBX 6 11 0 -3
BITMAP
B8
C4
84
84
84
84
84
84
04
04
04
ENDCHAR
STARTCHAR uni03B8
ENCODING 952
SWIDTH 420 0
DWIDTH 7 0
BBX 6 11 0 0
BITMAP
30
48
84
84
84
FC
84
84
84
48
30
ENDCHAR
STARTCHAR uni03B9
ENCODING 953
SWIDTH 240 0
DWIDTH 4 0
BBX 3 8 0 0
BITMAP
40
C0
40
40
40
40
40
20
ENDCHAR
STARTCHAR uni03BA
ENCODING 954
SWIDTH 420 0
DWIDTH 7 0
BBX 6 8 0 0
BITMAP
84
98
A0
C0
A0
90
88
84
ENDCHAR
STARTCHAR uni03BB
ENCODING 955
SWIDTH 420 0
DWIDTH 7 0
BBX 6 11 0 0
BITMAP
C0
20
20
10
10
28
28
48
44
84
84
ENDCHAR
STARTCHAR uni03BC
ENCODING 956
SWIDTH 420 0
DWIDTH 7 0
BBX 6 11 0 -3
BITMAP
84
84
84
84
84
84
CC
B4
80
80
80
ENDCHAR
STARTCHAR uni03BD
ENCODING 957
SWIDTH 480 0
DWIDTH 8 0
BBX 7 8 0 0
BITMAP
82
82
44
44
28
28
10
10
ENDCHAR
STARTCHAR uni03BE
ENCODING 958
SWIDTH 420 0
DWIDTH 7 0
BBX 6 14 0 -3
BITMAP
3C
40
80
80
40
38
40
80
80
40
38
04
04
08
ENDCHAR
STARTCHAR uni03BF
ENCODING 959
SWIDTH 420 0
DWIDTH 7 0
BBX 6 8 0 0
BITMAP
78
84
84
84
84
84
84
78
ENDCHAR
STARTCHAR uni03C0
ENCODING 960
SWIDTH 480 0
DWIDTH 8 0
BBX 7 8 0 0
BITMAP
FE
44
44
44
44
44
44
86
ENDCHAR
STARTCHAR uni03C1
ENCODING 961
SWIDTH 420 0
DWIDTH 7 0
BBX 6 11 0 -3
BITMAP
78
84
84
84
84
84
84
F8
80
80
80
ENDCHAR
STARTCHAR uni03C2
ENCODING 962
SWIDTH 420 0
DWIDTH 7 0
BBX 6 11 0 -3
BITMAP
78
84
80
80
80
80
80
70
08
08
10
ENDCHAR
STARTCHAR uni03C3
ENCODING 963
SWIDTH 480 0
DWIDTH 8 0
BBX 7 8 0 0
BITMAP
7E
88
84
84
84
84
84
78
ENDCHAR
STARTCHAR uni03C4
ENCODING 964
SWIDTH 420 0
DWIDTH 7 0
BBX 6 8 0 0
BITMAP
FC
20
20
20
20
20
20
18
ENDCHAR
STARTCHAR uni03C5
ENCODING 965
SWIDTH 420 0
DWIDTH 7 0
BBX 6 8 0 0
BITMAP
84
84
84
84
84
84
84
78
ENDCHAR
STARTCHAR uni03C6
ENCODING 966
SWIDTH 600 0
DWIDTH 10 0
BBX 9 11 0 -3
BITMAP
4600
8900
8880
8880
8880
8880
4900
3E00
0800
0800
0800
ENDCHAR
STARTCHAR uni03C7
ENCODING 967
SWIDTH 480 0
DWIDTH 8 0
BBX 7 11 0 -3
BITMAP
82
42
44
24
28
10
28
48
44
84
82
ENDCHAR
STARTCHAR uni03C8
ENCODING 968
SWIDTH 600 0
DWIDTH 10 0
BBX 9 11 0 -3
BITMAP
8880
8880
8880
8880
8880
8880
4900
3E00
0800
0800
0800
ENDCHAR
STARTCHAR uni03C9
ENCODING 969
SWIDTH 600 0
DWIDTH 10 0
BBX 9 8 0 0
BITMAP
4100
8080
8880
8880
8880
8880
9480
6300
ENDCHAR
STARTCHAR uni03CA
ENCODING 970
SWIDTH 240 0
DWIDTH 4 0
BBX 3 11 0 0
BITMAP
A0
00
00
40
C0
40
40
40
40
40
20
ENDCHAR
STARTCHAR uni03CB
ENCODING 971
SWIDTH 420 0
DWIDTH 7 0
BBX 6 11 0 0
BITMAP
48
00
00
84
84
84
84
84
84
84
78
ENDCHAR
STARTCHAR uni03CC
ENCODING 972
SWIDTH 420 0
DWIDTH 7 0
BBX 6 12 0 0
BITMAP
10
20
00
00
78
84
84
84
84
84
84
78
ENDCHAR
STARTCHAR uni03CD
ENCODING 973
SWIDTH 420 0
DWIDTH 7 0
BBX 6 12 0 0
BITMAP
10
20
00
00
84
84
84
84
84
84
84
78
ENDCHAR
STARTCHAR uni03CE
ENCODING 974
SWIDTH 600 0
DWIDTH 10 0
BBX 9 12 0 0
BITMAP
0400
0800
0000
0000
4100
8080
8880
8880
8880
8880
9480
6300
ENDCHAR
STARTCHAR uni0400
ENCODING 1024
SWIDTH 480 0
DWIDTH 8 0
BBX 7 15 0 0
BITMAP
20
10
00
00
FE
80
80
80
80
FC
80
80
80
80
FE
ENDCHAR
STARTCHAR uni0401
ENCODING 1025
SWIDTH 480 0
DWIDTH 8 0
BBX 7 14 0 0
BITMAP
28
00
00
FE
80
80
80
80
FC
80
80
80
80
FE
ENDCHAR
STARTCHAR uni0403
ENCODING 1027
SWIDTH 420 0
DWIDTH 7 0
BBX 6 15 0 0
BITMAP
10
20
00
00
FC
80
80
80
80
80
80
80
80
80
80
ENDCHAR
STARTCHAR uni040C
ENCODING 1036
SWIDTH 480 0
DWIDTH 8 0
BBX 7 15 0 0
BITMAP
08
10
00
00
82
84
88
90
A0
C0
A0
90
88
84
82
ENDCHAR
STARTCHAR uni040D
ENCODING 1037
SWIDTH 480 0
DWIDTH 8 0
BBX 7 15 0 0
BITMAP
20
10
00
00
82
86
86
8A
8A
92
A2
A2
C2
C2
82
ENDCHAR
STARTCHAR uni0410
ENCODING 1040
SWIDTH 480 0
DWIDTH 8 0
BBX 7 11 0 0
BITMAP
10
10
28
28
28
44
44
7C
82
82
82
ENDCHAR
STARTCHAR uni0411
ENCODING 1041
SWIDTH 480 0
DWIDTH 8 0
BBX 7 11 0 0
BITMAP
FC
80
80
80
80
FC
82
82
82
82
FC
ENDCHAR
STARTCHAR uni0412
ENCODING 1042
SWIDTH 480 0
DWIDTH 8 0
BBX 7 11 0 0
BITMAP
F8
84
82
82
84
F8
84
82
82
84
F8
ENDCHAR
STARTCHAR uni0413
ENCODING 1043
SWIDTH 420 0
DWIDTH 7 0
BBX 6 11 0 0
BITMAP
FC
80
80
80
80
80
80
80
80
80
80
ENDCHAR
STARTCHAR uni0414
ENCODING 1044
SWIDTH 540 0
DWIDTH 9 0
BBX 8 14 0 -3
BITMAP
3E
22
22
22
22
22
42
42
42
82
FF
81
81
81
ENDCHAR
STARTCHAR uni0415
ENCODING 1045
SWIDTH 480 0
DWIDTH 8 0
BBX 7 11 0 0
BITMAP
FE
80
80
80
80
FC
80
80
80
80
FE
ENDCHAR
STARTCHAR uni0416
ENCODING 1046
SWIDTH 720 0
DWIDTH 12 0
BBX 11 11 0 0
BITMAP
8420
4440
4440
2480
1500
0E00
1500
2480
4440
8420
8420
ENDCHAR
STARTCHAR uni0417
ENCODING 1047
SWIDTH 480 0
DWIDTH 8 0
BBX 7 11 0 0
BITMAP
78
84
02
02
04
38
04
02
02
84
78
ENDCHAR
STARTCHAR uni0418
ENCODING 1048
SWIDTH 480 0
DWIDTH 8 0
BBX 7 11 0 0
BITMAP
82
86
86
8A
8A
92
A2
A2
C2
C2
82
ENDCHAR
STARTCHAR uni0419
ENCODING 1049
SWIDTH 480 0
DWIDTH 8 0
BBX 7 15 0 0
BITMAP
28
10
00
00
82
86
86
8A
8A
92
A2
A2
C2
C2
82
ENDCHAR
STARTCHAR uni041A
ENCODING 1050
SWIDTH 480 0
DWIDTH 8 0
BBX 7 11 0 0
BITMAP
82
84
88
90
A0
C0
A0
90
88
84
82
ENDCHAR
STARTCHAR uni041B
ENCODING 1051
SWIDTH 480 0
DWIDTH 8 0
BBX 7 11 0 0
BITMAP
3E
22
22
22
22
22
22
22
42
42
82
ENDCHAR
STARTCHAR uni041C
ENCODING 1052
SWIDTH 720 0
DWIDTH 12 0
BBX 11 11 0 0
BITMAP
8020
C060
C060
A0A0
A0A0
9120
9120
8A20
8A20
8420
8420
ENDCHAR
STARTCHAR uni041D
ENCODING 1053
SWIDTH 480 0
DWIDTH 8 0
BBX 7 11 0 0
BITMAP
82
82
82
82
82
FE
82
82
82
82
82
ENDCHAR
STARTCHAR uni041E
ENCODING 1054
SWIDTH 480 0
DWIDTH 8 0
BBX 7 11 0 0
BITMAP
38
44
82
82
82
82
82
82
82
44
38
ENDCHAR
STARTCHAR uni041F
ENCODING 1055
SWIDTH 480 0
DWIDTH 8 0
BBX 7 11 0 0
BITMAP
FE
82
82
82
82
82
82
82
82
82
82
ENDCHAR
STARTCHAR uni0420
ENCODING 1056
SWIDTH 480 0
DWIDTH 8 0
BBX 7 11 0 0
BITMAP
FC
82
82
82
82
FC
80
80
80
80
80
ENDCHAR
STARTCHAR uni0421
ENCODING 1057
SWIDTH 480 0
DWIDTH 8 0
BBX 7 11 0 0
BITMAP
3C
42
80
80
80
80
80
80
80
42
3C
ENDCHAR
STARTCHAR uni0422
ENCODING 1058
SWIDTH 480 0
DWIDTH 8 0
BBX 7 11 0 0
BITMAP
FE
10
10
10
10
10
10
10
10
10
10
ENDCHAR
STARTCHAR uni0423
ENCODING 1059
SWIDTH 480 0
DWIDTH 8 0
BBX 7 11 0 0
BITMAP
82
82
44
44
44
28
28
10
10
20
C0
ENDCHAR
STARTCHAR uni0424
ENCODING 1060
SWIDTH 720 0
DWIDTH 12 0
BBX 11 11 0 0
BITMAP
0400
3F80
4440
8420
8420
8420
8420
8420
4440
3F80
0400
ENDCHAR
STARTCHAR uni0425
ENCODING 1061
SWIDTH 480 0
DWIDTH 8 0
BBX 7 11 0 0
BITMAP
82
82
44
44
28
10
28
44
44
82
82
ENDCHAR
STARTCHAR uni0426
ENCODING 1062
SWIDTH 540 0
DWIDTH 9 0
BBX 8 13 0 -2
BITMAP
82
82
82
82
82
82
82
82
82
82
FF
01
01
ENDCHAR
STARTCHAR uni0427
ENCODING 1063
SWIDTH 480 0
DWIDTH 8 0
BBX 7 11 0 0
BITMAP
82
82
82
82
46
3A
02
02
02
02
02
ENDCHAR
STARTCHAR uni0428
ENCODING 1064
SWIDTH 720 0
DWIDTH 12 0
BBX 11 11 0 0
BITMAP
8420
8420
8420
8420
8420
8420
8420
8420
8420
8420
FFE0
ENDCHAR
STARTCHAR uni0429
ENCODING 1065
SWIDTH 780 0
DWIDTH 13 0
BBX 12 13 0 -2
BITMAP
8420
8420
8420
8420
8420
8420
8420
8420
8420
8420
FFF0
0010
0010
ENDCHAR
STARTCHAR uni042A
ENCODING 1066
SWIDTH 600 0
DWIDTH 10 0
BBX 9 11 0 0
BITMAP
E000
2000
2000
2000
2000
3F00
2080
2080
2080
2080
3F00
ENDCHAR
STARTCHAR uni042B
ENCODING 1067
SWIDTH 600 0
DWIDTH 10 0
BBX 9 11 0 0
BITMAP
8080
8080
8080
8080
8080
FC80
8280
8280
8280
8280
FC80
ENDCHAR
STARTCHAR uni042C
ENCODING 1068
SWIDTH 480 0
DWIDTH 8 0
BBX 7 11 0 0
BITMAP
80
80
80
80
80
FC
82
82
82
82
FC
ENDCHAR
STARTCHAR uni042D
ENCODING 1069
SWIDTH 480 0
DWIDTH 8 0
BBX 7 11 0 0
BITMAP
78
84
02
02
02
3E
02
02
02
84
78
ENDCHAR
STARTCHAR uni042E
ENCODING 1070
SWIDTH 660 0
DWIDTH 11 0
BBX 10 11 0 0
BITMAP
8700
8880
9040
9040
9040
F040
9040
9040
9040
8880
8700
ENDCHAR
STARTCHAR uni042F
ENCODING 1071
SWIDTH 480 0
DWIDTH 8 0
BBX 7 11 0 0
BITMAP
7E
82
82
82
82
7E
12
22
22
42
82
ENDCHAR
STARTCHAR uni0430
ENCODING 1072
SWIDTH 420 0
DWIDTH 7 0
BBX 6 8 0 0
BITMAP
78
04
04
7C
84
84
84
7C
ENDCHAR
STARTCHAR uni0431
ENCODING 1073
SWIDTH 420 0
DWIDTH 7 0
BBX 6 11 0 0
BITMAP
04
78
80
80
F8
84
84
84
84
84
78
ENDCHAR
STARTCHAR uni0432
ENCODING 1074
SWIDTH 420 0
DWIDTH 7 0
BBX 6 8 0 0
BITMAP
F8
84
84
F8
84
84
84
F8
ENDCHAR
STARTCHAR uni0433
ENCODING 1075
SWIDTH 360 0
DWIDTH 6 0
BBX 5 8 0 0
BITMAP
F8
80
80
80
80
80
80
80
ENDCHAR
STARTCHAR uni0434
ENCODING 1076
SWIDTH 540 0
DWIDTH 9 0
BBX 8 10 0 -2
BITMAP
3E
22
22
22
42
42
82
FF
81
81
ENDCHAR
STARTCHAR uni0435
ENCODING 1077
SWIDTH 420 0
DWIDTH 7 0
BBX 6 8 0 0
BITMAP
78
84
84
FC
80
80
84
78
ENDCHAR
STARTCHAR uni0436
ENCODING 1078
SWIDTH 600 0
DWIDTH 10 0
BBX 9 8 0 0
BITMAP
8880
4900
2A00
1C00
2A00
4900
8880
8880
ENDCHAR
STARTCHAR uni0437
ENCODING 1079
SWIDTH 420 0
DWIDTH 7 0
BBX 6 8 0 0
BITMAP
78
84
04
38
04
04
84
78
ENDCHAR
STARTCHAR uni0438
ENCODING 1080
SWIDTH 420 0
DWIDTH 7 0
BBX 6 8 0 0
BITMAP
84
8C
94
94
A4
A4
C4
84
ENDCHAR
STARTCHAR uni0439
ENCODING 1081
SWIDTH 420 0
DWIDTH 7 0
BBX 6 12 0 0
BITMAP
48
30
00
00
84
8C
94
94
A4
A4
C4
84
ENDCHAR
STARTCHAR uni043A
ENCODING 1082
SWIDTH 420 0
DWIDTH 7 0
BBX 6 8 0 0
BITMAP
84
98
A0
C0
A0
90
88
84
ENDCHAR
STARTCHAR uni043B
ENCODING 1083
SWIDTH 420 0
DWIDTH 7 0
BBX 6 8 0 0
BITMAP
7C
44
44
44
44
44
44
84
ENDCHAR
STARTCHAR uni043C
ENCODING 1084
SWIDTH 600 0
DWIDTH 10 0
BBX 9 8 0 0
BITMAP
8080
C180
A280
A280
9480
9480
8880
8880
ENDCHAR
STARTCHAR uni043D
ENCODING 1085
SWIDTH 420 0
DWIDTH 7 0
BBX 6 8 0 0
BITMAP
84
84
84
FC
84
84
84
84
ENDCHAR
STARTCHAR uni043E
ENCODING 1086
SWIDTH 420 0
DWIDTH 7 0
BBX 6 8 0 0
BITMAP
78
84
84
84
84
84
84
78
ENDCHAR
STARTCHAR uni043F
ENCODING 1087
SWIDTH 420 0
DWIDTH 7 0
BBX 6 8 0 0
BITMAP
FC
84
84
84
84
84
84
84
ENDCHAR
STARTCHAR uni0440
ENCODING 1088
SWIDTH 420 0
DWIDTH 7 0
BBX 6 11 0 -3
BITMAP
F8
84
84
84
84
84
84
F8
80
80
80
ENDCHAR
STARTCHAR uni0441
ENCODING 1089
SWIDTH 420 0
DWIDTH 7 0
BBX 6 8 0 0
BITMAP
78
84
80
80
80
80
84
78
ENDCHAR
STARTCHAR uni0442
ENCODING 1090
SWIDTH 480 0
DWIDTH 8 0
BBX 7 8 0 0
BITMAP
FE
10
10
10
10
10
10
10
ENDCHAR
STARTCHAR uni0443
ENCODING 1091
SWIDTH 480 0
DWIDTH 8 0
BBX 7 11 0 -3
BITMAP
82
82
44
44
44
28
28
10
10
20
C0
ENDCHAR
STARTCHAR uni0444
ENCODING 1092
SWIDTH 600 0
DWIDTH 10 0
BBX 9 14 0 -3
BITMAP
0800
0800
0800
7F00
8880
8880
8880
8880
8880
8880
7F00
0800
0800
0800
ENDCHAR
STARTCHAR uni0445
ENCODING 1093
SWIDTH 480 0
DWIDTH 8 0
BBX 7 8 0 0
BITMAP
82
44
28
10
10
28
44
82
ENDCHAR
STARTCHAR uni0446
ENCODING 1094
SWIDTH 480 0
DWIDTH 8 0
BBX 7 10 0 -2
BITMAP
84
84
84
84
84
84
84
FE
02
02
ENDCHAR
STARTCHAR uni0447
ENCODING 1095
SWIDTH 420 0
DWIDTH 7 0
BBX 6 8 0 0
BITMAP
84
84
84
8C
74
04
04
04
ENDCHAR
STARTCHAR uni0448
ENCODING 1096
SWIDTH 600 0
DWIDTH 10 0
BBX 9 8 0 0
BITMAP
8880
8880
8880
8880
8880
8880
8880
FF80
ENDCHAR
STARTCHAR uni0449
ENCODING 1097
SWIDTH 660 0
DWIDTH 11 0
BBX 10 10 0 -2
BITMAP
8880
8880
8880
8880
8880
8880
8880
FFC0
0040
0040
ENDCHAR
STARTCHAR uni044A
ENCODING 1098
SWIDTH 540 0
DWIDTH 9 0
BBX 8 8 0 0
BITMAP
E0
20
20
3E
21
21
21
3E
ENDCHAR
STARTCHAR uni044B
ENCODING 1099
SWIDTH 540 0
DWIDTH 9 0
BBX 8 8 0 0
BITMAP
81
81
81
F9
85
85
85
F9
ENDCHAR
STARTCHAR uni044C
ENCODING 1100
SWIDTH 420 0
DWIDTH 7 0
BBX 6 8 0 0
BITMAP
80
80
80
F8
84
84
84
F8
ENDCHAR
STARTCHAR uni044D
ENCODING 1101
SWIDTH 420 0
DWIDTH 7 0
BBX 6 8 0 0
BITMAP
78
84
04
3C
04
04
84
78
ENDCHAR
STARTCHAR uni044E
ENCODING 1102
SWIDTH 600 0
DWIDTH 10 0
BBX 9 8 0 0
BITMAP
8F00
9080
9080
F080
9080
9080
9080
8F00
ENDCHAR
STARTCHAR uni044F
ENCODING 1103
SWIDTH 420 0
DWIDTH 7 0
BBX 6 8 0 0
BITMAP
7C
84
84
84
7C
24
44
84
ENDCHAR
STARTCHAR uni0450
ENCODING 1104
SWIDTH 420 0
DWIDTH 7 0
BBX 6 12 0 0
BITMAP
20
10
00
00
78
84
84
FC
80
80
84
78
ENDCHAR
STARTCHAR uni0451
ENCODING 1105
SWIDTH 420 0
DWIDTH 7 0
BBX 6 11 0 0
BITMAP
48
00
00
78
84
84
FC
80
80
84
78
ENDCHAR
STARTCHAR uni0453
ENCODING 1107
SWIDTH 360 0
DWIDTH 6 0
BBX 5 12 0 0
BITMAP
10
20
00
00
F8
80
80
80
80
80
80
80
ENDCHAR
STARTCHAR uni045C
ENCODING 1116
SWIDTH 420 0
DWIDTH 7 0
BBX 6 12 0 0
BITMAP
10
20
00
00
84
98
A0
C0
A0
90
88
84
ENDCHAR
STARTCHAR uni045D
ENCODING 1117
SWIDTH 420 0
DWIDTH 7 0
BBX 6 12 0 0
BITMAP
20
10
00
00
84
8C
94
94
A4
A4
C4
84
ENDCHAR
STARTCHAR uni04E2
ENCODING 1250
SWIDTH 480 0
DWIDTH 8 0
BBX 7 14 0 0
BITMAP
38
00
00
82
86
86
8A
8A
92
A2
A2
C2
C2
82
ENDCHAR
STARTCHAR uni04E3
ENCODING 1251
SWIDTH 420 0
DWIDTH 7 0
BBX 6 11 0 0
BITMAP
78
00
00
84
8C
94
94
A4
A4
C4
84
ENDCHAR
STARTCHAR uni04EE
ENCODING 1262
SWIDTH 480 0
DWIDTH 8 0
BBX 7 14 0 0
BITMAP
38
00
00
82
82
44
44
44
28
28
10
10
20
C0
ENDCHAR
STARTCHAR uni04EF
ENCODING 1263
SWIDTH 480 0
DWIDTH 8 0
BBX 7 14 0 -3
BITMAP
38
00
00
82
82
44
44
44
28
28
10
10
20
C0
ENDCHAR
STARTCHAR uni2010
ENCODING 8208
SWIDTH 960 0
DWIDTH 16 0
BBX 7 1 4 5
BITMAP
FE
ENDCHAR
STARTCHAR uni2011
ENCODING 8209
SWIDTH 480 0
DWIDTH 8 0
BBX 7 1 0 5
BITMAP
FE
ENDCHAR
STARTCHAR uni2012
ENCODING 8210
SWIDTH 480 0
DWIDTH 8 0
BBX 7 1 0 5
BITMAP
FE
ENDCHAR
STARTCHAR uni2013
ENCODING 8211
SWIDTH 480 0
DWIDTH 8 0
BBX 8 1 0 5
BITMAP
FF
ENDCHAR
STARTCHAR uni2014
ENCODING 8212
SWIDTH 960 0
DWIDTH 16 0
BBX 15 1 0 5
BITMAP
FFFE
ENDCHAR
STARTCHAR uni2015
ENCODING 8213
SWIDTH 960 0
DWIDTH 16 0
BBX 16 1 0 5
BITMAP
FFFF
ENDCHAR
STARTCHAR uni2016
ENCODING 8214
SWIDTH 960 0
DWIDTH 16 0
BBX 3 15 6 -2
BITMAP
A0
A0
A0
A0
A0
A0
A0
A0
A0
A0
A0
A0
A0
A0
A0
ENDCHAR
STARTCHAR uni2018
ENCODING 8216
SWIDTH 300 0
DWIDTH 5 0
BBX 2 4 1 7
BITMAP
40
80
C0
C0
ENDCHAR
STARTCHAR uni2019
ENCODING 8217
SWIDTH 300 0
DWIDTH 5 0
BBX 2 4 1 7
BITMAP
C0
C0
40
80
ENDCHAR
STARTCHAR uni201A
ENCODING 8218
SWIDTH 300 0
DWIDTH 5 0
BBX 2 4 1 -2
BITMAP
C0
C0
40
80
ENDCHAR
STARTCHAR uni201B
ENCODING 8219
SWIDTH 300 0
DWIDTH 5 0
BBX 2 4 1 7
BITMAP
C0
C0
80
40
ENDCHAR
STARTCHAR uni201C
ENCODING 8220
SWIDTH 480 0
DWIDTH 8 0
BBX 5 4 1 7
BITMAP
48
90
D8
D8
ENDCHAR
STARTCHAR uni201D
ENCODING 8221
SWIDTH 480 0
DWIDTH 8 0
BBX 5 4 1 7
BITMAP
D8
D8
48
90
ENDCHAR
STARTCHAR uni201E
ENCODING 8222
SWIDTH 480 0
DWIDTH 8 0
BBX 5 4 1 -2
BITMAP
D8
D8
48
90
ENDCHAR
STARTCHAR uni201F
ENCODING 8223
SWIDTH 480 0
DWIDTH 8 0
BBX 5 4 1 7
BITMAP
D8
D8
90
48
ENDCHAR
STARTCHAR uni2020
ENCODING 8224
SWIDTH 960 0
DWIDTH 16 0
BBX 9 15 3 -2
BITMAP
0800
0800
0800
0800
FF80
0800
0800
0800
0800
0800
0800
0800
0800
0800
0800
ENDCHAR
STARTCHAR uni2021
ENCODING 8225
SWIDTH 960 0
DWIDTH 16 0
BBX 9 15 3 -2
BITMAP
0800
0800
0800
FF80
0800
0800
0800
0800
0800
0800
0800
FF80
0800
0800
0800
ENDCHAR
STARTCHAR uni2024-zh_cn
ENCODING 8228
SWIDTH 960 0
DWIDTH 16 0
BBX 2 2 7 4
BITMAP
C0
C0
ENDCHAR
STARTCHAR uni2025-zh_cn
ENCODING 8229
SWIDTH 960 0
DWIDTH 16 0
BBX 8 2 4 4
BITMAP
C3
C3
ENDCHAR
STARTCHAR uni2026-zh_cn
ENCODING 8230
SWIDTH 960 0
DWIDTH 16 0
BBX 12 2 2 4
BITMAP
C630
C630
ENDCHAR
STARTCHAR uni2027-zh_cn
ENCODING 8231
SWIDTH 960 0
DWIDTH 16 0
BBX 2 2 7 4
BITMAP
C0
C0
ENDCHAR
STARTCHAR uni203B
ENCODING 8251
SWIDTH 960 0
DWIDTH 16 0
BBX 15 15 0 -2
BITMAP
0100
4384
2108
1010
0820
0440
4284
E10E
4284
0440
0820
1010
2108
4384
0100
ENDCHAR
STARTCHAR uni203E
ENCODING 8254
SWIDTH 480 0
DWIDTH 8 0
BBX 7 1 0 12
BITMAP
FE
ENDCHAR
STARTCHAR uni204B
ENCODING 8267
SWIDTH 480 0
DWIDTH 8 0
BBX 7 14 0 -3
BITMAP
F0
BC
BE
BE
BE
BE
BC
B0
A0
A0
A0
A0
A0
A0
ENDCHAR
STARTCHAR uni204C
ENCODING 8268
SWIDTH 480 0
DWIDTH 8 0
BBX 7 8 0 0
BITMAP
1E
7A
FA
FA
FA
FA
7A
1E
ENDCHAR
STARTCHAR uni204D
ENCODING 8269
SWIDTH 480 0
DWIDTH 8 0
BBX 7 8 0 0
BITMAP
F0
BC
BE
BE
BE
BE
BC
F0
ENDCHAR
STARTCHAR uni2070
ENCODING 8304
SWIDTH 360 0
DWIDTH 6 0
BBX 5 7 0 6
BITMAP
70
88
98
A8
C8
88
70
ENDCHAR
STARTCHAR uni2071
ENCODING 8305
SWIDTH 360 0
DWIDTH 6 0
BBX 3 7 1 6
BITMAP
40
00
C0
40
40
40
E0
ENDCHAR
STARTCHAR uni2074
ENCODING 8308
SWIDTH 360 0
DWIDTH 6 0
BBX 5 7 0 6
BITMAP
30
50
50
90
90
F8
10
ENDCHAR
STARTCHAR uni2075
ENCODING 8309
SWIDTH 360 0
DWIDTH 6 0
BBX 5 7 0 6
BITMAP
F8
80
80
F0
08
88
70
ENDCHAR
STARTCHAR uni2076
ENCODING 8310
SWIDTH 360 0
DWIDTH 6 0
BBX 5 7 0 6
BITMAP
70
88
80
F0
88
88
70
ENDCHAR
STARTCHAR uni2077
ENCODING 8311
SWIDTH 360 0
DWIDTH 6 0
BBX 5 7 0 6
BITMAP
F8
08
10
10
20
20
20
ENDCHAR
STARTCHAR uni2078
ENCODING 8312
SWIDTH 360 0
DWIDTH 6 0
BBX 5 7 0 6
BITMAP
70
88
88
70
88
88
70
ENDCHAR
STARTCHAR uni2079
ENCODING 8313
SWIDTH 360 0
DWIDTH 6 0
BBX 5 7 0 6
BITMAP
70
88
88
78
08
88
70
ENDCHAR
STARTCHAR uni207A
ENCODING 8314
SWIDTH 360 0
DWIDTH 6 0
BBX 5 5 0 7
BITMAP
20
20
F8
20
20
ENDCHAR
STARTCHAR uni207B
ENCODING 8315
SWIDTH 360 0
DWIDTH 6 0
BBX 5 1 0 9
BITMAP
F8
ENDCHAR
STARTCHAR uni207C
ENCODING 8316
SWIDTH 360 0
DWIDTH 6 0
BBX 5 3 0 8
BITMAP
F8
00
F8
ENDCHAR
STARTCHAR uni207D
ENCODING 8317
SWIDTH 180 0
DWIDTH 3 0
BBX 2 7 0 6
BITMAP
40
80
80
80
80
80
40
ENDCHAR
STARTCHAR uni207E
ENCODING 8318
SWIDTH 180 0
DWIDTH 3 0
BBX 2 7 0 6
BITMAP
80
40
40
40
40
40
80
ENDCHAR
STARTCHAR uni207F
ENCODING 8319
SWIDTH 360 0
DWIDTH 6 0
BBX 5 5 0 6
BITMAP
B0
C8
88
88
88
ENDCHAR
STARTCHAR uni2080
ENCODING 8320
SWIDTH 360 0
DWIDTH 6 0
BBX 5 7 0 -2
BITMAP
70
88
98
A8
C8
88
70
ENDCHAR
STARTCHAR uni2081
ENCODING 8321
SWIDTH 360 0
DWIDTH 6 0
BBX 5 7 0 -2
BITMAP
20
E0
20
20
20
20
F8
ENDCHAR
STARTCHAR uni2082
ENCODING 8322
SWIDTH 360 0
DWIDTH 6 0
BBX 5 7 0 -2
BITMAP
70
88
08
30
40
80
F8
ENDCHAR
STARTCHAR uni2083
ENCODING 8323
SWIDTH 360 0
DWIDTH 6 0
BBX 5 7 0 -2
BITMAP
70
88
08
30
08
88
70
ENDCHAR
STARTCHAR uni2084
ENCODING 8324
SWIDTH 360 0
DWIDTH 6 0
BBX 5 7 0 -2
BITMAP
30
50
50
90
90
F8
10
ENDCHAR
STARTCHAR uni2085
ENCODING 8325
SWIDTH 360 0
DWIDTH 6 0
BBX 5 7 0 -2
BITMAP
F8
80
80
F0
08
88
70
ENDCHAR
STARTCHAR uni2086
ENCODING 8326
SWIDTH 360 0
DWIDTH 6 0
BBX 5 7 0 -2
BITMAP
70
88
80
F0
88
88
70
ENDCHAR
STARTCHAR uni2087
ENCODING 8327
SWIDTH 360 0
DWIDTH 6 0
BBX 5 7 0 -2
BITMAP
F8
08
10
10
20
20
20
ENDCHAR
STARTCHAR uni2088
ENCODING 8328
SWIDTH 360 0
DWIDTH 6 0
BBX 5 7 0 -2
BITMAP
70
88
88
70
88
88
70
ENDCHAR
STARTCHAR uni2089
ENCODING 8329
SWIDTH 360 0
DWIDTH 6 0
BBX 5 7 0 -2
BITMAP
70
88
88
78
08
88
70
ENDCHAR
STARTCHAR uni208A
ENCODING 8330
SWIDTH 360 0
DWIDTH 6 0
BBX 5 5 0 -1
BITMAP
20
20
F8
20
20
ENDCHAR
STARTCHAR uni208B
ENCODING 8331
SWIDTH 360 0
DWIDTH 6 0
BBX 5 1 0 1
BITMAP
F8
ENDCHAR
STARTCHAR uni208C
ENCODING 8332
SWIDTH 360 0
DWIDTH 6 0
BBX 5 3 0 0
BITMAP
F8
00
F8
ENDCHAR
STARTCHAR uni208D
ENCODING 8333
SWIDTH 180 0
DWIDTH 3 0
BBX 2 7 0 -2
BITMAP
40
80
80
80
80
80
40
ENDCHAR
STARTCHAR uni208E
ENCODING 8334
SWIDTH 180 0
DWIDTH 3 0
BBX 2 7 0 -2
BITMAP
80
40
40
40
40
40
80
ENDCHAR
STARTCHAR uni2090
ENCODING 8336
SWIDTH 360 0
DWIDTH 6 0
BBX 5 5 0 -2
BITMAP
70
08
78
88
78
ENDCHAR
STARTCHAR uni2091
ENCODING 8337
SWIDTH 360 0
DWIDTH 6 0
BBX 5 5 0 -2
BITMAP
70
88
F8
80
70
ENDCHAR
STARTCHAR uni2092
ENCODING 8338
SWIDTH 360 0
DWIDTH 6 0
BBX 5 5 0 -2
BITMAP
70
88
88
88
70
ENDCHAR
STARTCHAR uni2093
ENCODING 8339
SWIDTH 360 0
DWIDTH 6 0
BBX 5 5 0 -2
BITMAP
88
50
20
50
88
ENDCHAR
STARTCHAR uni2094
ENCODING 8340
SWIDTH 360 0
DWIDTH 6 0
BBX 5 5 0 -2
BITMAP
70
08
F8
88
70
ENDCHAR
STARTCHAR uni2095
ENCODING 8341
SWIDTH 360 0
DWIDTH 6 0
BBX 5 7 0 -2
BITMAP
80
80
B0
C8
88
88
88
ENDCHAR
STARTCHAR uni2096
ENCODING 8342
SWIDTH 360 0
DWIDTH 6 0
BBX 5 7 0 -2
BITMAP
80
80
88
B0
C0
A0
98
ENDCHAR
STARTCHAR uni2097
ENCODING 8343
SWIDTH 240 0
DWIDTH 4 0
BBX 3 7 0 -2
BITMAP
C0
40
40
40
40
40
60
ENDCHAR
STARTCHAR uni2098
ENCODING 8344
SWIDTH 480 0
DWIDTH 8 0
BBX 7 5 0 -2
BITMAP
EC
92
92
92
92
ENDCHAR
STARTCHAR uni2099
ENCODING 8345
SWIDTH 360 0
DWIDTH 6 0
BBX 5 5 0 -2
BITMAP
B0
C8
88
88
88
ENDCHAR
STARTCHAR uni209A
ENCODING 8346
SWIDTH 360 0
DWIDTH 6 0
BBX 5 7 0 -4
BITMAP
F0
88
88
88
F0
80
80
ENDCHAR
STARTCHAR uni209B
ENCODING 8347
SWIDTH 360 0
DWIDTH 6 0
BBX 5 5 0 -2
BITMAP
78
80
70
08
F0
ENDCHAR
STARTCHAR uni209C
ENCODING 8348
SWIDTH 300 0
DWIDTH 5 0
BBX 4 7 0 -2
BITMAP
40
40
F0
40
40
40
30
ENDCHAR
STARTCHAR uni2150
ENCODING 8528
SWIDTH 960 0
DWIDTH 16 0
BBX 15 15 0 -2
BITMAP
1002
7004
1008
1010
1020
1040
7C80
0100
027C
0404
0808
1008
2010
4010
8010
ENDCHAR
STARTCHAR uni2151
ENCODING 8529
SWIDTH 960 0
DWIDTH 16 0
BBX 15 15 0 -2
BITMAP
1002
7004
1008
1010
1020
1040
7C80
0100
0238
0444
0844
103C
2004
4044
8038
ENDCHAR
STARTCHAR uni2152
ENCODING 8530
SWIDTH 960 0
DWIDTH 16 0
BBX 15 15 0 -2
BITMAP
1002
7004
1008
1010
1020
1040
7C80
0100
024C
04D2
0852
1052
2052
4052
80EC
ENDCHAR
STARTCHAR uni2153
ENCODING 8531
SWIDTH 960 0
DWIDTH 16 0
BBX 15 15 0 -2
BITMAP
1002
7004
1008
1010
1020
1040
7C80
0100
0238
0444
0804
1018
2004
4044
8038
ENDCHAR
STARTCHAR uni2154
ENCODING 8532
SWIDTH 960 0
DWIDTH 16 0
BBX 15 15 0 -2
BITMAP
3802
4404
0408
1810
2020
4040
7C80
0100
0238
0444
0804
1018
2004
4044
8038
ENDCHAR
STARTCHAR uni2155
ENCODING 8533
SWIDTH 960 0
DWIDTH 16 0
BBX 15 15 0 -2
BITMAP
1002
7004
1008
1010
1020
1040
7C80
0100
027C
0440
0840
1078
2004
4044
8038
ENDCHAR
STARTCHAR uni2156
ENCODING 8534
SWIDTH 960 0
DWIDTH 16 0
BBX 15 15 0 -2
BITMAP
3802
4404
0408
1810
2020
4040
7C80
0100
027C
0440
0840
1078
2004
4044
8038
ENDCHAR
STARTCHAR uni2157
ENCODING 8535
SWIDTH 960 0
DWIDTH 16 0
BBX 15 15 0 -2
BITMAP
3802
4404
0408
1810
0420
4440
3880
0100
027C
0440
0840
1078
2004
4044
8038
ENDCHAR
STARTCHAR uni2158
ENCODING 8536
SWIDTH 960 0
DWIDTH 16 0
BBX 15 15 0 -2
BITMAP
1802
2804
2808
4810
4820
7C40
0880
0100
027C
0440
0840
1078
2004
4044
8038
ENDCHAR
STARTCHAR uni2159
ENCODING 8537
SWIDTH 960 0
DWIDTH 16 0
BBX 15 15 0 -2
BITMAP
1002
7004
1008
1010
1020
1040
7C80
0100
0238
0444
0840
1078
2044
4044
8038
ENDCHAR
STARTCHAR uni215A
ENCODING 8538
SWIDTH 960 0
DWIDTH 16 0
BBX 15 15 0 -2
BITMAP
7C02
4004
4008
7810
0420
4440
3880
0100
0238
0444
0840
1078
2044
4044
8038
ENDCHAR
STARTCHAR uni215B
ENCODING 8539
SWIDTH 960 0
DWIDTH 16 0
BBX 15 15 0 -2
BITMAP
1002
7004
1008
1010
1020
1040
7C80
0100
0238
0444
0844
1038
2044
4044
8038
ENDCHAR
STARTCHAR uni215C
ENCODING 8540
SWIDTH 960 0
DWIDTH 16 0
BBX 15 15 0 -2
BITMAP
3802
4404
0408
1810
0420
4440
3880
0100
0238
0444
0844
1038
2044
4044
8038
ENDCHAR
STARTCHAR uni215D
ENCODING 8541
SWIDTH 960 0
DWIDTH 16 0
BBX 15 15 0 -2
BITMAP
7C02
4004
4008
7810
0420
4440
3880
0100
0238
0444
0844
1038
2044
4044
8038
ENDCHAR
STARTCHAR uni215E
ENCODING 8542
SWIDTH 960 0
DWIDTH 16 0
BBX 15 15 0 -2
BITMAP
7C02
0404
0808
0810
1020
1040
1080
0100
0238
0444
0844
1038
2044
4044
8038
ENDCHAR
STARTCHAR uni215F
ENCODING 8543
SWIDTH 960 0
DWIDTH 16 0
BBX 15 15 0 -2
BITMAP
1002
7004
1008
1010
1020
1040
7C80
0100
0200
0400
0800
1000
2000
4000
8000
ENDCHAR
STARTCHAR uni2160
ENCODING 8544
SWIDTH 960 0
DWIDTH 16 0
BBX 1 11 7 0
BITMAP
80
80
80
80
80
80
80
80
80
80
80
ENDCHAR
STARTCHAR uni2161
ENCODING 8545
SWIDTH 960 0
DWIDTH 16 0
BBX 5 11 5 0
BITMAP
88
88
88
88
88
88
88
88
88
88
88
ENDCHAR
STARTCHAR uni2162
ENCODING 8546
SWIDTH 960 0
DWIDTH 16 0
BBX 9 11 3 0
BITMAP
8880
8880
8880
8880
8880
8880
8880
8880
8880
8880
8880
ENDCHAR
STARTCHAR uni2163
ENCODING 8547
SWIDTH 960 0
DWIDTH 16 0
BBX 9 11 3 0
BITMAP
A080
A080
A080
9100
9100
9100
8A00
8A00
8A00
8400
8400
ENDCHAR
STARTCHAR uni2164
ENCODING 8548
SWIDTH 960 0
DWIDTH 16 0
BBX 7 11 4 0
BITMAP
82
82
82
44
44
44
28
28
28
10
10
ENDCHAR
STARTCHAR uni2165
ENCODING 8549
SWIDTH 960 0
DWIDTH 16 0
BBX 9 11 3 0
BITMAP
8280
8280
8280
4480
4480
4480
2880
2880
2880
1080
1080
ENDCHAR
STARTCHAR uni2166
ENCODING 8550
SWIDTH 960 0
DWIDTH 16 0
BBX 11 11 2 0
BITMAP
82A0
82A0
82A0
44A0
44A0
44A0
28A0
28A0
28A0
10A0
10A0
ENDCHAR
STARTCHAR uni2167
ENCODING 8551
SWIDTH 960 0
DWIDTH 16 0
BBX 13 11 1 0
BITMAP
82A8
82A8
82A8
44A8
44A8
44A8
28A8
28A8
28A8
10A8
10A8
ENDCHAR
STARTCHAR uni2168
ENCODING 8552
SWIDTH 960 0
DWIDTH 16 0
BBX 9 11 3 0
BITMAP
A080
A080
9100
9100
8A00
8400
8A00
9100
9100
A080
A080
ENDCHAR
STARTCHAR uni2169
ENCODING 8553
SWIDTH 960 0
DWIDTH 16 0
BBX 7 11 4 0
BITMAP
82
82
44
44
28
10
28
44
44
82
82
ENDCHAR
STARTCHAR uni216A
ENCODING 8554
SWIDTH 960 0
DWIDTH 16 0
BBX 9 11 3 0
BITMAP
8280
8280
4480
4480
2880
1080
2880
4480
4480
8280
8280
ENDCHAR
STARTCHAR uni216B
ENCODING 8555
SWIDTH 960 0
DWIDTH 16 0
BBX 11 11 2 0
BITMAP
82A0
82A0
44A0
44A0
28A0
10A0
28A0
44A0
44A0
82A0
82A0
ENDCHAR
STARTCHAR uni216C
ENCODING 8556
SWIDTH 960 0
DWIDTH 16 0
BBX 6 11 5 0
BITMAP
80
80
80
80
80
80
80
80
80
80
FC
ENDCHAR
STARTCHAR uni216D
ENCODING 8557
SWIDTH 960 0
DWIDTH 16 0
BBX 7 11 4 0
BITMAP
3C
42
80
80
80
80
80
80
80
42
3C
ENDCHAR
STARTCHAR uni216E
ENCODING 8558
SWIDTH 960 0
DWIDTH 16 0
BBX 7 11 4 0
BITMAP
F8
84
82
82
82
82
82
82
82
84
F8
ENDCHAR
STARTCHAR uni216F
ENCODING 8559
SWIDTH 960 0
DWIDTH 16 0
BBX 11 11 2 0
BITMAP
8020
C060
C060
A0A0
A0A0
9120
9120
8A20
8A20
8420
8420
ENDCHAR
STARTCHAR uni2170
ENCODING 8560
SWIDTH 960 0
DWIDTH 16 0
BBX 1 11 7 0
BITMAP
80
00
00
80
80
80
80
80
80
80
80
ENDCHAR
STARTCHAR uni2171
ENCODING 8561
SWIDTH 960 0
DWIDTH 16 0
BBX 5 11 5 0
BITMAP
88
00
00
88
88
88
88
88
88
88
88
ENDCHAR
STARTCHAR uni2172
ENCODING 8562
SWIDTH 960 0
DWIDTH 16 0
BBX 9 11 3 0
BITMAP
8880
0000
0000
8880
8880
8880
8880
8880
8880
8880
8880
ENDCHAR
STARTCHAR uni2173
ENCODING 8563
SWIDTH 960 0
DWIDTH 16 0
BBX 9 11 3 0
BITMAP
8000
0000
0000
A080
A080
9100
9100
8A00
8A00
8400
8400
ENDCHAR
STARTCHAR uni2174
ENCODING 8564
SWIDTH 960 0
DWIDTH 16 0
BBX 7 8 4 0
BITMAP
82
82
44
44
28
28
10
10
ENDCHAR
STARTCHAR uni2175
ENCODING 8565
SWIDTH 960 0
DWIDTH 16 0
BBX 9 11 3 0
BITMAP
0080
0000
0000
8280
8280
4480
4480
2880
2880
1080
1080
ENDCHAR
STARTCHAR uni2176
ENCODING 8566
SWIDTH 960 0
DWIDTH 16 0
BBX 11 11 2 0
BITMAP
00A0
0000
0000
82A0
82A0
44A0
44A0
28A0
28A0
10A0
10A0
ENDCHAR
STARTCHAR uni2177
ENCODING 8567
SWIDTH 960 0
DWIDTH 16 0
BBX 13 11 1 0
BITMAP
00A8
0000
0000
82A8
82A8
44A8
44A8
28A8
28A8
10A8
10A8
ENDCHAR
STARTCHAR uni2178
ENCODING 8568
SWIDTH 960 0
DWIDTH 16 0
BBX 9 11 3 0
BITMAP
8000
0000
0000
A080
9100
8A00
8400
8400
8A00
9100
A080
ENDCHAR
STARTCHAR uni2179
ENCODING 8569
SWIDTH 960 0
DWIDTH 16 0
BBX 7 8 4 0
BITMAP
82
44
28
10
10
28
44
82
ENDCHAR
STARTCHAR uni217A
ENCODING 8570
SWIDTH 960 0
DWIDTH 16 0
BBX 9 11 3 0
BITMAP
0080
0000
0000
8280
4480
2880
1080
1080
2880
4480
8280
ENDCHAR
STARTCHAR uni217B
ENCODING 8571
SWIDTH 960 0
DWIDTH 16 0
BBX 11 11 2 0
BITMAP
00A0
0000
0000
82A0
44A0
28A0
10A0
10A0
28A0
44A0
82A0
ENDCHAR
STARTCHAR uni217C
ENCODING 8572
SWIDTH 960 0
DWIDTH 16 0
BBX 3 11 6 0
BITMAP
C0
40
40
40
40
40
40
40
40
40
60
ENDCHAR
STARTCHAR uni217D
ENCODING 8573
SWIDTH 960 0
DWIDTH 16 0
BBX 6 8 5 0
BITMAP
78
84
80
80
80
80
84
78
ENDCHAR
STARTCHAR uni217E
ENCODING 8574
SWIDTH 960 0
DWIDTH 16 0
BBX 6 11 5 0
BITMAP
04
04
04
7C
84
84
84
84
84
84
7C
ENDCHAR
STARTCHAR uni217F
ENCODING 8575
SWIDTH 960 0
DWIDTH 16 0
BBX 11 8 2 0
BITMAP
BBC0
C420
8420
8420
8420
8420
8420
8420
ENDCHAR
STARTCHAR uni2189
ENCODING 8585
SWIDTH 960 0
DWIDTH 16 0
BBX 15 15 0 -2
BITMAP
3802
4404
4C08
5410
6420
4440
3880
0100
0238
0444
0804
1018
2004
4044
8038
ENDCHAR
STARTCHAR uni2190
ENCODING 8592
SWIDTH 960 0
DWIDTH 16 0
BBX 13 9 1 1
BITMAP
0800
1000
2000
4000
FFF8
4000
2000
1000
0800
ENDCHAR
STARTCHAR uni2191
ENCODING 8593
SWIDTH 960 0
DWIDTH 16 0
BBX 9 13 3 -1
BITMAP
0800
1C00
2A00
4900
8880
0800
0800
0800
0800
0800
0800
0800
0800
ENDCHAR
STARTCHAR uni2192
ENCODING 8594
SWIDTH 960 0
DWIDTH 16 0
BBX 13 9 1 1
BITMAP
0080
0040
0020
0010
FFF8
0010
0020
0040
0080
ENDCHAR
STARTCHAR uni2193
ENCODING 8595
SWIDTH 960 0
DWIDTH 16 0
BBX 9 13 3 -1
BITMAP
0800
0800
0800
0800
0800
0800
0800
0800
8880
4900
2A00
1C00
0800
ENDCHAR
STARTCHAR uni2194
ENCODING 8596
SWIDTH 960 0
DWIDTH 16 0
BBX 15 9 0 1
BITMAP
0820
1010
2008
4004
FFFE
4004
2008
1010
0820
ENDCHAR
STARTCHAR uni2195
ENCODING 8597
SWIDTH 960 0
DWIDTH 16 0
BBX 9 15 3 -2
BITMAP
0800
1C00
2A00
4900
8880
0800
0800
0800
0800
0800
8880
4900
2A00
1C00
0800
ENDCHAR
STARTCHAR uni2196
ENCODING 8598
SWIDTH 960 0
DWIDTH 16 0
BBX 11 11 2 0
BITMAP
FF00
C000
A000
9000
8800
8400
8200
8100
0080
0040
0020
ENDCHAR
STARTCHAR uni2197
ENCODING 8599
SWIDTH 960 0
DWIDTH 16 0
BBX 11 11 2 0
BITMAP
1FE0
0060
00A0
0120
0220
0420
0820
1020
2000
4000
8000
ENDCHAR
STARTCHAR uni2198
ENCODING 8600
SWIDTH 960 0
DWIDTH 16 0
BBX 11 11 2 0
BITMAP
8000
4000
2000
1020
0820
0420
0220
0120
00A0
0060
1FE0
ENDCHAR
STARTCHAR uni2199
ENCODING 8601
SWIDTH 960 0
DWIDTH 16 0
BBX 11 11 2 0
BITMAP
0020
0040
0080
8100
8200
8400
8800
9000
A000
C000
FF00
ENDCHAR
STARTCHAR uni21BA
ENCODING 8634
SWIDTH 960 0
DWIDTH 16 0
BBX 13 13 1 -1
BITMAP
00F8
10C0
20A0
4090
4090
8008
8008
8008
4010
4010
2020
18C0
0700
ENDCHAR
STARTCHAR uni21BB
ENCODING 8635
SWIDTH 960 0
DWIDTH 16 0
BBX 13 13 1 -1
BITMAP
F800
1840
2820
4810
4810
8008
8008
8008
4010
4010
2020
18C0
0700
ENDCHAR
STARTCHAR uni21D0
ENCODING 8656
SWIDTH 960 0
DWIDTH 16 0
BBX 13 9 1 1
BITMAP
0800
1000
2000
7FF8
8000
7FF8
2000
1000
0800
ENDCHAR
STARTCHAR uni21D1
ENCODING 8657
SWIDTH 960 0
DWIDTH 16 0
BBX 9 13 3 -1
BITMAP
0800
1400
3600
5500
9480
1400
1400
1400
1400
1400
1400
1400
1400
ENDCHAR
STARTCHAR uni21D2
ENCODING 8658
SWIDTH 960 0
DWIDTH 16 0
BBX 13 9 1 1
BITMAP
0080
0040
0020
FFF0
0008
FFF0
0020
0040
0080
ENDCHAR
STARTCHAR uni21D3
ENCODING 8659
SWIDTH 960 0
DWIDTH 16 0
BBX 9 13 3 -1
BITMAP
1400
1400
1400
1400
1400
1400
1400
1400
9480
5500
3600
1400
0800
ENDCHAR
STARTCHAR uni21D4
ENCODING 8660
SWIDTH 960 0
DWIDTH 16 0
BBX 15 9 0 1
BITMAP
0820
1010
2008
7FFC
8002
7FFC
2008
1010
0820
ENDCHAR
STARTCHAR uni21D5
ENCODING 8661
SWIDTH 960 0
DWIDTH 16 0
BBX 9 15 3 -2
BITMAP
0800
1400
3600
5500
9480
1400
1400
1400
1400
1400
9480
5500
3600
1400
0800
ENDCHAR
STARTCHAR uni21D6
ENCODING 8662
SWIDTH 960 0
DWIDTH 16 0
BBX 11 11 2 0
BITMAP
FF00
A000
D000
A800
9400
8A00
8500
8280
0140
00A0
0040
ENDCHAR
STARTCHAR uni21D7
ENCODING 8663
SWIDTH 960 0
DWIDTH 16 0
BBX 11 11 2 0
BITMAP
1FE0
00A0
0160
02A0
0520
0A20
1420
2820
5000
A000
4000
ENDCHAR
STARTCHAR uni21D8
ENCODING 8664
SWIDTH 960 0
DWIDTH 16 0
BBX 11 11 2 0
BITMAP
4000
A000
5000
2820
1420
0A20
0520
02A0
0160
00A0
1FE0
ENDCHAR
STARTCHAR uni21D9
ENCODING 8665
SWIDTH 960 0
DWIDTH 16 0
BBX 11 11 2 0
BITMAP
0040
00A0
0140
8280
8500
8A00
9400
A800
D000
A000
FF00
ENDCHAR
STARTCHAR uni21DA
ENCODING 8666
SWIDTH 960 0
DWIDTH 16 0
BBX 13 9 1 1
BITMAP
0800
1000
3FF8
4000
FFF8
4000
3FF8
1000
0800
ENDCHAR
STARTCHAR uni21DB
ENCODING 8667
SWIDTH 960 0
DWIDTH 16 0
BBX 13 9 1 1
BITMAP
0080
0040
FFE0
0010
FFF8
0010
FFE0
0040
0080
ENDCHAR
STARTCHAR uni21E0
ENCODING 8672
SWIDTH 960 0
DWIDTH 16 0
BBX 13 9 1 1
BITMAP
0800
1000
2000
4000
EEE8
4000
2000
1000
0800
ENDCHAR
STARTCHAR uni21E1
ENCODING 8673
SWIDTH 960 0
DWIDTH 16 0
BBX 9 13 3 -1
BITMAP
0800
1C00
2A00
4100
8880
0800
0800
0000
0800
0800
0800
0000
0800
ENDCHAR
STARTCHAR uni21E2
ENCODING 8674
SWIDTH 960 0
DWIDTH 16 0
BBX 13 9 1 1
BITMAP
0080
0040
0020
0010
BBB8
0010
0020
0040
0080
ENDCHAR
STARTCHAR uni21E3
ENCODING 8675
SWIDTH 960 0
DWIDTH 16 0
BBX 9 13 3 -1
BITMAP
0800
0000
0800
0800
0800
0000
0800
0800
8880
4100
2A00
1C00
0800
ENDCHAR
STARTCHAR uni21E4
ENCODING 8676
SWIDTH 960 0
DWIDTH 16 0
BBX 13 9 1 1
BITMAP
8200
8400
8800
9000
BFF8
9000
8800
8400
8200
ENDCHAR
STARTCHAR uni21E5
ENCODING 8677
SWIDTH 960 0
DWIDTH 16 0
BBX 13 9 1 1
BITMAP
0208
0108
0088
0048
FFE8
0048
0088
0108
0208
ENDCHAR
STARTCHAR uni21E6
ENCODING 8678
SWIDTH 960 0
DWIDTH 16 0
BBX 13 11 1 0
BITMAP
0400
0C00
1400
27F8
4008
8008
4008
27F8
1400
0C00
0400
ENDCHAR
STARTCHAR uni21E7
ENCODING 8679
SWIDTH 960 0
DWIDTH 16 0
BBX 11 13 2 -1
BITMAP
0400
0A00
1100
2080
4040
F1E0
1100
1100
1100
1100
1100
1100
1F00
ENDCHAR
STARTCHAR uni21E8
ENCODING 8680
SWIDTH 960 0
DWIDTH 16 0
BBX 13 11 1 0
BITMAP
0100
0180
0140
FF20
8010
8008
8010
FF20
0140
0180
0100
ENDCHAR
STARTCHAR uni21E9
ENCODING 8681
SWIDTH 960 0
DWIDTH 16 0
BBX 11 13 2 -1
BITMAP
1F00
1100
1100
1100
1100
1100
1100
F1E0
4040
2080
1100
0A00
0400
ENDCHAR
STARTCHAR uni21EA
ENCODING 8682
SWIDTH 960 0
DWIDTH 16 0
BBX 11 13 2 -1
BITMAP
0400
0A00
1100
2080
4040
F1E0
1100
1100
1F00
0000
1F00
1100
1F00
ENDCHAR
STARTCHAR uni21EB
ENCODING 8683
SWIDTH 960 0
DWIDTH 16 0
BBX 11 13 2 -1
BITMAP
0400
0A00
1100
2080
4040
F1E0
1100
1100
1100
1100
71C0
4040
7FC0
ENDCHAR
STARTCHAR uni21EC
ENCODING 8684
SWIDTH 960 0
DWIDTH 16 0
BBX 11 13 2 -1
BITMAP
0400
0A00
1F00
2080
4040
F1E0
1100
1100
1100
1100
71C0
4040
7FC0
ENDCHAR
STARTCHAR uni21ED
ENCODING 8685
SWIDTH 960 0
DWIDTH 16 0
BBX 11 13 2 -1
BITMAP
0400
0E00
1500
2480
4440
F5E0
1500
1500
1500
1500
75C0
4440
7FC0
ENDCHAR
STARTCHAR uni21EE
ENCODING 8686
SWIDTH 960 0
DWIDTH 16 0
BBX 11 13 2 -1
BITMAP
0400
0A00
1500
2A80
5140
A0A0
4040
F1E0
1100
1100
1100
1100
1F00
ENDCHAR
STARTCHAR uni21EF
ENCODING 8687
SWIDTH 960 0
DWIDTH 16 0
BBX 11 13 2 -1
BITMAP
0400
0A00
1500
2A80
5140
A0A0
4040
F1E0
1100
1100
71C0
4040
7FC0
ENDCHAR
STARTCHAR uni21F0
ENCODING 8688
SWIDTH 960 0
DWIDTH 16 0
BBX 13 11 1 0
BITMAP
0100
E180
A140
BF20
8010
8008
8010
BF20
A140
E180
0100
ENDCHAR
STARTCHAR uni21F1
ENCODING 8689
SWIDTH 960 0
DWIDTH 16 0
BBX 13 13 1 -1
BITMAP
FFF8
8000
BFC0
B000
A800
A400
A200
A100
A080
A040
8020
8010
8008
ENDCHAR
STARTCHAR uni21F2
ENCODING 8690
SWIDTH 960 0
DWIDTH 16 0
BBX 13 13 1 -1
BITMAP
8008
4008
2008
1028
0828
0428
0228
0128
00A8
0068
1FE8
0008
FFF8
ENDCHAR
STARTCHAR uni21F3
ENCODING 8691
SWIDTH 960 0
DWIDTH 16 0
BBX 9 15 3 -2
BITMAP
0800
1400
2200
4100
E380
2200
2200
2200
2200
2200
E380
4100
2200
1400
0800
ENDCHAR
STARTCHAR uni21FD
ENCODING 8701
SWIDTH 960 0
DWIDTH 16 0
BBX 13 9 1 1
BITMAP
0800
1800
2800
4800
8FF8
4800
2800
1800
0800
ENDCHAR
STARTCHAR uni21FE
ENCODING 8702
SWIDTH 960 0
DWIDTH 16 0
BBX 13 9 1 1
BITMAP
0080
00C0
00A0
0090
FF88
0090
00A0
00C0
0080
ENDCHAR
STARTCHAR uni21FF
ENCODING 8703
SWIDTH 960 0
DWIDTH 16 0
BBX 15 9 0 1
BITMAP
0820
1830
2828
4824
8FE2
4824
2828
1830
0820
ENDCHAR
STARTCHAR uni230C
ENCODING 8972
SWIDTH 960 0
DWIDTH 16 0
BBX 7 7 7 -1
BITMAP
3E
00
80
80
80
80
80
ENDCHAR
STARTCHAR uni230D
ENCODING 8973
SWIDTH 960 0
DWIDTH 16 0
BBX 7 7 1 -1
BITMAP
F8
00
02
02
02
02
02
ENDCHAR
STARTCHAR uni230E
ENCODING 8974
SWIDTH 960 0
DWIDTH 16 0
BBX 7 7 7 5
BITMAP
80
80
80
80
80
00
3E
ENDCHAR
STARTCHAR uni230F
ENCODING 8975
SWIDTH 960 0
DWIDTH 16 0
BBX 7 7 1 5
BITMAP
02
02
02
02
02
00
F8
ENDCHAR
STARTCHAR uni2310
ENCODING 8976
SWIDTH 960 0
DWIDTH 16 0
BBX 9 5 3 3
BITMAP
FF80
8000
8000
8000
8000
ENDCHAR
STARTCHAR uni2311
ENCODING 8977
SWIDTH 960 0
DWIDTH 16 0
BBX 11 11 2 0
BITMAP
E0E0
9B20
8420
4040
4040
2080
4040
4040
8420
9B20
E0E0
ENDCHAR
STARTCHAR uni2312
ENCODING 8978
SWIDTH 960 0
DWIDTH 16 0
BBX 13 7 1 2
BITMAP
0700
18C0
2020
4010
4010
8008
8008
ENDCHAR
STARTCHAR uni2313
ENCODING 8979
SWIDTH 960 0
DWIDTH 16 0
BBX 13 7 1 2
BITMAP
0700
18C0
2020
4010
4010
8008
FFF8
ENDCHAR
STARTCHAR uni2314
ENCODING 8980
SWIDTH 960 0
DWIDTH 16 0
BBX 11 13 2 -1
BITMAP
0E00
3180
4040
8020
4040
4040
2080
2080
1100
1100
0A00
0A00
0400
ENDCHAR
STARTCHAR uni2315
ENCODING 8981
SWIDTH 960 0
DWIDTH 16 0
BBX 13 13 1 -1
BITMAP
03C0
0420
0810
1008
1008
1008
1008
0810
0C20
13C0
2000
4000
8000
ENDCHAR
STARTCHAR uni2316
ENCODING 8982
SWIDTH 960 0
DWIDTH 16 0
BBX 13 13 1 -1
BITMAP
0200
0200
0F80
1240
2220
2220
FFF8
2220
2220
1240
0F80
0200
0200
ENDCHAR
STARTCHAR uni2317
ENCODING 8983
SWIDTH 960 0
DWIDTH 16 0
BBX 13 13 1 -1
BITMAP
1040
1040
1040
FFF8
1040
1040
1040
1040
1040
FFF8
1040
1040
1040
ENDCHAR
STARTCHAR uni2318
ENCODING 8984
SWIDTH 960 0
DWIDTH 16 0
BBX 13 13 1 -1
BITMAP
7070
8888
8888
8888
7FF0
0880
0880
0880
7FF0
8888
8888
8888
7070
ENDCHAR
STARTCHAR uni2319
ENCODING 8985
SWIDTH 960 0
DWIDTH 16 0
BBX 9 5 3 3
BITMAP
8000
8000
8000
8000
FF80
ENDCHAR
STARTCHAR uni231A
ENCODING 8986
SWIDTH 960 0
DWIDTH 16 0
BBX 9 15 3 -2
BITMAP
3E00
3E00
3E00
7F00
8880
8880
8880
8F80
8080
8080
8080
7F00
3E00
3E00
3E00
ENDCHAR
STARTCHAR uni231B
ENCODING 8987
SWIDTH 960 0
DWIDTH 16 0
BBX 11 15 2 -2
BITMAP
FFE0
4040
4040
4040
4040
2080
1100
0A00
1F00
3F80
7FC0
7FC0
7FC0
7FC0
FFE0
ENDCHAR
STARTCHAR uni231C
ENCODING 8988
SWIDTH 960 0
DWIDTH 16 0
BBX 7 7 1 5
BITMAP
FE
80
80
80
80
80
80
ENDCHAR
STARTCHAR uni231D
ENCODING 8989
SWIDTH 960 0
DWIDTH 16 0
BBX 7 7 7 5
BITMAP
FE
02
02
02
02
02
02
ENDCHAR
STARTCHAR uni231E
ENCODING 8990
SWIDTH 960 0
DWIDTH 16 0
BBX 7 7 1 -1
BITMAP
80
80
80
80
80
80
FE
ENDCHAR
STARTCHAR uni231F
ENCODING 8991
SWIDTH 960 0
DWIDTH 16 0
BBX 7 7 7 -1
BITMAP
02
02
02
02
02
02
FE
ENDCHAR
STARTCHAR uni23CE
ENCODING 9166
SWIDTH 960 0
DWIDTH 16 0
BBX 15 15 0 -2
BITMAP
003E
0022
0022
0022
0422
0C22
1422
27C2
4002
8002
4004
27F8
1400
0C00
0400
ENDCHAR
STARTCHAR uni23CF
ENCODING 9167
SWIDTH 960 0
DWIDTH 16 0
BBX 11 9 2 1
BITMAP
0400
0E00
1F00
3F80
7FC0
FFE0
0000
FFE0
FFE0
ENDCHAR
STARTCHAR uni23E8
ENCODING 9192
SWIDTH 960 0
DWIDTH 16 0
BBX 9 7 3 -2
BITMAP
4700
C880
4980
4A80
4C80
4880
E700
ENDCHAR
STARTCHAR uni23E9
ENCODING 9193
SWIDTH 960 0
DWIDTH 16 0
BBX 11 9 2 1
BITMAP
8200
C300
E380
F3C0
FBE0
F3C0
E380
C300
8200
ENDCHAR
STARTCHAR uni23EA
ENCODING 9194
SWIDTH 960 0
DWIDTH 16 0
BBX 11 9 2 1
BITMAP
0820
1860
38E0
79E0
FBE0
79E0
38E0
1860
0820
ENDCHAR
STARTCHAR uni23EB
ENCODING 9195
SWIDTH 960 0
DWIDTH 16 0
BBX 9 11 3 0
BITMAP
0800
1C00
3E00
7F00
FF80
0000
0800
1C00
3E00
7F00
FF80
ENDCHAR
STARTCHAR uni23EC
ENCODING 9196
SWIDTH 960 0
DWIDTH 16 0
BBX 9 11 3 0
BITMAP
FF80
7F00
3E00
1C00
0800
0000
FF80
7F00
3E00
1C00
0800
ENDCHAR
STARTCHAR uni23ED
ENCODING 9197
SWIDTH 960 0
DWIDTH 16 0
BBX 12 9 2 1
BITMAP
8430
C630
E730
F7B0
FFF0
F7B0
E730
C630
8430
ENDCHAR
STARTCHAR uni23EE
ENCODING 9198
SWIDTH 960 0
DWIDTH 16 0
BBX 12 9 2 1
BITMAP
C210
C630
CE70
DEF0
FFF0
DEF0
CE70
C630
C210
ENDCHAR
STARTCHAR uni23EF
ENCODING 9199
SWIDTH 960 0
DWIDTH 16 0
BBX 11 9 2 1
BITMAP
8360
C360
E360
F360
FB60
F360
E360
C360
8360
ENDCHAR
STARTCHAR uni23F3
ENCODING 9203
SWIDTH 960 0
DWIDTH 16 0
BBX 11 15 2 -2
BITMAP
FFE0
4040
4040
4040
7FC0
3F80
1F00
0E00
1500
2480
4440
7FC0
7FC0
7FC0
FFE0
ENDCHAR
STARTCHAR uni23F4
ENCODING 9204
SWIDTH 960 0
DWIDTH 16 0
BBX 5 9 5 1
BITMAP
08
18
38
78
F8
78
38
18
08
ENDCHAR
STARTCHAR uni23F5
ENCODING 9205
SWIDTH 960 0
DWIDTH 16 0
BBX 5 9 5 1
BITMAP
80
C0
E0
F0
F8
F0
E0
C0
80
ENDCHAR
STARTCHAR uni23F6
ENCODING 9206
SWIDTH 960 0
DWIDTH 16 0
BBX 9 5 3 3
BITMAP
0800
1C00
3E00
7F00
FF80
ENDCHAR
STARTCHAR uni23F7
ENCODING 9207
SWIDTH 960 0
DWIDTH 16 0
BBX 9 5 3 3
BITMAP
FF80
7F00
3E00
1C00
0800
ENDCHAR
STARTCHAR uni23F8
ENCODING 9208
SWIDTH 960 0
DWIDTH 16 0
BBX 7 7 4 2
BITMAP
C6
C6
C6
C6
C6
C6
C6
ENDCHAR
STARTCHAR uni23F9
ENCODING 9209
SWIDTH 960 0
DWIDTH 16 0
BBX 7 7 4 2
BITMAP
FE
FE
FE
FE
FE
FE
FE
ENDCHAR
STARTCHAR uni23FA
ENCODING 9210
SWIDTH 960 0
DWIDTH 16 0
BBX 7 7 4 2
BITMAP
38
7C
FE
FE
FE
7C
38
ENDCHAR
STARTCHAR uni23FB
ENCODING 9211
SWIDTH 960 0
DWIDTH 16 0
BBX 13 13 1 -1
BITMAP
0200
1240
2220
4210
4210
8208
8208
8008
4010
4010
2020
18C0
0700
ENDCHAR
STARTCHAR uni23FC
ENCODING 9212
SWIDTH 960 0
DWIDTH 16 0
BBX 13 13 1 -1
BITMAP
0700
18C0
2020
4210
4210
8208
8208
8208
4210
4210
2020
18C0
0700
ENDCHAR
STARTCHAR uni23FD
ENCODING 9213
SWIDTH 960 0
DWIDTH 16 0
BBX 1 11 7 0
BITMAP
80
80
80
80
80
80
80
80
80
80
80
ENDCHAR
STARTCHAR uni23FE
ENCODING 9214
SWIDTH 960 0
DWIDTH 16 0
BBX 13 13 1 -1
BITMAP
0780
1E00
3C00
7800
7800
F000
F000
F800
7800
7C08
3F30
1FE0
07C0
ENDCHAR
STARTCHAR uni23FF
ENCODING 9215
SWIDTH 960 0
DWIDTH 16 0
BBX 13 11 1 0
BITMAP
0038
00E0
0350
0C88
3088
C088
3088
0C88
0350
00E0
0038
ENDCHAR
STARTCHAR uni2460
ENCODING 9312
SWIDTH 960 0
DWIDTH 16 0
BBX 15 15 0 -2
BITMAP
07C0
1830
2008
4104
4304
8502
8102
8102
8102
8102
4104
47C4
2008
1830
07C0
ENDCHAR
STARTCHAR uni2461
ENCODING 9313
SWIDTH 960 0
DWIDTH 16 0
BBX 15 15 0 -2
BITMAP
07C0
1830
2008
4384
4444
8042
8042
8082
8102
8202
4404
47C4
2008
1830
07C0
ENDCHAR
STARTCHAR uni2462
ENCODING 9314
SWIDTH 960 0
DWIDTH 16 0
BBX 15 15 0 -2
BITMAP
07C0
1830
2008
4384
4444
8042
8042
8182
8042
8042
4444
4384
2008
1830
07C0
ENDCHAR
STARTCHAR uni2463
ENCODING 9315
SWIDTH 960 0
DWIDTH 16 0
BBX 15 15 0 -2
BITMAP
07C0
1830
2008
4184
4284
8282
8282
8482
8482
87C2
4084
4084
2008
1830
07C0
ENDCHAR
STARTCHAR uni2464
ENCODING 9316
SWIDTH 960 0
DWIDTH 16 0
BBX 15 15 0 -2
BITMAP
07C0
1830
2008
47C4
4404
8402
8402
8782
8042
8042
4444
4384
2008
1830
07C0
ENDCHAR
STARTCHAR uni2465
ENCODING 9317
SWIDTH 960 0
DWIDTH 16 0
BBX 15 15 0 -2
BITMAP
07C0
1830
2008
4384
4444
8402
8402
8782
8442
8442
4444
4384
2008
1830
07C0
ENDCHAR
STARTCHAR uni2466
ENCODING 9318
SWIDTH 960 0
DWIDTH 16 0
BBX 15 15 0 -2
BITMAP
07C0
1830
2008
47C4
4044
8042
8082
8082
8102
8102
4104
4104
2008
1830
07C0
ENDCHAR
STARTCHAR uni2467
ENCODING 9319
SWIDTH 960 0
DWIDTH 16 0
BBX 15 15 0 -2
BITMAP
07C0
1830
2008
4384
4444
8442
8442
8382
8442
8442
4444
4384
2008
1830
07C0
ENDCHAR
STARTCHAR uni2468
ENCODING 9320
SWIDTH 960 0
DWIDTH 16 0
BBX 15 15 0 -2
BITMAP
07C0
1830
2008
4384
4444
8442
8442
83C2
8042
8042
4444
4384
2008
1830
07C0
ENDCHAR
STARTCHAR uni2469
ENCODING 9321
SWIDTH 960 0
DWIDTH 16 0
BBX 15 15 0 -2
BITMAP
07C0
1830
2008
48E4
5914
8912
8932
8952
8992
8912
4914
5CE4
2008
1830
07C0
ENDCHAR
STARTCHAR uni246A
ENCODING 9322
SWIDTH 960 0
DWIDTH 16 0
BBX 15 15 0 -2
BITMAP
07C0
1830
2008
4824
5864
8822
8822
8822
8822
8822
4824
5C74
2008
1830
07C0
ENDCHAR
STARTCHAR uni246B
ENCODING 9323
SWIDTH 960 0
DWIDTH 16 0
BBX 15 15 0 -2
BITMAP
07C0
1830
2008
48E4
5914
8812
8812
8822
8842
8882
4904
5DF4
2008
1830
07C0
ENDCHAR
STARTCHAR uni246C
ENCODING 9324
SWIDTH 960 0
DWIDTH 16 0
BBX 15 15 0 -2
BITMAP
07C0
1830
2008
48E4
5914
8812
8812
8862
8812
8812
4914
5CE4
2008
1830
07C0
ENDCHAR
STARTCHAR uni246D
ENCODING 9325
SWIDTH 960 0
DWIDTH 16 0
BBX 15 15 0 -2
BITMAP
07C0
1830
2008
4864
58A4
88A2
88A2
8922
8922
89F2
4824
5C24
2008
1830
07C0
ENDCHAR
STARTCHAR uni246E
ENCODING 9326
SWIDTH 960 0
DWIDTH 16 0
BBX 15 15 0 -2
BITMAP
07C0
1830
2008
49F4
5904
8902
8902
89E2
8812
8812
4914
5CE4
2008
1830
07C0
ENDCHAR
STARTCHAR uni246F
ENCODING 9327
SWIDTH 960 0
DWIDTH 16 0
BBX 15 15 0 -2
BITMAP
07C0
1830
2008
48E4
5914
8902
8902
89E2
8912
8912
4914
5CE4
2008
1830
07C0
ENDCHAR
STARTCHAR uni2470
ENCODING 9328
SWIDTH 960 0
DWIDTH 16 0
BBX 15 15 0 -2
BITMAP
07C0
1830
2008
49F4
5814
8812
8822
8822
8842
8842
4844
5C44
2008
1830
07C0
ENDCHAR
STARTCHAR uni2471
ENCODING 9329
SWIDTH 960 0
DWIDTH 16 0
BBX 15 15 0 -2
BITMAP
07C0
1830
2008
48E4
5914
8912
8912
88E2
8912
8912
4914
5CE4
2008
1830
07C0
ENDCHAR
STARTCHAR uni2472
ENCODING 9330
SWIDTH 960 0
DWIDTH 16 0
BBX 15 15 0 -2
BITMAP
07C0
1830
2008
48E4
5914
8912
8912
88F2
8812
8812
4914
5CE4
2008
1830
07C0
ENDCHAR
STARTCHAR uni2473
ENCODING 9331
SWIDTH 960 0
DWIDTH 16 0
BBX 15 15 0 -2
BITMAP
07C0
1830
2008
4C64
5294
8292
82B2
84D2
8492
8892
5094
5E64
2008
1830
07C0
ENDCHAR
STARTCHAR uni2474
ENCODING 9332
SWIDTH 960 0
DWIDTH 16 0
BBX 15 15 0 -2
BITMAP
1010
2008
4004
4104
8302
8502
8102
8102
8102
8102
8102
47C4
4004
2008
1010
ENDCHAR
STARTCHAR uni2475
ENCODING 9333
SWIDTH 960 0
DWIDTH 16 0
BBX 15 15 0 -2
BITMAP
1010
2008
4004
4384
8442
8042
8042
8082
8102
8202
8402
47C4
4004
2008
1010
ENDCHAR
STARTCHAR uni2476
ENCODING 9334
SWIDTH 960 0
DWIDTH 16 0
BBX 15 15 0 -2
BITMAP
1010
2008
4004
4384
8442
8042
8042
8182
8042
8042
8442
4384
4004
2008
1010
ENDCHAR
STARTCHAR uni2477
ENCODING 9335
SWIDTH 960 0
DWIDTH 16 0
BBX 15 15 0 -2
BITMAP
1010
2008
4004
4184
8282
8282
8282
8482
8482
87C2
8082
4084
4004
2008
1010
ENDCHAR
STARTCHAR uni2478
ENCODING 9336
SWIDTH 960 0
DWIDTH 16 0
BBX 15 15 0 -2
BITMAP
1010
2008
4004
47C4
8402
8402
8402
8782
8042
8042
8442
4384
4004
2008
1010
ENDCHAR
STARTCHAR uni2479
ENCODING 9337
SWIDTH 960 0
DWIDTH 16 0
BBX 15 15 0 -2
BITMAP
1010
2008
4004
4384
8442
8402
8402
8782
8442
8442
8442
4384
4004
2008
1010
ENDCHAR
STARTCHAR uni247A
ENCODING 9338
SWIDTH 960 0
DWIDTH 16 0
BBX 15 15 0 -2
BITMAP
1010
2008
4004
47C4
8042
8042
8082
8082
8102
8102
8102
4104
4004
2008
1010
ENDCHAR
STARTCHAR uni247B
ENCODING 9339
SWIDTH 960 0
DWIDTH 16 0
BBX 15 15 0 -2
BITMAP
1010
2008
4004
4384
8442
8442
8442
8382
8442
8442
8442
4384
4004
2008
1010
ENDCHAR
STARTCHAR uni247C
ENCODING 9340
SWIDTH 960 0
DWIDTH 16 0
BBX 15 15 0 -2
BITMAP
1010
2008
4004
4384
8442
8442
8442
83C2
8042
8042
8442
4384
4004
2008
1010
ENDCHAR
STARTCHAR uni247D
ENCODING 9341
SWIDTH 960 0
DWIDTH 16 0
BBX 15 15 0 -2
BITMAP
1010
2008
4004
48E4
9912
8912
8932
8952
8992
8912
8912
5CE4
4004
2008
1010
ENDCHAR
STARTCHAR uni247E
ENCODING 9342
SWIDTH 960 0
DWIDTH 16 0
BBX 15 15 0 -2
BITMAP
1010
2008
4004
4824
9862
8822
8822
8822
8822
8822
8822
5C74
4004
2008
1010
ENDCHAR
STARTCHAR uni247F
ENCODING 9343
SWIDTH 960 0
DWIDTH 16 0
BBX 15 15 0 -2
BITMAP
1010
2008
4004
48E4
9912
8812
8812
8822
8842
8882
8902
5DF4
4004
2008
1010
ENDCHAR
STARTCHAR uni2480
ENCODING 9344
SWIDTH 960 0
DWIDTH 16 0
BBX 15 15 0 -2
BITMAP
1010
2008
4004
48E4
9912
8812
8812
8862
8812
8812
8912
5CE4
4004
2008
1010
ENDCHAR
STARTCHAR uni2481
ENCODING 9345
SWIDTH 960 0
DWIDTH 16 0
BBX 15 15 0 -2
BITMAP
1010
2008
4004
4864
98A2
88A2
88A2
8922
8922
89F2
8822
5C24
4004
2008
1010
ENDCHAR
STARTCHAR uni2482
ENCODING 9346
SWIDTH 960 0
DWIDTH 16 0
BBX 15 15 0 -2
BITMAP
1010
2008
4004
49F4
9902
8902
8902
89E2
8812
8812
8912
5CE4
4004
2008
1010
ENDCHAR
STARTCHAR uni2483
ENCODING 9347
SWIDTH 960 0
DWIDTH 16 0
BBX 15 15 0 -2
BITMAP
1010
2008
4004
48E4
9912
8902
8902
89E2
8912
8912
8912
5CE4
4004
2008
1010
ENDCHAR
STARTCHAR uni2484
ENCODING 9348
SWIDTH 960 0
DWIDTH 16 0
BBX 15 15 0 -2
BITMAP
1010
2008
4004
49F4
9812
8812
8822
8822
8842
8842
8842
5C44
4004
2008
1010
ENDCHAR
STARTCHAR uni2485
ENCODING 9349
SWIDTH 960 0
DWIDTH 16 0
BBX 15 15 0 -2
BITMAP
1010
2008
4004
48E4
9912
8912
8912
88E2
8912
8912
8912
5CE4
4004
2008
1010
ENDCHAR
STARTCHAR uni2486
ENCODING 9350
SWIDTH 960 0
DWIDTH 16 0
BBX 15 15 0 -2
BITMAP
1010
2008
4004
48E4
9912
8912
8912
88F2
8812
8812
8912
5CE4
4004
2008
1010
ENDCHAR
STARTCHAR uni2487
ENCODING 9351
SWIDTH 960 0
DWIDTH 16 0
BBX 15 15 0 -2
BITMAP
1010
2008
4004
4C64
9292
8292
82B2
84D2
8492
8892
9092
5E64
4004
2008
1010
ENDCHAR
STARTCHAR uni2488
ENCODING 9352
SWIDTH 960 0
DWIDTH 16 0
BBX 8 11 4 0
BITMAP
20
60
A0
20
20
20
20
20
20
23
FB
ENDCHAR
STARTCHAR uni2489
ENCODING 9353
SWIDTH 960 0
DWIDTH 16 0
BBX 9 11 3 0
BITMAP
7800
8400
0400
0400
0400
0800
1000
2000
4000
8180
FD80
ENDCHAR
STARTCHAR uni248A
ENCODING 9354
SWIDTH 960 0
DWIDTH 16 0
BBX 9 11 3 0
BITMAP
7800
8400
0400
0400
0400
3800
0400
0400
0400
8580
7980
ENDCHAR
STARTCHAR uni248B
ENCODING 9355
SWIDTH 960 0
DWIDTH 16 0
BBX 9 11 3 0
BITMAP
1800
2800
2800
4800
4800
4800
8800
8800
FC00
0980
0980
ENDCHAR
STARTCHAR uni248C
ENCODING 9356
SWIDTH 960 0
DWIDTH 16 0
BBX 9 11 3 0
BITMAP
FC00
8000
8000
8000
8000
F800
0400
0400
0400
8580
7980
ENDCHAR
STARTCHAR uni248D
ENCODING 9357
SWIDTH 960 0
DWIDTH 16 0
BBX 9 11 3 0
BITMAP
7800
8400
8000
8000
8000
F800
8400
8400
8400
8580
7980
ENDCHAR
STARTCHAR uni248E
ENCODING 9358
SWIDTH 960 0
DWIDTH 16 0
BBX 9 11 3 0
BITMAP
FC00
0400
0400
0800
0800
0800
1000
1000
1000
1180
1180
ENDCHAR
STARTCHAR uni248F
ENCODING 9359
SWIDTH 960 0
DWIDTH 16 0
BBX 9 11 3 0
BITMAP
7800
8400
8400
8400
8400
7800
8400
8400
8400
8580
7980
ENDCHAR
STARTCHAR uni2490
ENCODING 9360
SWIDTH 960 0
DWIDTH 16 0
BBX 9 11 3 0
BITMAP
7800
8400
8400
8400
8400
7C00
0400
0400
0400
8580
7980
ENDCHAR
STARTCHAR uni2491
ENCODING 9361
SWIDTH 960 0
DWIDTH 16 0
BBX 14 11 1 0
BITMAP
43C0
C420
4420
4420
4460
45A0
4620
4420
4420
442C
E3CC
ENDCHAR
STARTCHAR uni2492
ENCODING 9362
SWIDTH 960 0
DWIDTH 16 0
BBX 14 11 1 0
BITMAP
2080
6180
A280
2080
2080
2080
2080
2080
2080
208C
FBEC
ENDCHAR
STARTCHAR uni2493
ENCODING 9363
SWIDTH 960 0
DWIDTH 16 0
BBX 14 11 1 0
BITMAP
43C0
C420
4020
4020
4020
4040
4080
4100
4200
440C
E7EC
ENDCHAR
STARTCHAR uni2494
ENCODING 9364
SWIDTH 960 0
DWIDTH 16 0
BBX 14 11 1 0
BITMAP
43C0
C420
4020
4020
4020
40C0
4020
4020
4020
442C
E3CC
ENDCHAR
STARTCHAR uni2495
ENCODING 9365
SWIDTH 960 0
DWIDTH 16 0
BBX 14 11 1 0
BITMAP
40C0
C140
4140
4240
4240
4240
4440
4440
47E0
404C
E04C
ENDCHAR
STARTCHAR uni2496
ENCODING 9366
SWIDTH 960 0
DWIDTH 16 0
BBX 14 11 1 0
BITMAP
47E0
C400
4400
4400
4400
47C0
4020
4020
4020
442C
E3CC
ENDCHAR
STARTCHAR uni2497
ENCODING 9367
SWIDTH 960 0
DWIDTH 16 0
BBX 14 11 1 0
BITMAP
43C0
C420
4400
4400
4400
47C0
4420
4420
4420
442C
E3CC
ENDCHAR
STARTCHAR uni2498
ENCODING 9368
SWIDTH 960 0
DWIDTH 16 0
BBX 14 11 1 0
BITMAP
47E0
C020
4020
4040
4040
4040
4080
4080
4080
408C
E08C
ENDCHAR
STARTCHAR uni2499
ENCODING 9369
SWIDTH 960 0
DWIDTH 16 0
BBX 14 11 1 0
BITMAP
43C0
C420
4420
4420
4420
43C0
4420
4420
4420
442C
E3CC
ENDCHAR
STARTCHAR uni249A
ENCODING 9370
SWIDTH 960 0
DWIDTH 16 0
BBX 14 11 1 0
BITMAP
43C0
C420
4420
4420
4420
43E0
4020
4020
4020
442C
E3CC
ENDCHAR
STARTCHAR uni249B
ENCODING 9371
SWIDTH 960 0
DWIDTH 16 0
BBX 14 11 1 0
BITMAP
71C0
8A20
0A20
0A20
1260
12A0
2320
2220
4220
822C
F9CC
ENDCHAR
STARTCHAR uni249C
ENCODING 9372
SWIDTH 960 0
DWIDTH 16 0
BBX 15 15 0 -2
BITMAP
1010
2008
4004
4004
8002
8382
8042
83C2
8442
8442
83C2
4004
4004
2008
1010
ENDCHAR
STARTCHAR uni249D
ENCODING 9373
SWIDTH 960 0
DWIDTH 16 0
BBX 15 15 0 -2
BITMAP
1010
2008
4404
4404
8402
8782
8442
8442
8442
8442
8782
4004
4004
2008
1010
ENDCHAR
STARTCHAR uni249E
ENCODING 9374
SWIDTH 960 0
DWIDTH 16 0
BBX 15 15 0 -2
BITMAP
1010
2008
4004
4004
8002
8382
8442
8402
8402
8442
8382
4004
4004
2008
1010
ENDCHAR
STARTCHAR uni249F
ENCODING 9375
SWIDTH 960 0
DWIDTH 16 0
BBX 15 15 0 -2
BITMAP
1010
2008
4044
4044
8042
83C2
8442
8442
8442
8442
83C2
4004
4004
2008
1010
ENDCHAR
STARTCHAR uni24A0
ENCODING 9376
SWIDTH 960 0
DWIDTH 16 0
BBX 15 15 0 -2
BITMAP
1010
2008
4004
4004
8002
8382
8442
87C2
8402
8442
8382
4004
4004
2008
1010
ENDCHAR
STARTCHAR uni24A1
ENCODING 9377
SWIDTH 960 0
DWIDTH 16 0
BBX 15 15 0 -2
BITMAP
1010
2008
4004
40C4
8102
8102
87C2
8102
8102
8102
8102
4104
4004
2008
1010
ENDCHAR
STARTCHAR uni24A2
ENCODING 9378
SWIDTH 960 0
DWIDTH 16 0
BBX 15 15 0 -2
BITMAP
1010
2008
4004
4004
83C2
8442
8442
8442
8442
83C2
8042
4044
4384
2008
1010
ENDCHAR
STARTCHAR uni24A3
ENCODING 9379
SWIDTH 960 0
DWIDTH 16 0
BBX 15 15 0 -2
BITMAP
1010
2008
4404
4404
8402
8582
8642
8442
8442
8442
8442
4004
4004
2008
1010
ENDCHAR
STARTCHAR uni24A4
ENCODING 9380
SWIDTH 960 0
DWIDTH 16 0
BBX 15 15 0 -2
BITMAP
1010
2008
4004
4104
8002
8302
8102
8102
8102
8102
8382
4004
4004
2008
1010
ENDCHAR
STARTCHAR uni24A5
ENCODING 9381
SWIDTH 960 0
DWIDTH 16 0
BBX 15 15 0 -2
BITMAP
1010
2008
4004
4084
8002
8382
8082
8082
8082
8082
8082
4084
4304
2008
1010
ENDCHAR
STARTCHAR uni24A6
ENCODING 9382
SWIDTH 960 0
DWIDTH 16 0
BBX 15 15 0 -2
BITMAP
1010
2008
4004
4404
8402
8402
8442
8582
8602
8502
8482
4444
4004
2008
1010
ENDCHAR
STARTCHAR uni24A7
ENCODING 9383
SWIDTH 960 0
DWIDTH 16 0
BBX 15 15 0 -2
BITMAP
1010
2008
4004
4304
8102
8102
8102
8102
8102
8102
8102
4184
4004
2008
1010
ENDCHAR
STARTCHAR uni24A8
ENCODING 9384
SWIDTH 960 0
DWIDTH 16 0
BBX 15 15 0 -2
BITMAP
1010
2008
4004
4004
8002
8EC2
8922
8922
8922
8922
8922
4004
4004
2008
1010
ENDCHAR
STARTCHAR uni24A9
ENCODING 9385
SWIDTH 960 0
DWIDTH 16 0
BBX 15 15 0 -2
BITMAP
1010
2008
4004
4004
8002
8582
8642
8442
8442
8442
8442
4004
4004
2008
1010
ENDCHAR
STARTCHAR uni24AA
ENCODING 9386
SWIDTH 960 0
DWIDTH 16 0
BBX 15 15 0 -2
BITMAP
1010
2008
4004
4004
8002
8382
8442
8442
8442
8442
8382
4004
4004
2008
1010
ENDCHAR
STARTCHAR uni24AB
ENCODING 9387
SWIDTH 960 0
DWIDTH 16 0
BBX 15 15 0 -2
BITMAP
1010
2008
4004
4004
8782
8442
8442
8442
8442
8782
8402
4404
4404
2008
1010
ENDCHAR
STARTCHAR uni24AC
ENCODING 9388
SWIDTH 960 0
DWIDTH 16 0
BBX 15 15 0 -2
BITMAP
1010
2008
4004
4004
83C2
8442
8442
8442
8442
83C2
8042
4044
4044
2008
1010
ENDCHAR
STARTCHAR uni24AD
ENCODING 9389
SWIDTH 960 0
DWIDTH 16 0
BBX 15 15 0 -2
BITMAP
1010
2008
4004
4004
8002
85C2
8602
8402
8402
8402
8402
4004
4004
2008
1010
ENDCHAR
STARTCHAR uni24AE
ENCODING 9390
SWIDTH 960 0
DWIDTH 16 0
BBX 15 15 0 -2
BITMAP
1010
2008
4004
4004
8002
83C2
8402
8382
8042
8042
8782
4004
4004
2008
1010
ENDCHAR
STARTCHAR uni24AF
ENCODING 9391
SWIDTH 960 0
DWIDTH 16 0
BBX 15 15 0 -2
BITMAP
1010
2008
4004
4104
8102
8102
87C2
8102
8102
8102
8102
40C4
4004
2008
1010
ENDCHAR
STARTCHAR uni24B0
ENCODING 9392
SWIDTH 960 0
DWIDTH 16 0
BBX 15 15 0 -2
BITMAP
1010
2008
4004
4004
8002
8442
8442
8442
8442
84C2
8342
4004
4004
2008
1010
ENDCHAR
STARTCHAR uni24B1
ENCODING 9393
SWIDTH 960 0
DWIDTH 16 0
BBX 15 15 0 -2
BITMAP
1010
2008
4004
4004
8002
8442
8442
8282
8282
8102
8102
4004
4004
2008
1010
ENDCHAR
STARTCHAR uni24B2
ENCODING 9394
SWIDTH 960 0
DWIDTH 16 0
BBX 15 15 0 -2
BITMAP
1010
2008
4004
4004
8002
8922
8922
8AA2
8AA2
8442
8442
4004
4004
2008
1010
ENDCHAR
STARTCHAR uni24B3
ENCODING 9395
SWIDTH 960 0
DWIDTH 16 0
BBX 15 15 0 -2
BITMAP
1010
2008
4004
4004
8002
8442
8282
8102
8102
8282
8442
4004
4004
2008
1010
ENDCHAR
STARTCHAR uni24B4
ENCODING 9396
SWIDTH 960 0
DWIDTH 16 0
BBX 15 15 0 -2
BITMAP
1010
2008
4004
4004
8002
8442
8442
8442
8282
8282
8102
4104
4604
2008
1010
ENDCHAR
STARTCHAR uni24B5
ENCODING 9397
SWIDTH 960 0
DWIDTH 16 0
BBX 15 15 0 -2
BITMAP
1010
2008
4004
4004
8002
87C2
8082
8102
8202
8402
87C2
4004
4004
2008
1010
ENDCHAR
STARTCHAR uni24B6
ENCODING 9398
SWIDTH 960 0
DWIDTH 16 0
BBX 15 15 0 -2
BITMAP
07C0
1830
2008
4104
4104
8282
8282
8282
8382
8442
4444
4444
2008
1830
07C0
ENDCHAR
STARTCHAR uni24B7
ENCODING 9399
SWIDTH 960 0
DWIDTH 16 0
BBX 15 15 0 -2
BITMAP
07C0
1830
2008
4784
4444
8442
8442
8782
8442
8442
4444
4784
2008
1830
07C0
ENDCHAR
STARTCHAR uni24B8
ENCODING 9400
SWIDTH 960 0
DWIDTH 16 0
BBX 15 15 0 -2
BITMAP
07C0
1830
2008
4384
4444
8402
8402
8402
8402
8402
4444
4384
2008
1830
07C0
ENDCHAR
STARTCHAR uni24B9
ENCODING 9401
SWIDTH 960 0
DWIDTH 16 0
BBX 15 15 0 -2
BITMAP
07C0
1830
2008
4704
4484
8442
8442
8442
8442
8442
4484
4704
2008
1830
07C0
ENDCHAR
STARTCHAR uni24BA
ENCODING 9402
SWIDTH 960 0
DWIDTH 16 0
BBX 15 15 0 -2
BITMAP
07C0
1830
2008
47C4
4404
8402
8402
8782
8402
8402
4404
47C4
2008
1830
07C0
ENDCHAR
STARTCHAR uni24BB
ENCODING 9403
SWIDTH 960 0
DWIDTH 16 0
BBX 15 15 0 -2
BITMAP
07C0
1830
2008
47C4
4404
8402
8402
8782
8402
8402
4404
4404
2008
1830
07C0
ENDCHAR
STARTCHAR uni24BC
ENCODING 9404
SWIDTH 960 0
DWIDTH 16 0
BBX 15 15 0 -2
BITMAP
07C0
1830
2008
4384
4444
8402
8402
8402
84C2
8442
4444
43C4
2008
1830
07C0
ENDCHAR
STARTCHAR uni24BD
ENCODING 9405
SWIDTH 960 0
DWIDTH 16 0
BBX 15 15 0 -2
BITMAP
07C0
1830
2008
4444
4444
8442
8442
87C2
8442
8442
4444
4444
2008
1830
07C0
ENDCHAR
STARTCHAR uni24BE
ENCODING 9406
SWIDTH 960 0
DWIDTH 16 0
BBX 15 15 0 -2
BITMAP
07C0
1830
2008
4384
4104
8102
8102
8102
8102
8102
4104
4384
2008
1830
07C0
ENDCHAR
STARTCHAR uni24BF
ENCODING 9407
SWIDTH 960 0
DWIDTH 16 0
BBX 15 15 0 -2
BITMAP
07C0
1830
2008
4044
4044
8042
8042
8042
8042
8442
4444
4384
2008
1830
07C0
ENDCHAR
STARTCHAR uni24C0
ENCODING 9408
SWIDTH 960 0
DWIDTH 16 0
BBX 15 15 0 -2
BITMAP
07C0
1830
2008
4444
4484
8482
8502
8602
8502
8482
4484
4444
2008
1830
07C0
ENDCHAR
STARTCHAR uni24C1
ENCODING 9409
SWIDTH 960 0
DWIDTH 16 0
BBX 15 15 0 -2
BITMAP
07C0
1830
2008
4404
4404
8402
8402
8402
8402
8402
4404
47C4
2008
1830
07C0
ENDCHAR
STARTCHAR uni24C2
ENCODING 9410
SWIDTH 960 0
DWIDTH 16 0
BBX 15 15 0 -2
BITMAP
07C0
1830
2008
4824
4C64
8C62
8AA2
8AA2
8922
8922
4824
4824
2008
1830
07C0
ENDCHAR
STARTCHAR uni24C3
ENCODING 9411
SWIDTH 960 0
DWIDTH 16 0
BBX 15 15 0 -2
BITMAP
07C0
1830
2008
4444
4644
8642
8542
8542
8542
84C2
44C4
4444
2008
1830
07C0
ENDCHAR
STARTCHAR uni24C4
ENCODING 9412
SWIDTH 960 0
DWIDTH 16 0
BBX 15 15 0 -2
BITMAP
07C0
1830
2008
4384
4444
8442
8442
8442
8442
8442
4444
4384
2008
1830
07C0
ENDCHAR
STARTCHAR uni24C5
ENCODING 9413
SWIDTH 960 0
DWIDTH 16 0
BBX 15 15 0 -2
BITMAP
07C0
1830
2008
4784
4444
8442
8442
8782
8402
8402
4404
4404
2008
1830
07C0
ENDCHAR
STARTCHAR uni24C6
ENCODING 9414
SWIDTH 960 0
DWIDTH 16 0
BBX 15 15 0 -2
BITMAP
07C0
1830
2008
4384
4444
8442
8442
8442
8442
8542
4484
4344
2008
1830
07C0
ENDCHAR
STARTCHAR uni24C7
ENCODING 9415
SWIDTH 960 0
DWIDTH 16 0
BBX 15 15 0 -2
BITMAP
07C0
1830
2008
4784
4444
8442
8442
8782
8502
8482
4484
4444
2008
1830
07C0
ENDCHAR
STARTCHAR uni24C8
ENCODING 9416
SWIDTH 960 0
DWIDTH 16 0
BBX 15 15 0 -2
BITMAP
07C0
1830
2008
4384
4444
8402
8402
8382
8042
8042
4444
4384
2008
1830
07C0
ENDCHAR
STARTCHAR uni24C9
ENCODING 9417
SWIDTH 960 0
DWIDTH 16 0
BBX 15 15 0 -2
BITMAP
07C0
1830
2008
47C4
4104
8102
8102
8102
8102
8102
4104
4104
2008
1830
07C0
ENDCHAR
STARTCHAR uni24CA
ENCODING 9418
SWIDTH 960 0
DWIDTH 16 0
BBX 15 15 0 -2
BITMAP
07C0
1830
2008
4444
4444
8442
8442
8442
8442
8442
4444
4384
2008
1830
07C0
ENDCHAR
STARTCHAR uni24CB
ENCODING 9419
SWIDTH 960 0
DWIDTH 16 0
BBX 15 15 0 -2
BITMAP
07C0
1830
2008
4444
4444
8442
8442
8282
8282
8282
4104
4104
2008
1830
07C0
ENDCHAR
STARTCHAR uni24CC
ENCODING 9420
SWIDTH 960 0
DWIDTH 16 0
BBX 15 15 0 -2
BITMAP
07C0
1830
2008
4924
4924
8922
8922
8AA2
8AA2
8AA2
4444
4444
2008
1830
07C0
ENDCHAR
STARTCHAR uni24CD
ENCODING 9421
SWIDTH 960 0
DWIDTH 16 0
BBX 15 15 0 -2
BITMAP
07C0
1830
2008
4444
4444
8282
8282
8102
8282
8282
4444
4444
2008
1830
07C0
ENDCHAR
STARTCHAR uni24CE
ENCODING 9422
SWIDTH 960 0
DWIDTH 16 0
BBX 15 15 0 -2
BITMAP
07C0
1830
2008
4444
4444
8282
8282
8102
8102
8102
4104
4104
2008
1830
07C0
ENDCHAR
STARTCHAR uni24CF
ENCODING 9423
SWIDTH 960 0
DWIDTH 16 0
BBX 15 15 0 -2
BITMAP
07C0
1830
2008
47C4
4044
8082
8082
8102
8202
8202
4404
47C4
2008
1830
07C0
ENDCHAR
STARTCHAR uni24D0
ENCODING 9424
SWIDTH 960 0
DWIDTH 16 0
BBX 15 15 0 -2
BITMAP
07C0
1830
2008
4004
4004
8382
8042
83C2
8442
8442
43C4
4004
2008
1830
07C0
ENDCHAR
STARTCHAR uni24D1
ENCODING 9425
SWIDTH 960 0
DWIDTH 16 0
BBX 15 15 0 -2
BITMAP
07C0
1830
2408
4404
4404
8782
8442
8442
8442
8442
4784
4004
2008
1830
07C0
ENDCHAR
STARTCHAR uni24D2
ENCODING 9426
SWIDTH 960 0
DWIDTH 16 0
BBX 15 15 0 -2
BITMAP
07C0
1830
2008
4004
4004
8382
8442
8402
8402
8442
4384
4004
2008
1830
07C0
ENDCHAR
STARTCHAR uni24D3
ENCODING 9427
SWIDTH 960 0
DWIDTH 16 0
BBX 15 15 0 -2
BITMAP
07C0
1830
2048
4044
4044
83C2
8442
8442
8442
8442
43C4
4004
2008
1830
07C0
ENDCHAR
STARTCHAR uni24D4
ENCODING 9428
SWIDTH 960 0
DWIDTH 16 0
BBX 15 15 0 -2
BITMAP
07C0
1830
2008
4004
4004
8382
8442
87C2
8402
8442
4384
4004
2008
1830
07C0
ENDCHAR
STARTCHAR uni24D5
ENCODING 9429
SWIDTH 960 0
DWIDTH 16 0
BBX 15 15 0 -2
BITMAP
07C0
1830
2008
40C4
4104
8102
87C2
8102
8102
8102
4104
4104
2008
1830
07C0
ENDCHAR
STARTCHAR uni24D6
ENCODING 9430
SWIDTH 960 0
DWIDTH 16 0
BBX 15 15 0 -2
BITMAP
07C0
1830
2008
4004
43C4
8442
8442
8442
8442
83C2
4044
4044
2388
1830
07C0
ENDCHAR
STARTCHAR uni24D7
ENCODING 9431
SWIDTH 960 0
DWIDTH 16 0
BBX 15 15 0 -2
BITMAP
07C0
1830
2408
4404
4404
8582
8642
8442
8442
8442
4444
4004
2008
1830
07C0
ENDCHAR
STARTCHAR uni24D8
ENCODING 9432
SWIDTH 960 0
DWIDTH 16 0
BBX 15 15 0 -2
BITMAP
07C0
1830
2008
4104
4004
8302
8102
8102
8102
8102
4384
4004
2008
1830
07C0
ENDCHAR
STARTCHAR uni24D9
ENCODING 9433
SWIDTH 960 0
DWIDTH 16 0
BBX 15 15 0 -2
BITMAP
07C0
1830
2008
4084
4004
8382
8082
8082
8082
8082
4084
4084
2308
1830
07C0
ENDCHAR
STARTCHAR uni24DA
ENCODING 9434
SWIDTH 960 0
DWIDTH 16 0
BBX 15 15 0 -2
BITMAP
07C0
1830
2008
4404
4404
8402
8442
8582
8602
8502
4484
4444
2008
1830
07C0
ENDCHAR
STARTCHAR uni24DB
ENCODING 9435
SWIDTH 960 0
DWIDTH 16 0
BBX 15 15 0 -2
BITMAP
07C0
1830
2008
4304
4104
8102
8102
8102
8102
8102
4104
4184
2008
1830
07C0
ENDCHAR
STARTCHAR uni24DC
ENCODING 9436
SWIDTH 960 0
DWIDTH 16 0
BBX 15 15 0 -2
BITMAP
07C0
1830
2008
4004
4004
8EC2
8922
8922
8922
8922
4924
4004
2008
1830
07C0
ENDCHAR
STARTCHAR uni24DD
ENCODING 9437
SWIDTH 960 0
DWIDTH 16 0
BBX 15 15 0 -2
BITMAP
07C0
1830
2008
4004
4004
8582
8642
8442
8442
8442
4444
4004
2008
1830
07C0
ENDCHAR
STARTCHAR uni24DE
ENCODING 9438
SWIDTH 960 0
DWIDTH 16 0
BBX 15 15 0 -2
BITMAP
07C0
1830
2008
4004
4004
8382
8442
8442
8442
8442
4384
4004
2008
1830
07C0
ENDCHAR
STARTCHAR uni24DF
ENCODING 9439
SWIDTH 960 0
DWIDTH 16 0
BBX 15 15 0 -2
BITMAP
07C0
1830
2008
4004
4784
8442
8442
8442
8442
8782
4404
4404
2408
1830
07C0
ENDCHAR
STARTCHAR uni24E0
ENCODING 9440
SWIDTH 960 0
DWIDTH 16 0
BBX 15 15 0 -2
BITMAP
07C0
1830
2008
4004
43C4
8442
8442
8442
8442
83C2
4044
4044
2048
1830
07C0
ENDCHAR
STARTCHAR uni24E1
ENCODING 9441
SWIDTH 960 0
DWIDTH 16 0
BBX 15 15 0 -2
BITMAP
07C0
1830
2008
4004
4004
85C2
8602
8402
8402
8402
4404
4004
2008
1830
07C0
ENDCHAR
STARTCHAR uni24E2
ENCODING 9442
SWIDTH 960 0
DWIDTH 16 0
BBX 15 15 0 -2
BITMAP
07C0
1830
2008
4004
4004
83C2
8402
8382
8042
8042
4784
4004
2008
1830
07C0
ENDCHAR
STARTCHAR uni24E3
ENCODING 9443
SWIDTH 960 0
DWIDTH 16 0
BBX 15 15 0 -2
BITMAP
07C0
1830
2008
4104
4104
8102
87C2
8102
8102
8102
4104
40C4
2008
1830
07C0
ENDCHAR
STARTCHAR uni24E4
ENCODING 9444
SWIDTH 960 0
DWIDTH 16 0
BBX 15 15 0 -2
BITMAP
07C0
1830
2008
4004
4004
8442
8442
8442
8442
84C2
4344
4004
2008
1830
07C0
ENDCHAR
STARTCHAR uni24E5
ENCODING 9445
SWIDTH 960 0
DWIDTH 16 0
BBX 15 15 0 -2
BITMAP
07C0
1830
2008
4004
4004
8442
8442
8282
8282
8102
4104
4004
2008
1830
07C0
ENDCHAR
STARTCHAR uni24E6
ENCODING 9446
SWIDTH 960 0
DWIDTH 16 0
BBX 15 15 0 -2
BITMAP
07C0
1830
2008
4004
4004
8922
8922
8AA2
8AA2
8442
4444
4004
2008
1830
07C0
ENDCHAR
STARTCHAR uni24E7
ENCODING 9447
SWIDTH 960 0
DWIDTH 16 0
BBX 15 15 0 -2
BITMAP
07C0
1830
2008
4004
4004
8442
8282
8102
8102
8282
4444
4004
2008
1830
07C0
ENDCHAR
STARTCHAR uni24E8
ENCODING 9448
SWIDTH 960 0
DWIDTH 16 0
BBX 15 15 0 -2
BITMAP
07C0
1830
2008
4004
4004
8442
8442
8442
8282
8282
4104
4104
2608
1830
07C0
ENDCHAR
STARTCHAR uni24E9
ENCODING 9449
SWIDTH 960 0
DWIDTH 16 0
BBX 15 15 0 -2
BITMAP
07C0
1830
2008
4004
4004
87C2
8082
8102
8202
8402
47C4
4004
2008
1830
07C0
ENDCHAR
STARTCHAR uni24EA
ENCODING 9450
SWIDTH 960 0
DWIDTH 16 0
BBX 15 15 0 -2
BITMAP
07C0
1830
2008
4384
4444
8442
84C2
8542
8642
8442
4444
4384
2008
1830
07C0
ENDCHAR
STARTCHAR uni24EB
ENCODING 9451
SWIDTH 960 0
DWIDTH 16 0
BBX 15 15 0 -2
BITMAP
07C0
1FF0
3FF8
77DC
679C
F7DE
F7DE
F7DE
F7DE
F7DE
77DC
638C
3FF8
1FF0
07C0
ENDCHAR
STARTCHAR uni24EC
ENCODING 9452
SWIDTH 960 0
DWIDTH 16 0
BBX 15 15 0 -2
BITMAP
07C0
1FF0
3FF8
771C
66EC
F7EE
F7EE
F7DE
F7BE
F77E
76FC
620C
3FF8
1FF0
07C0
ENDCHAR
STARTCHAR uni24ED
ENCODING 9453
SWIDTH 960 0
DWIDTH 16 0
BBX 15 15 0 -2
BITMAP
07C0
1FF0
3FF8
771C
66EC
F7EE
F7EE
F79E
F7EE
F7EE
76EC
631C
3FF8
1FF0
07C0
ENDCHAR
STARTCHAR uni24EE
ENCODING 9454
SWIDTH 960 0
DWIDTH 16 0
BBX 15 15 0 -2
BITMAP
07C0
1FF0
3FF8
779C
675C
F75E
F75E
F6DE
F6DE
F60E
77DC
63DC
3FF8
1FF0
07C0
ENDCHAR
STARTCHAR uni24EF
ENCODING 9455
SWIDTH 960 0
DWIDTH 16 0
BBX 15 15 0 -2
BITMAP
07C0
1FF0
3FF8
760C
66FC
F6FE
F6FE
F61E
F7EE
F7EE
76EC
631C
3FF8
1FF0
07C0
ENDCHAR
STARTCHAR uni24F0
ENCODING 9456
SWIDTH 960 0
DWIDTH 16 0
BBX 15 15 0 -2
BITMAP
07C0
1FF0
3FF8
771C
66EC
F6FE
F6FE
F61E
F6EE
F6EE
76EC
631C
3FF8
1FF0
07C0
ENDCHAR
STARTCHAR uni24F1
ENCODING 9457
SWIDTH 960 0
DWIDTH 16 0
BBX 15 15 0 -2
BITMAP
07C0
1FF0
3FF8
760C
67EC
F7EE
F7DE
F7DE
F7BE
F7BE
77BC
63BC
3FF8
1FF0
07C0
ENDCHAR
STARTCHAR uni24F2
ENCODING 9458
SWIDTH 960 0
DWIDTH 16 0
BBX 15 15 0 -2
BITMAP
07C0
1FF0
3FF8
771C
66EC
F6EE
F6EE
F71E
F6EE
F6EE
76EC
631C
3FF8
1FF0
07C0
ENDCHAR
STARTCHAR uni24F3
ENCODING 9459
SWIDTH 960 0
DWIDTH 16 0
BBX 15 15 0 -2
BITMAP
07C0
1FF0
3FF8
771C
66EC
F6EE
F6EE
F70E
F7EE
F7EE
76EC
631C
3FF8
1FF0
07C0
ENDCHAR
STARTCHAR uni24F4
ENCODING 9460
SWIDTH 960 0
DWIDTH 16 0
BBX 15 15 0 -2
BITMAP
07C0
1FF0
3FF8
739C
6D6C
FD6E
FD4E
FB2E
FB6E
F76E
6F6C
619C
3FF8
1FF0
07C0
ENDCHAR
STARTCHAR uni24F5
ENCODING 9461
SWIDTH 960 0
DWIDTH 16 0
BBX 15 15 0 -2
BITMAP
07C0
1830
27C8
5834
5114
A70A
A10A
A10A
A10A
A10A
57D4
5834
27C8
1830
07C0
ENDCHAR
STARTCHAR uni24F6
ENCODING 9462
SWIDTH 960 0
DWIDTH 16 0
BBX 15 15 0 -2
BITMAP
07C0
1830
27C8
5834
5394
A44A
A04A
A18A
A20A
A40A
57D4
5834
27C8
1830
07C0
ENDCHAR
STARTCHAR uni24F7
ENCODING 9463
SWIDTH 960 0
DWIDTH 16 0
BBX 15 15 0 -2
BITMAP
07C0
1830
27C8
5834
5394
A44A
A04A
A18A
A04A
A44A
5394
5834
27C8
1830
07C0
ENDCHAR
STARTCHAR uni24F8
ENCODING 9464
SWIDTH 960 0
DWIDTH 16 0
BBX 15 15 0 -2
BITMAP
07C0
1830
27C8
5834
5194
A28A
A28A
A48A
A48A
A7CA
5094
5834
27C8
1830
07C0
ENDCHAR
STARTCHAR uni24F9
ENCODING 9465
SWIDTH 960 0
DWIDTH 16 0
BBX 15 15 0 -2
BITMAP
07C0
1830
27C8
5834
57D4
A40A
A40A
A78A
A04A
A04A
5794
5834
27C8
1830
07C0
ENDCHAR
STARTCHAR uni24FA
ENCODING 9466
SWIDTH 960 0
DWIDTH 16 0
BBX 15 15 0 -2
BITMAP
07C0
1830
27C8
5834
5394
A44A
A40A
A78A
A44A
A44A
5394
5834
27C8
1830
07C0
ENDCHAR
STARTCHAR uni24FB
ENCODING 9467
SWIDTH 960 0
DWIDTH 16 0
BBX 15 15 0 -2
BITMAP
07C0
1830
27C8
5834
57D4
A04A
A08A
A08A
A10A
A10A
5114
5834
27C8
1830
07C0
ENDCHAR
STARTCHAR uni24FC
ENCODING 9468
SWIDTH 960 0
DWIDTH 16 0
BBX 15 15 0 -2
BITMAP
07C0
1830
27C8
5834
5394
A44A
A44A
A38A
A44A
A44A
5394
5834
27C8
1830
07C0
ENDCHAR
STARTCHAR uni24FD
ENCODING 9469
SWIDTH 960 0
DWIDTH 16 0
BBX 15 15 0 -2
BITMAP
07C0
1830
27C8
5834
5394
A44A
A44A
A3CA
A04A
A44A
5394
5834
27C8
1830
07C0
ENDCHAR
STARTCHAR uni24FE
ENCODING 9470
SWIDTH 960 0
DWIDTH 16 0
BBX 15 15 0 -2
BITMAP
07C0
1830
27C8
5834
54D4
AD2A
A52A
A52A
A52A
A52A
5ED4
5834
27C8
1830
07C0
ENDCHAR
STARTCHAR uni24FF
ENCODING 9471
SWIDTH 960 0
DWIDTH 16 0
BBX 15 15 0 -2
BITMAP
07C0
1FF0
3FF8
7C7C
7BBC
FBBE
FB3E
FABE
F9BE
FBBE
7BBC
7C7C
3FF8
1FF0
07C0
ENDCHAR
STARTCHAR uni2500
ENCODING 9472
SWIDTH 960 0
DWIDTH 16 0
BBX 16 1 0 5
BITMAP
FFFF
ENDCHAR
STARTCHAR uni2501
ENCODING 9473
SWIDTH 960 0
DWIDTH 16 0
BBX 16 3 0 4
BITMAP
FFFF
FFFF
FFFF
ENDCHAR
STARTCHAR uni2502
ENCODING 9474
SWIDTH 960 0
DWIDTH 16 0
BBX 1 16 7 -2
BITMAP
80
80
80
80
80
80
80
80
80
80
80
80
80
80
80
80
ENDCHAR
STARTCHAR uni2503
ENCODING 9475
SWIDTH 960 0
DWIDTH 16 0
BBX 3 16 6 -2
BITMAP
E0
E0
E0
E0
E0
E0
E0
E0
E0
E0
E0
E0
E0
E0
E0
E0
ENDCHAR
STARTCHAR uni2504
ENCODING 9476
SWIDTH 960 0
DWIDTH 16 0
BBX 15 1 0 5
BITMAP
F7DE
ENDCHAR
STARTCHAR uni2505
ENCODING 9477
SWIDTH 960 0
DWIDTH 16 0
BBX 15 3 0 4
BITMAP
F7DE
F7DE
F7DE
ENDCHAR
STARTCHAR uni2506
ENCODING 9478
SWIDTH 960 0
DWIDTH 16 0
BBX 1 15 7 -2
BITMAP
80
80
80
80
00
80
80
80
80
80
00
80
80
80
80
ENDCHAR
STARTCHAR uni2507
ENCODING 9479
SWIDTH 960 0
DWIDTH 16 0
BBX 3 15 6 -2
BITMAP
E0
E0
E0
E0
00
E0
E0
E0
E0
E0
00
E0
E0
E0
E0
ENDCHAR
STARTCHAR uni2508
ENCODING 9480
SWIDTH 960 0
DWIDTH 16 0
BBX 15 1 0 5
BITMAP
EEEE
ENDCHAR
STARTCHAR uni2509
ENCODING 9481
SWIDTH 960 0
DWIDTH 16 0
BBX 15 3 0 4
BITMAP
EEEE
EEEE
EEEE
ENDCHAR
STARTCHAR uni250A
ENCODING 9482
SWIDTH 960 0
DWIDTH 16 0
BBX 1 15 7 -2
BITMAP
80
80
80
00
80
80
80
00
80
80
80
00
80
80
80
ENDCHAR
STARTCHAR uni250B
ENCODING 9483
SWIDTH 960 0
DWIDTH 16 0
BBX 3 15 6 -2
BITMAP
E0
E0
E0
00
E0
E0
E0
00
E0
E0
E0
00
E0
E0
E0
ENDCHAR
STARTCHAR uni250C
ENCODING 9484
SWIDTH 960 0
DWIDTH 16 0
BBX 9 8 7 -2
BITMAP
FF80
8000
8000
8000
8000
8000
8000
8000
ENDCHAR
STARTCHAR uni250D
ENCODING 9485
SWIDTH 960 0
DWIDTH 16 0
BBX 9 9 7 -2
BITMAP
FF80
FF80
FF80
8000
8000
8000
8000
8000
8000
ENDCHAR
STARTCHAR uni250E
ENCODING 9486
SWIDTH 960 0
DWIDTH 16 0
BBX 10 8 6 -2
BITMAP
FFC0
E000
E000
E000
E000
E000
E000
E000
ENDCHAR
STARTCHAR uni250F
ENCODING 9487
SWIDTH 960 0
DWIDTH 16 0
BBX 10 9 6 -2
BITMAP
FFC0
FFC0
FFC0
E000
E000
E000
E000
E000
E000
ENDCHAR
STARTCHAR uni2510
ENCODING 9488
SWIDTH 960 0
DWIDTH 16 0
BBX 8 8 0 -2
BITMAP
FF
01
01
01
01
01
01
01
ENDCHAR
STARTCHAR uni2511
ENCODING 9489
SWIDTH 960 0
DWIDTH 16 0
BBX 8 9 0 -2
BITMAP
FF
FF
FF
01
01
01
01
01
01
ENDCHAR
STARTCHAR uni2512
ENCODING 9490
SWIDTH 960 0
DWIDTH 16 0
BBX 9 8 0 -2
BITMAP
FF80
0380
0380
0380
0380
0380
0380
0380
ENDCHAR
STARTCHAR uni2513
ENCODING 9491
SWIDTH 960 0
DWIDTH 16 0
BBX 9 9 0 -2
BITMAP
FF80
FF80
FF80
0380
0380
0380
0380
0380
0380
ENDCHAR
STARTCHAR uni2514
ENCODING 9492
SWIDTH 960 0
DWIDTH 16 0
BBX 9 9 7 5
BITMAP
8000
8000
8000
8000
8000
8000
8000
8000
FF80
ENDCHAR
STARTCHAR uni2515
ENCODING 9493
SWIDTH 960 0
DWIDTH 16 0
BBX 9 10 7 4
BITMAP
8000
8000
8000
8000
8000
8000
8000
FF80
FF80
FF80
ENDCHAR
STARTCHAR uni2516
ENCODING 9494
SWIDTH 960 0
DWIDTH 16 0
BBX 10 9 6 5
BITMAP
E000
E000
E000
E000
E000
E000
E000
E000
FFC0
ENDCHAR
STARTCHAR uni2517
ENCODING 9495
SWIDTH 960 0
DWIDTH 16 0
BBX 10 10 6 4
BITMAP
E000
E000
E000
E000
E000
E000
E000
FFC0
FFC0
FFC0
ENDCHAR
STARTCHAR uni2518
ENCODING 9496
SWIDTH 960 0
DWIDTH 16 0
BBX 8 9 0 5
BITMAP
01
01
01
01
01
01
01
01
FF
ENDCHAR
STARTCHAR uni2519
ENCODING 9497
SWIDTH 960 0
DWIDTH 16 0
BBX 8 10 0 4
BITMAP
01
01
01
01
01
01
01
FF
FF
FF
ENDCHAR
STARTCHAR uni251A
ENCODING 9498
SWIDTH 960 0
DWIDTH 16 0
BBX 9 9 0 5
BITMAP
0380
0380
0380
0380
0380
0380
0380
0380
FF80
ENDCHAR
STARTCHAR uni251B
ENCODING 9499
SWIDTH 960 0
DWIDTH 16 0
BBX 9 10 0 4
BITMAP
0380
0380
0380
0380
0380
0380
0380
FF80
FF80
FF80
ENDCHAR
STARTCHAR uni251C
ENCODING 9500
SWIDTH 960 0
DWIDTH 16 0
BBX 9 16 7 -2
BITMAP
8000
8000
8000
8000
8000
8000
8000
8000
FF80
8000
8000
8000
8000
8000
8000
8000
ENDCHAR
STARTCHAR uni251D
ENCODING 9501
SWIDTH 960 0
DWIDTH 16 0
BBX 9 16 7 -2
BITMAP
8000
8000
8000
8000
8000
8000
8000
FF80
FF80
FF80
8000
8000
8000
8000
8000
8000
ENDCHAR
STARTCHAR uni251E
ENCODING 9502
SWIDTH 960 0
DWIDTH 16 0
BBX 10 16 6 -2
BITMAP
E000
E000
E000
E000
E000
E000
E000
E000
FFC0
4000
4000
4000
4000
4000
4000
4000
ENDCHAR
STARTCHAR uni251F
ENCODING 9503
SWIDTH 960 0
DWIDTH 16 0
BBX 10 16 6 -2
BITMAP
4000
4000
4000
4000
4000
4000
4000
4000
FFC0
E000
E000
E000
E000
E000
E000
E000
ENDCHAR
STARTCHAR uni2520
ENCODING 9504
SWIDTH 960 0
DWIDTH 16 0
BBX 10 16 6 -2
BITMAP
E000
E000
E000
E000
E000
E000
E000
E000
FFC0
E000
E000
E000
E000
E000
E000
E000
ENDCHAR
STARTCHAR uni2521
ENCODING 9505
SWIDTH 960 0
DWIDTH 16 0
BBX 10 16 6 -2
BITMAP
E000
E000
E000
E000
E000
E000
E000
FFC0
FFC0
FFC0
4000
4000
4000
4000
4000
4000
ENDCHAR
STARTCHAR uni2522
ENCODING 9506
SWIDTH 960 0
DWIDTH 16 0
BBX 10 16 6 -2
BITMAP
4000
4000
4000
4000
4000
4000
4000
FFC0
FFC0
FFC0
E000
E000
E000
E000
E000
E000
ENDCHAR
STARTCHAR uni2523
ENCODING 9507
SWIDTH 960 0
DWIDTH 16 0
BBX 10 16 6 -2
BITMAP
E000
E000
E000
E000
E000
E000
E000
FFC0
FFC0
FFC0
E000
E000
E000
E000
E000
E000
ENDCHAR
STARTCHAR uni2524
ENCODING 9508
SWIDTH 960 0
DWIDTH 16 0
BBX 8 16 0 -2
BITMAP
01
01
01
01
01
01
01
01
FF
01
01
01
01
01
01
01
ENDCHAR
STARTCHAR uni2525
ENCODING 9509
SWIDTH 960 0
DWIDTH 16 0
BBX 8 16 0 -2
BITMAP
01
01
01
01
01
01
01
FF
FF
FF
01
01
01
01
01
01
ENDCHAR
STARTCHAR uni2526
ENCODING 9510
SWIDTH 960 0
DWIDTH 16 0
BBX 9 16 0 -2
BITMAP
0380
0380
0380
0380
0380
0380
0380
0380
FF80
0100
0100
0100
0100
0100
0100
0100
ENDCHAR
STARTCHAR uni2527
ENCODING 9511
SWIDTH 960 0
DWIDTH 16 0
BBX 9 16 0 -2
BITMAP
0100
0100
0100
0100
0100
0100
0100
0100
FF80
0380
0380
0380
0380
0380
0380
0380
ENDCHAR
STARTCHAR uni2528
ENCODING 9512
SWIDTH 960 0
DWIDTH 16 0
BBX 9 16 0 -2
BITMAP
0380
0380
0380
0380
0380
0380
0380
0380
FF80
0380
0380
0380
0380
0380
0380
0380
ENDCHAR
STARTCHAR uni2529
ENCODING 9513
SWIDTH 960 0
DWIDTH 16 0
BBX 9 16 0 -2
BITMAP
0380
0380
0380
0380
0380
0380
0380
FF80
FF80
FF80
0100
0100
0100
0100
0100
0100
ENDCHAR
STARTCHAR uni252A
ENCODING 9514
SWIDTH 960 0
DWIDTH 16 0
BBX 9 16 0 -2
BITMAP
0100
0100
0100
0100
0100
0100
0100
FF80
FF80
FF80
0380
0380
0380
0380
0380
0380
ENDCHAR
STARTCHAR uni252B
ENCODING 9515
SWIDTH 960 0
DWIDTH 16 0
BBX 9 16 0 -2
BITMAP
0380
0380
0380
0380
0380
0380
0380
FF80
FF80
FF80
0380
0380
0380
0380
0380
0380
ENDCHAR
STARTCHAR uni252C
ENCODING 9516
SWIDTH 960 0
DWIDTH 16 0
BBX 16 8 0 -2
BITMAP
FFFF
0100
0100
0100
0100
0100
0100
0100
ENDCHAR
STARTCHAR uni252D
ENCODING 9517
SWIDTH 960 0
DWIDTH 16 0
BBX 16 9 0 -2
BITMAP
FF00
FFFF
FF00
0100
0100
0100
0100
0100
0100
ENDCHAR
STARTCHAR uni252E
ENCODING 9518
SWIDTH 960 0
DWIDTH 16 0
BBX 16 9 0 -2
BITMAP
01FF
FFFF
01FF
0100
0100
0100
0100
0100
0100
ENDCHAR
STARTCHAR uni252F
ENCODING 9519
SWIDTH 960 0
DWIDTH 16 0
BBX 16 9 0 -2
BITMAP
FFFF
FFFF
FFFF
0100
0100
0100
0100
0100
0100
ENDCHAR
STARTCHAR uni2530
ENCODING 9520
SWIDTH 960 0
DWIDTH 16 0
BBX 16 8 0 -2
BITMAP
FFFF
0380
0380
0380
0380
0380
0380
0380
ENDCHAR
STARTCHAR uni2531
ENCODING 9521
SWIDTH 960 0
DWIDTH 16 0
BBX 16 9 0 -2
BITMAP
FF80
FFFF
FF80
0380
0380
0380
0380
0380
0380
ENDCHAR
STARTCHAR uni2532
ENCODING 9522
SWIDTH 960 0
DWIDTH 16 0
BBX 16 9 0 -2
BITMAP
03FF
FFFF
03FF
0380
0380
0380
0380
0380
0380
ENDCHAR
STARTCHAR uni2533
ENCODING 9523
SWIDTH 960 0
DWIDTH 16 0
BBX 16 9 0 -2
BITMAP
FFFF
FFFF
FFFF
0380
0380
0380
0380
0380
0380
ENDCHAR
STARTCHAR uni2534
ENCODING 9524
SWIDTH 960 0
DWIDTH 16 0
BBX 16 9 0 5
BITMAP
0100
0100
0100
0100
0100
0100
0100
0100
FFFF
ENDCHAR
STARTCHAR uni2535
ENCODING 9525
SWIDTH 960 0
DWIDTH 16 0
BBX 16 10 0 4
BITMAP
0100
0100
0100
0100
0100
0100
0100
FF00
FFFF
FF00
ENDCHAR
STARTCHAR uni2536
ENCODING 9526
SWIDTH 960 0
DWIDTH 16 0
BBX 16 10 0 4
BITMAP
0100
0100
0100
0100
0100
0100
0100
01FF
FFFF
01FF
ENDCHAR
STARTCHAR uni2537
ENCODING 9527
SWIDTH 960 0
DWIDTH 16 0
BBX 16 10 0 4
BITMAP
0100
0100
0100
0100
0100
0100
0100
FFFF
FFFF
FFFF
ENDCHAR
STARTCHAR uni2538
ENCODING 9528
SWIDTH 960 0
DWIDTH 16 0
BBX 16 9 0 5
BITMAP
0380
0380
0380
0380
0380
0380
0380
0380
FFFF
ENDCHAR
STARTCHAR uni2539
ENCODING 9529
SWIDTH 960 0
DWIDTH 16 0
BBX 16 10 0 4
BITMAP
0380
0380
0380
0380
0380
0380
0380
FF80
FFFF
FF80
ENDCHAR
STARTCHAR uni253A
ENCODING 9530
SWIDTH 960 0
DWIDTH 16 0
BBX 16 10 0 4
BITMAP
0380
0380
0380
0380
0380
0380
0380
03FF
FFFF
03FF
ENDCHAR
STARTCHAR uni253B
ENCODING 9531
SWIDTH 960 0
DWIDTH 16 0
BBX 16 10 0 4
BITMAP
0380
0380
0380
0380
0380
0380
0380
FFFF
FFFF
FFFF
ENDCHAR
STARTCHAR uni253C
ENCODING 9532
SWIDTH 960 0
DWIDTH 16 0
BBX 16 16 0 -2
BITMAP
0100
0100
0100
0100
0100
0100
0100
0100
FFFF
0100
0100
0100
0100
0100
0100
0100
ENDCHAR
STARTCHAR uni253D
ENCODING 9533
SWIDTH 960 0
DWIDTH 16 0
BBX 16 16 0 -2
BITMAP
0100
0100
0100
0100
0100
0100
0100
FF00
FFFF
FF00
0100
0100
0100
0100
0100
0100
ENDCHAR
STARTCHAR uni253E
ENCODING 9534
SWIDTH 960 0
DWIDTH 16 0
BBX 16 16 0 -2
BITMAP
0100
0100
0100
0100
0100
0100
0100
01FF
FFFF
01FF
0100
0100
0100
0100
0100
0100
ENDCHAR
STARTCHAR uni253F
ENCODING 9535
SWIDTH 960 0
DWIDTH 16 0
BBX 16 16 0 -2
BITMAP
0100
0100
0100
0100
0100
0100
0100
FFFF
FFFF
FFFF
0100
0100
0100
0100
0100
0100
ENDCHAR
STARTCHAR uni2540
ENCODING 9536
SWIDTH 960 0
DWIDTH 16 0
BBX 16 16 0 -2
BITMAP
0380
0380
0380
0380
0380
0380
0380
0380
FFFF
0100
0100
0100
0100
0100
0100
0100
ENDCHAR
STARTCHAR uni2541
ENCODING 9537
SWIDTH 960 0
DWIDTH 16 0
BBX 16 16 0 -2
BITMAP
0100
0100
0100
0100
0100
0100
0100
0100
FFFF
0380
0380
0380
0380
0380
0380
0380
ENDCHAR
STARTCHAR uni2542
ENCODING 9538
SWIDTH 960 0
DWIDTH 16 0
BBX 16 16 0 -2
BITMAP
0380
0380
0380
0380
0380
0380
0380
0380
FFFF
0380
0380
0380
0380
0380
0380
0380
ENDCHAR
STARTCHAR uni2543
ENCODING 9539
SWIDTH 960 0
DWIDTH 16 0
BBX 16 16 0 -2
BITMAP
0380
0380
0380
0380
0380
0380
0380
FF80
FFFF
FF80
0100
0100
0100
0100
0100
0100
ENDCHAR
STARTCHAR uni2544
ENCODING 9540
SWIDTH 960 0
DWIDTH 16 0
BBX 16 16 0 -2
BITMAP
0380
0380
0380
0380
0380
0380
0380
03FF
FFFF
03FF
0100
0100
0100
0100
0100
0100
ENDCHAR
STARTCHAR uni2545
ENCODING 9541
SWIDTH 960 0
DWIDTH 16 0
BBX 16 16 0 -2
BITMAP
0100
0100
0100
0100
0100
0100
0100
FF80
FFFF
FF80
0380
0380
0380
0380
0380
0380
ENDCHAR
STARTCHAR uni2546
ENCODING 9542
SWIDTH 960 0
DWIDTH 16 0
BBX 16 16 0 -2
BITMAP
0100
0100
0100
0100
0100
0100
0100
03FF
FFFF
03FF
0380
0380
0380
0380
0380
0380
ENDCHAR
STARTCHAR uni2547
ENCODING 9543
SWIDTH 960 0
DWIDTH 16 0
BBX 16 16 0 -2
BITMAP
0380
0380
0380
0380
0380
0380
0380
FFFF
FFFF
FFFF
0100
0100
0100
0100
0100
0100
ENDCHAR
STARTCHAR uni2548
ENCODING 9544
SWIDTH 960 0
DWIDTH 16 0
BBX 16 16 0 -2
BITMAP
0100
0100
0100
0100
0100
0100
0100
FFFF
FFFF
FFFF
0380
0380
0380
0380
0380
0380
ENDCHAR
STARTCHAR uni2549
ENCODING 9545
SWIDTH 960 0
DWIDTH 16 0
BBX 16 16 0 -2
BITMAP
0380
0380
0380
0380
0380
0380
0380
FF80
FFFF
FF80
0380
0380
0380
0380
0380
0380
ENDCHAR
STARTCHAR uni254A
ENCODING 9546
SWIDTH 960 0
DWIDTH 16 0
BBX 16 16 0 -2
BITMAP
0380
0380
0380
0380
0380
0380
0380
03FF
FFFF
03FF
0380
0380
0380
0380
0380
0380
ENDCHAR
STARTCHAR uni254B
ENCODING 9547
SWIDTH 960 0
DWIDTH 16 0
BBX 16 16 0 -2
BITMAP
0380
0380
0380
0380
0380
0380
0380
FFFF
FFFF
FFFF
0380
0380
0380
0380
0380
0380
ENDCHAR
STARTCHAR uni254C
ENCODING 9548
SWIDTH 960 0
DWIDTH 16 0
BBX 14 1 1 5
BITMAP
FCFC
ENDCHAR
STARTCHAR uni254D
ENCODING 9549
SWIDTH 960 0
DWIDTH 16 0
BBX 14 3 1 4
BITMAP
FCFC
FCFC
FCFC
ENDCHAR
STARTCHAR uni254E
ENCODING 9550
SWIDTH 960 0
DWIDTH 16 0
BBX 1 14 7 -1
BITMAP
80
80
80
80
80
80
00
00
80
80
80
80
80
80
ENDCHAR
STARTCHAR uni254F
ENCODING 9551
SWIDTH 960 0
DWIDTH 16 0
BBX 3 14 6 -1
BITMAP
E0
E0
E0
E0
E0
E0
00
00
E0
E0
E0
E0
E0
E0
ENDCHAR
STARTCHAR uni2550
ENCODING 9552
SWIDTH 960 0
DWIDTH 16 0
BBX 16 3 0 4
BITMAP
FFFF
0000
FFFF
ENDCHAR
STARTCHAR uni2551
ENCODING 9553
SWIDTH 960 0
DWIDTH 16 0
BBX 3 16 6 -2
BITMAP
A0
A0
A0
A0
A0
A0
A0
A0
A0
A0
A0
A0
A0
A0
A0
A0
ENDCHAR
STARTCHAR uni2552
ENCODING 9554
SWIDTH 960 0
DWIDTH 16 0
BBX 9 9 7 -2
BITMAP
FF80
8000
FF80
8000
8000
8000
8000
8000
8000
ENDCHAR
STARTCHAR uni2553
ENCODING 9555
SWIDTH 960 0
DWIDTH 16 0
BBX 10 8 6 -2
BITMAP
FFC0
A000
A000
A000
A000
A000
A000
A000
ENDCHAR
STARTCHAR uni2554
ENCODING 9556
SWIDTH 960 0
DWIDTH 16 0
BBX 10 9 6 -2
BITMAP
FFC0
8000
BFC0
A000
A000
A000
A000
A000
A000
ENDCHAR
STARTCHAR uni2555
ENCODING 9557
SWIDTH 960 0
DWIDTH 16 0
BBX 8 9 0 -2
BITMAP
FF
01
FF
01
01
01
01
01
01
ENDCHAR
STARTCHAR uni2556
ENCODING 9558
SWIDTH 960 0
DWIDTH 16 0
BBX 9 8 0 -2
BITMAP
FF80
0280
0280
0280
0280
0280
0280
0280
ENDCHAR
STARTCHAR uni2557
ENCODING 9559
SWIDTH 960 0
DWIDTH 16 0
BBX 9 9 0 -2
BITMAP
FF80
0080
FE80
0280
0280
0280
0280
0280
0280
ENDCHAR
STARTCHAR uni2558
ENCODING 9560
SWIDTH 960 0
DWIDTH 16 0
BBX 9 10 7 4
BITMAP
8000
8000
8000
8000
8000
8000
8000
FF80
8000
FF80
ENDCHAR
STARTCHAR uni2559
ENCODING 9561
SWIDTH 960 0
DWIDTH 16 0
BBX 10 9 6 5
BITMAP
A000
A000
A000
A000
A000
A000
A000
A000
FFC0
ENDCHAR
STARTCHAR uni255A
ENCODING 9562
SWIDTH 960 0
DWIDTH 16 0
BBX 10 10 6 4
BITMAP
A000
A000
A000
A000
A000
A000
A000
BFC0
8000
FFC0
ENDCHAR
STARTCHAR uni255B
ENCODING 9563
SWIDTH 960 0
DWIDTH 16 0
BBX 8 10 0 4
BITMAP
01
01
01
01
01
01
01
FF
01
FF
ENDCHAR
STARTCHAR uni255C
ENCODING 9564
SWIDTH 960 0
DWIDTH 16 0
BBX 9 9 0 5
BITMAP
0280
0280
0280
0280
0280
0280
0280
0280
FF80
ENDCHAR
STARTCHAR uni255D
ENCODING 9565
SWIDTH 960 0
DWIDTH 16 0
BBX 9 10 0 4
BITMAP
0280
0280
0280
0280
0280
0280
0280
FE80
0080
FF80
ENDCHAR
STARTCHAR uni255E
ENCODING 9566
SWIDTH 960 0
DWIDTH 16 0
BBX 9 16 7 -2
BITMAP
8000
8000
8000
8000
8000
8000
8000
FF80
8000
FF80
8000
8000
8000
8000
8000
8000
ENDCHAR
STARTCHAR uni255F
ENCODING 9567
SWIDTH 960 0
DWIDTH 16 0
BBX 10 16 6 -2
BITMAP
A000
A000
A000
A000
A000
A000
A000
A000
BFC0
A000
A000
A000
A000
A000
A000
A000
ENDCHAR
STARTCHAR uni2560
ENCODING 9568
SWIDTH 960 0
DWIDTH 16 0
BBX 10 16 6 -2
BITMAP
A000
A000
A000
A000
A000
A000
A000
BFC0
8000
BFC0
A000
A000
A000
A000
A000
A000
ENDCHAR
STARTCHAR uni2561
ENCODING 9569
SWIDTH 960 0
DWIDTH 16 0
BBX 8 16 0 -2
BITMAP
01
01
01
01
01
01
01
FF
01
FF
01
01
01
01
01
01
ENDCHAR
STARTCHAR uni2562
ENCODING 9570
SWIDTH 960 0
DWIDTH 16 0
BBX 9 16 0 -2
BITMAP
0280
0280
0280
0280
0280
0280
0280
0280
FE80
0280
0280
0280
0280
0280
0280
0280
ENDCHAR
STARTCHAR uni2563
ENCODING 9571
SWIDTH 960 0
DWIDTH 16 0
BBX 9 16 0 -2
BITMAP
0280
0280
0280
0280
0280
0280
0280
FE80
0080
FE80
0280
0280
0280
0280
0280
0280
ENDCHAR
STARTCHAR uni2564
ENCODING 9572
SWIDTH 960 0
DWIDTH 16 0
BBX 16 9 0 -2
BITMAP
FFFF
0000
FFFF
0100
0100
0100
0100
0100
0100
ENDCHAR
STARTCHAR uni2565
ENCODING 9573
SWIDTH 960 0
DWIDTH 16 0
BBX 16 8 0 -2
BITMAP
FFFF
0280
0280
0280
0280
0280
0280
0280
ENDCHAR
STARTCHAR uni2566
ENCODING 9574
SWIDTH 960 0
DWIDTH 16 0
BBX 16 9 0 -2
BITMAP
FFFF
0000
FEFF
0280
0280
0280
0280
0280
0280
ENDCHAR
STARTCHAR uni2567
ENCODING 9575
SWIDTH 960 0
DWIDTH 16 0
BBX 16 10 0 4
BITMAP
0100
0100
0100
0100
0100
0100
0100
FFFF
0000
FFFF
ENDCHAR
STARTCHAR uni2568
ENCODING 9576
SWIDTH 960 0
DWIDTH 16 0
BBX 16 9 0 5
BITMAP
0280
0280
0280
0280
0280
0280
0280
0280
FFFF
ENDCHAR
STARTCHAR uni2569
ENCODING 9577
SWIDTH 960 0
DWIDTH 16 0
BBX 16 10 0 4
BITMAP
0280
0280
0280
0280
0280
0280
0280
FEFF
0000
FFFF
ENDCHAR
STARTCHAR uni256A
ENCODING 9578
SWIDTH 960 0
DWIDTH 16 0
BBX 16 16 0 -2
BITMAP
0100
0100
0100
0100
0100
0100
0100
FFFF
0100
FFFF
0100
0100
0100
0100
0100
0100
ENDCHAR
STARTCHAR uni256B
ENCODING 9579
SWIDTH 960 0
DWIDTH 16 0
BBX 16 16 0 -2
BITMAP
0280
0280
0280
0280
0280
0280
0280
0280
FFFF
0280
0280
0280
0280
0280
0280
0280
ENDCHAR
STARTCHAR uni256C
ENCODING 9580
SWIDTH 960 0
DWIDTH 16 0
BBX 16 16 0 -2
BITMAP
0280
0280
0280
0280
0280
0280
0280
FEFF
0000
FEFF
0280
0280
0280
0280
0280
0280
ENDCHAR
STARTCHAR uni256D
ENCODING 9581
SWIDTH 960 0
DWIDTH 16 0
BBX 9 8 7 -2
BITMAP
0380
0C00
1000
2000
4000
4000
8000
8000
ENDCHAR
STARTCHAR uni256E
ENCODING 9582
SWIDTH 960 0
DWIDTH 16 0
BBX 8 8 0 -2
BITMAP
C0
30
08
04
02
02
01
01
ENDCHAR
STARTCHAR uni256F
ENCODING 9583
SWIDTH 960 0
DWIDTH 16 0
BBX 8 9 0 5
BITMAP
01
01
01
02
02
04
08
30
C0
ENDCHAR
STARTCHAR uni2570
ENCODING 9584
SWIDTH 960 0
DWIDTH 16 0
BBX 9 9 7 5
BITMAP
8000
8000
8000
4000
4000
2000
1000
0C00
0380
ENDCHAR
STARTCHAR uni2571
ENCODING 9585
SWIDTH 960 0
DWIDTH 16 0
BBX 16 16 0 -2
BITMAP
0001
0002
0004
0008
0010
0020
0040
0080
0100
0200
0400
0800
1000
2000
4000
8000
ENDCHAR
STARTCHAR uni2572
ENCODING 9586
SWIDTH 960 0
DWIDTH 16 0
BBX 16 16 0 -2
BITMAP
8000
4000
2000
1000
0800
0400
0200
0100
0080
0040
0020
0010
0008
0004
0002
0001
ENDCHAR
STARTCHAR uni2573
ENCODING 9587
SWIDTH 960 0
DWIDTH 16 0
BBX 16 16 0 -2
BITMAP
8001
4002
2004
1008
0810
0420
0240
0180
0180
0240
0420
0810
1008
2004
4002
8001
ENDCHAR
STARTCHAR uni2574
ENCODING 9588
SWIDTH 960 0
DWIDTH 16 0
BBX 8 1 0 5
BITMAP
FF
ENDCHAR
STARTCHAR uni2575
ENCODING 9589
SWIDTH 960 0
DWIDTH 16 0
BBX 1 9 7 5
BITMAP
80
80
80
80
80
80
80
80
80
ENDCHAR
STARTCHAR uni2576
ENCODING 9590
SWIDTH 960 0
DWIDTH 16 0
BBX 9 1 7 5
BITMAP
FF80
ENDCHAR
STARTCHAR uni2577
ENCODING 9591
SWIDTH 960 0
DWIDTH 16 0
BBX 1 8 7 -2
BITMAP
80
80
80
80
80
80
80
80
ENDCHAR
STARTCHAR uni2578
ENCODING 9592
SWIDTH 960 0
DWIDTH 16 0
BBX 8 3 0 4
BITMAP
FF
FF
FF
ENDCHAR
STARTCHAR uni2579
ENCODING 9593
SWIDTH 960 0
DWIDTH 16 0
BBX 3 9 6 5
BITMAP
E0
E0
E0
E0
E0
E0
E0
E0
E0
ENDCHAR
STARTCHAR uni257A
ENCODING 9594
SWIDTH 960 0
DWIDTH 16 0
BBX 9 3 7 4
BITMAP
FF80
FF80
FF80
ENDCHAR
STARTCHAR uni257B
ENCODING 9595
SWIDTH 960 0
DWIDTH 16 0
BBX 3 8 6 -2
BITMAP
E0
E0
E0
E0
E0
E0
E0
E0
ENDCHAR
STARTCHAR uni257C
ENCODING 9596
SWIDTH 960 0
DWIDTH 16 0
BBX 16 3 0 4
BITMAP
01FF
FFFF
01FF
ENDCHAR
STARTCHAR uni257D
ENCODING 9597
SWIDTH 960 0
DWIDTH 16 0
BBX 3 16 6 -2
BITMAP
40
40
40
40
40
40
40
40
E0
E0
E0
E0
E0
E0
E0
E0
ENDCHAR
STARTCHAR uni257E
ENCODING 9598
SWIDTH 960 0
DWIDTH 16 0
BBX 16 3 0 4
BITMAP
FF00
FFFF
FF00
ENDCHAR
STARTCHAR uni257F
ENCODING 9599
SWIDTH 960 0
DWIDTH 16 0
BBX 3 16 6 -2
BITMAP
E0
E0
E0
E0
E0
E0
E0
E0
E0
40
40
40
40
40
40
40
ENDCHAR
STARTCHAR uni2580
ENCODING 9600
SWIDTH 960 0
DWIDTH 16 0
BBX 16 8 0 6
BITMAP
FFFF
FFFF
FFFF
FFFF
FFFF
FFFF
FFFF
FFFF
ENDCHAR
STARTCHAR uni2581
ENCODING 9601
SWIDTH 960 0
DWIDTH 16 0
BBX 16 2 0 -2
BITMAP
FFFF
FFFF
ENDCHAR
STARTCHAR uni2582
ENCODING 9602
SWIDTH 960 0
DWIDTH 16 0
BBX 16 4 0 -2
BITMAP
FFFF
FFFF
FFFF
FFFF
ENDCHAR
STARTCHAR uni2583
ENCODING 9603
SWIDTH 960 0
DWIDTH 16 0
BBX 16 6 0 -2
BITMAP
FFFF
FFFF
FFFF
FFFF
FFFF
FFFF
ENDCHAR
STARTCHAR uni2584
ENCODING 9604
SWIDTH 960 0
DWIDTH 16 0
BBX 16 8 0 -2
BITMAP
FFFF
FFFF
FFFF
FFFF
FFFF
FFFF
FFFF
FFFF
ENDCHAR
STARTCHAR uni2585
ENCODING 9605
SWIDTH 960 0
DWIDTH 16 0
BBX 16 10 0 -2
BITMAP
FFFF
FFFF
FFFF
FFFF
FFFF
FFFF
FFFF
FFFF
FFFF
FFFF
ENDCHAR
STARTCHAR uni2586
ENCODING 9606
SWIDTH 960 0
DWIDTH 16 0
BBX 16 12 0 -2
BITMAP
FFFF
FFFF
FFFF
FFFF
FFFF
FFFF
FFFF
FFFF
FFFF
FFFF
FFFF
FFFF
ENDCHAR
STARTCHAR uni2587
ENCODING 9607
SWIDTH 960 0
DWIDTH 16 0
BBX 16 14 0 -2
BITMAP
FFFF
FFFF
FFFF
FFFF
FFFF
FFFF
FFFF
FFFF
FFFF
FFFF
FFFF
FFFF
FFFF
FFFF
ENDCHAR
STARTCHAR uni2588
ENCODING 9608
SWIDTH 960 0
DWIDTH 16 0
BBX 16 16 0 -2
BITMAP
FFFF
FFFF
FFFF
FFFF
FFFF
FFFF
FFFF
FFFF
FFFF
FFFF
FFFF
FFFF
FFFF
FFFF
FFFF
FFFF
ENDCHAR
STARTCHAR uni2589
ENCODING 9609
SWIDTH 960 0
DWIDTH 16 0
BBX 14 16 0 -2
BITMAP
FFFC
FFFC
FFFC
FFFC
FFFC
FFFC
FFFC
FFFC
FFFC
FFFC
FFFC
FFFC
FFFC
FFFC
FFFC
FFFC
ENDCHAR
STARTCHAR uni258A
ENCODING 9610
SWIDTH 960 0
DWIDTH 16 0
BBX 12 16 0 -2
BITMAP
FFF0
FFF0
FFF0
FFF0
FFF0
FFF0
FFF0
FFF0
FFF0
FFF0
FFF0
FFF0
FFF0
FFF0
FFF0
FFF0
ENDCHAR
STARTCHAR uni258B
ENCODING 9611
SWIDTH 960 0
DWIDTH 16 0
BBX 10 16 0 -2
BITMAP
FFC0
FFC0
FFC0
FFC0
FFC0
FFC0
FFC0
FFC0
FFC0
FFC0
FFC0
FFC0
FFC0
FFC0
FFC0
FFC0
ENDCHAR
STARTCHAR uni258C
ENCODING 9612
SWIDTH 960 0
DWIDTH 16 0
BBX 8 16 0 -2
BITMAP
FF
FF
FF
FF
FF
FF
FF
FF
FF
FF
FF
FF
FF
FF
FF
FF
ENDCHAR
STARTCHAR uni258D
ENCODING 9613
SWIDTH 960 0
DWIDTH 16 0
BBX 6 16 0 -2
BITMAP
FC
FC
FC
FC
FC
FC
FC
FC
FC
FC
FC
FC
FC
FC
FC
FC
ENDCHAR
STARTCHAR uni258E
ENCODING 9614
SWIDTH 960 0
DWIDTH 16 0
BBX 4 16 0 -2
BITMAP
F0
F0
F0
F0
F0
F0
F0
F0
F0
F0
F0
F0
F0
F0
F0
F0
ENDCHAR
STARTCHAR uni258F
ENCODING 9615
SWIDTH 960 0
DWIDTH 16 0
BBX 2 16 0 -2
BITMAP
C0
C0
C0
C0
C0
C0
C0
C0
C0
C0
C0
C0
C0
C0
C0
C0
ENDCHAR
STARTCHAR uni2590
ENCODING 9616
SWIDTH 960 0
DWIDTH 16 0
BBX 8 16 8 -2
BITMAP
FF
FF
FF
FF
FF
FF
FF
FF
FF
FF
FF
FF
FF
FF
FF
FF
ENDCHAR
STARTCHAR uni2591
ENCODING 9617
SWIDTH 960 0
DWIDTH 16 0
BBX 15 15 0 -1
BITMAP
AAAA
0000
AAAA
0000
AAAA
0000
AAAA
0000
AAAA
0000
AAAA
0000
AAAA
0000
AAAA
ENDCHAR
STARTCHAR uni2592
ENCODING 9618
SWIDTH 960 0
DWIDTH 16 0
BBX 16 16 0 -2
BITMAP
AAAA
5555
AAAA
5555
AAAA
5555
AAAA
5555
AAAA
5555
AAAA
5555
AAAA
5555
AAAA
5555
ENDCHAR
STARTCHAR uni2593
ENCODING 9619
SWIDTH 960 0
DWIDTH 16 0
BBX 16 16 0 -2
BITMAP
FFFF
AAAA
FFFF
AAAA
FFFF
AAAA
FFFF
AAAA
FFFF
AAAA
FFFF
AAAA
FFFF
AAAA
FFFF
AAAA
ENDCHAR
STARTCHAR uni2594
ENCODING 9620
SWIDTH 960 0
DWIDTH 16 0
BBX 16 2 0 12
BITMAP
FFFF
FFFF
ENDCHAR
STARTCHAR uni2595
ENCODING 9621
SWIDTH 960 0
DWIDTH 16 0
BBX 2 16 14 -2
BITMAP
C0
C0
C0
C0
C0
C0
C0
C0
C0
C0
C0
C0
C0
C0
C0
C0
ENDCHAR
STARTCHAR uni2596
ENCODING 9622
SWIDTH 960 0
DWIDTH 16 0
BBX 8 8 0 -2
BITMAP
FF
FF
FF
FF
FF
FF
FF
FF
ENDCHAR
STARTCHAR uni2597
ENCODING 9623
SWIDTH 960 0
DWIDTH 16 0
BBX 8 8 8 -2
BITMAP
FF
FF
FF
FF
FF
FF
FF
FF
ENDCHAR
STARTCHAR uni2598
ENCODING 9624
SWIDTH 960 0
DWIDTH 16 0
BBX 8 8 0 6
BITMAP
FF
FF
FF
FF
FF
FF
FF
FF
ENDCHAR
STARTCHAR uni2599
ENCODING 9625
SWIDTH 960 0
DWIDTH 16 0
BBX 16 16 0 -2
BITMAP
FF00
FF00
FF00
FF00
FF00
FF00
FF00
FF00
FFFF
FFFF
FFFF
FFFF
FFFF
FFFF
FFFF
FFFF
ENDCHAR
STARTCHAR uni259A
ENCODING 9626
SWIDTH 960 0
DWIDTH 16 0
BBX 16 16 0 -2
BITMAP
FF00
FF00
FF00
FF00
FF00
FF00
FF00
FF00
00FF
00FF
00FF
00FF
00FF
00FF
00FF
00FF
ENDCHAR
STARTCHAR uni259B
ENCODING 9627
SWIDTH 960 0
DWIDTH 16 0
BBX 16 16 0 -2
BITMAP
FFFF
FFFF
FFFF
FFFF
FFFF
FFFF
FFFF
FFFF
FF00
FF00
FF00
FF00
FF00
FF00
FF00
FF00
ENDCHAR
STARTCHAR uni259C
ENCODING 9628
SWIDTH 960 0
DWIDTH 16 0
BBX 16 16 0 -2
BITMAP
FFFF
FFFF
FFFF
FFFF
FFFF
FFFF
FFFF
FFFF
00FF
00FF
00FF
00FF
00FF
00FF
00FF
00FF
ENDCHAR
STARTCHAR uni259D
ENCODING 9629
SWIDTH 960 0
DWIDTH 16 0
BBX 8 8 8 6
BITMAP
FF
FF
FF
FF
FF
FF
FF
FF
ENDCHAR
STARTCHAR uni259E
ENCODING 9630
SWIDTH 960 0
DWIDTH 16 0
BBX 16 16 0 -2
BITMAP
00FF
00FF
00FF
00FF
00FF
00FF
00FF
00FF
FF00
FF00
FF00
FF00
FF00
FF00
FF00
FF00
ENDCHAR
STARTCHAR uni259F
ENCODING 9631
SWIDTH 960 0
DWIDTH 16 0
BBX 16 16 0 -2
BITMAP
00FF
00FF
00FF
00FF
00FF
00FF
00FF
00FF
FFFF
FFFF
FFFF
FFFF
FFFF
FFFF
FFFF
FFFF
ENDCHAR
STARTCHAR uni25A0
ENCODING 9632
SWIDTH 960 0
DWIDTH 16 0
BBX 13 13 1 -1
BITMAP
FFF8
FFF8
FFF8
FFF8
FFF8
FFF8
FFF8
FFF8
FFF8
FFF8
FFF8
FFF8
FFF8
ENDCHAR
STARTCHAR uni25A1
ENCODING 9633
SWIDTH 960 0
DWIDTH 16 0
BBX 13 13 1 -1
BITMAP
FFF8
8008
8008
8008
8008
8008
8008
8008
8008
8008
8008
8008
FFF8
ENDCHAR
STARTCHAR uni25A2
ENCODING 9634
SWIDTH 960 0
DWIDTH 16 0
BBX 13 13 1 -1
BITMAP
3FE0
4010
8008
8008
8008
8008
8008
8008
8008
8008
8008
4010
3FE0
ENDCHAR
STARTCHAR uni25A3
ENCODING 9635
SWIDTH 960 0
DWIDTH 16 0
BBX 13 13 1 -1
BITMAP
FFF8
8008
8008
9FC8
9FC8
9FC8
9FC8
9FC8
9FC8
9FC8
8008
8008
FFF8
ENDCHAR
STARTCHAR uni25A4
ENCODING 9636
SWIDTH 960 0
DWIDTH 16 0
BBX 13 13 1 -1
BITMAP
FFF8
8008
FFF8
8008
FFF8
8008
FFF8
8008
FFF8
8008
FFF8
8008
FFF8
ENDCHAR
STARTCHAR uni25A5
ENCODING 9637
SWIDTH 960 0
DWIDTH 16 0
BBX 13 13 1 -1
BITMAP
FFF8
AAA8
AAA8
AAA8
AAA8
AAA8
AAA8
AAA8
AAA8
AAA8
AAA8
AAA8
FFF8
ENDCHAR
STARTCHAR uni25A6
ENCODING 9638
SWIDTH 960 0
DWIDTH 16 0
BBX 13 13 1 -1
BITMAP
FFF8
AAA8
FFF8
AAA8
FFF8
AAA8
FFF8
AAA8
FFF8
AAA8
FFF8
AAA8
FFF8
ENDCHAR
STARTCHAR uni25A7
ENCODING 9639
SWIDTH 960 0
DWIDTH 16 0
BBX 13 13 1 -1
BITMAP
FFF8
C928
A498
9248
C928
A498
9248
C928
A498
9248
C928
A498
FFF8
ENDCHAR
STARTCHAR uni25A8
ENCODING 9640
SWIDTH 960 0
DWIDTH 16 0
BBX 13 13 1 -1
BITMAP
FFF8
A498
C928
9248
A498
C928
9248
A498
C928
9248
A498
C928
FFF8
ENDCHAR
STARTCHAR uni25A9
ENCODING 9641
SWIDTH 960 0
DWIDTH 16 0
BBX 13 13 1 -1
BITMAP
FFF8
D558
AAA8
D558
AAA8
D558
AAA8
D558
AAA8
D558
AAA8
D558
FFF8
ENDCHAR
STARTCHAR uni25AA
ENCODING 9642
SWIDTH 960 0
DWIDTH 16 0
BBX 7 7 4 2
BITMAP
FE
FE
FE
FE
FE
FE
FE
ENDCHAR
STARTCHAR uni25AB
ENCODING 9643
SWIDTH 960 0
DWIDTH 16 0
BBX 7 7 4 2
BITMAP
FE
82
82
82
82
82
FE
ENDCHAR
STARTCHAR uni25AC
ENCODING 9644
SWIDTH 960 0
DWIDTH 16 0
BBX 15 9 0 1
BITMAP
FFFE
FFFE
FFFE
FFFE
FFFE
FFFE
FFFE
FFFE
FFFE
ENDCHAR
STARTCHAR uni25AD
ENCODING 9645
SWIDTH 960 0
DWIDTH 16 0
BBX 15 9 0 1
BITMAP
FFFE
8002
8002
8002
8002
8002
8002
8002
FFFE
ENDCHAR
STARTCHAR uni25AE
ENCODING 9646
SWIDTH 960 0
DWIDTH 16 0
BBX 9 15 3 -2
BITMAP
FF80
FF80
FF80
FF80
FF80
FF80
FF80
FF80
FF80
FF80
FF80
FF80
FF80
FF80
FF80
ENDCHAR
STARTCHAR uni25AF
ENCODING 9647
SWIDTH 960 0
DWIDTH 16 0
BBX 9 15 3 -2
BITMAP
FF80
8080
8080
8080
8080
8080
8080
8080
8080
8080
8080
8080
8080
8080
FF80
ENDCHAR
STARTCHAR uni25B0
ENCODING 9648
SWIDTH 960 0
DWIDTH 16 0
BBX 15 9 0 1
BITMAP
0FFE
0FFC
1FFC
1FF8
3FF8
3FF0
7FF0
7FE0
FFE0
ENDCHAR
STARTCHAR uni25B1
ENCODING 9649
SWIDTH 960 0
DWIDTH 16 0
BBX 15 9 0 1
BITMAP
0FFE
0804
1004
1008
2008
2010
4010
4020
FFE0
ENDCHAR
STARTCHAR uni25B2
ENCODING 9650
SWIDTH 960 0
DWIDTH 16 0
BBX 13 13 1 -1
BITMAP
0200
0700
0700
0F80
0F80
1FC0
1FC0
3FE0
3FE0
7FF0
7FF0
FFF8
FFF8
ENDCHAR
STARTCHAR uni25B3
ENCODING 9651
SWIDTH 960 0
DWIDTH 16 0
BBX 13 13 1 -1
BITMAP
0200
0500
0500
0880
0880
1040
1040
2020
2020
4010
4010
8008
FFF8
ENDCHAR
STARTCHAR uni25B4
ENCODING 9652
SWIDTH 960 0
DWIDTH 16 0
BBX 7 7 4 2
BITMAP
10
38
38
7C
7C
FE
FE
ENDCHAR
STARTCHAR uni25B5
ENCODING 9653
SWIDTH 960 0
DWIDTH 16 0
BBX 7 7 4 2
BITMAP
10
28
28
44
44
82
FE
ENDCHAR
STARTCHAR uni25B6
ENCODING 9654
SWIDTH 960 0
DWIDTH 16 0
BBX 13 13 1 -1
BITMAP
C000
F000
FC00
FF00
FFC0
FFF0
FFF8
FFF0
FFC0
FF00
FC00
F000
C000
ENDCHAR
STARTCHAR uni25B7
ENCODING 9655
SWIDTH 960 0
DWIDTH 16 0
BBX 13 13 1 -1
BITMAP
C000
B000
8C00
8300
80C0
8030
8008
8030
80C0
8300
8C00
B000
C000
ENDCHAR
STARTCHAR uni25B8
ENCODING 9656
SWIDTH 960 0
DWIDTH 16 0
BBX 7 7 4 2
BITMAP
C0
F0
FC
FE
FC
F0
C0
ENDCHAR
STARTCHAR uni25B9
ENCODING 9657
SWIDTH 960 0
DWIDTH 16 0
BBX 7 7 4 2
BITMAP
C0
B0
8C
82
8C
B0
C0
ENDCHAR
STARTCHAR uni25BA
ENCODING 9658
SWIDTH 960 0
DWIDTH 16 0
BBX 13 7 1 2
BITMAP
E000
FC00
FFC0
FFF8
FFC0
FC00
E000
ENDCHAR
STARTCHAR uni25BB
ENCODING 9659
SWIDTH 960 0
DWIDTH 16 0
BBX 13 7 1 2
BITMAP
E000
9C00
83C0
8038
83C0
9C00
E000
ENDCHAR
STARTCHAR uni25BC
ENCODING 9660
SWIDTH 960 0
DWIDTH 16 0
BBX 13 13 1 -1
BITMAP
FFF8
FFF8
7FF0
7FF0
3FE0
3FE0
1FC0
1FC0
0F80
0F80
0700
0700
0200
ENDCHAR
STARTCHAR uni25BD
ENCODING 9661
SWIDTH 960 0
DWIDTH 16 0
BBX 13 13 1 -1
BITMAP
FFF8
8008
4010
4010
2020
2020
1040
1040
0880
0880
0500
0500
0200
ENDCHAR
STARTCHAR uni25BE
ENCODING 9662
SWIDTH 960 0
DWIDTH 16 0
BBX 7 7 4 2
BITMAP
FE
FE
7C
7C
38
38
10
ENDCHAR
STARTCHAR uni25BF
ENCODING 9663
SWIDTH 960 0
DWIDTH 16 0
BBX 7 7 4 2
BITMAP
FE
82
44
44
28
28
10
ENDCHAR
STARTCHAR uni25C0
ENCODING 9664
SWIDTH 960 0
DWIDTH 16 0
BBX 13 13 1 -1
BITMAP
0018
0078
01F8
07F8
1FF8
7FF8
FFF8
7FF8
1FF8
07F8
01F8
0078
0018
ENDCHAR
STARTCHAR uni25C1
ENCODING 9665
SWIDTH 960 0
DWIDTH 16 0
BBX 13 13 1 -1
BITMAP
0018
0068
0188
0608
1808
6008
8008
6008
1808
0608
0188
0068
0018
ENDCHAR
STARTCHAR uni25C2
ENCODING 9666
SWIDTH 960 0
DWIDTH 16 0
BBX 7 7 4 2
BITMAP
06
1E
7E
FE
7E
1E
06
ENDCHAR
STARTCHAR uni25C3
ENCODING 9667
SWIDTH 960 0
DWIDTH 16 0
BBX 7 7 4 2
BITMAP
06
1A
62
82
62
1A
06
ENDCHAR
STARTCHAR uni25C4
ENCODING 9668
SWIDTH 960 0
DWIDTH 16 0
BBX 13 7 1 2
BITMAP
0038
01F8
1FF8
FFF8
1FF8
01F8
0038
ENDCHAR
STARTCHAR uni25C5
ENCODING 9669
SWIDTH 960 0
DWIDTH 16 0
BBX 13 7 1 2
BITMAP
0038
01C8
1E08
E008
1E08
01C8
0038
ENDCHAR
STARTCHAR uni25C6
ENCODING 9670
SWIDTH 960 0
DWIDTH 16 0
BBX 15 15 0 -2
BITMAP
0100
0380
07C0
0FE0
1FF0
3FF8
7FFC
FFFE
7FFC
3FF8
1FF0
0FE0
07C0
0380
0100
ENDCHAR
STARTCHAR uni25C7
ENCODING 9671
SWIDTH 960 0
DWIDTH 16 0
BBX 15 15 0 -2
BITMAP
0100
0280
0440
0820
1010
2008
4004
8002
4004
2008
1010
0820
0440
0280
0100
ENDCHAR
STARTCHAR uni25C8
ENCODING 9672
SWIDTH 960 0
DWIDTH 16 0
BBX 15 15 0 -2
BITMAP
0100
0280
0440
0920
1390
27C8
4FE4
9FF2
4FE4
27C8
1390
0920
0440
0280
0100
ENDCHAR
STARTCHAR uni25C9
ENCODING 9673
SWIDTH 960 0
DWIDTH 16 0
BBX 13 13 1 -1
BITMAP
0700
18C0
2020
4710
4F90
9FC8
9FC8
9FC8
4F90
4710
2020
18C0
0700
ENDCHAR
STARTCHAR uni25CA
ENCODING 9674
SWIDTH 960 0
DWIDTH 16 0
BBX 11 15 2 -2
BITMAP
0400
0A00
1100
1100
2080
4040
4040
8020
4040
4040
2080
1100
1100
0A00
0400
ENDCHAR
STARTCHAR uni25CB
ENCODING 9675
SWIDTH 960 0
DWIDTH 16 0
BBX 13 13 1 -1
BITMAP
0700
18C0
2020
4010
4010
8008
8008
8008
4010
4010
2020
18C0
0700
ENDCHAR
STARTCHAR uni25CC
ENCODING 9676
SWIDTH 960 0
DWIDTH 16 0
BBX 13 13 1 -1
BITMAP
0500
1040
0000
4010
0000
8008
0000
8008
0000
4010
0000
1040
0500
ENDCHAR
STARTCHAR uni25CD
ENCODING 9677
SWIDTH 960 0
DWIDTH 16 0
BBX 13 13 1 -1
BITMAP
0700
1AC0
2AA0
6AB0
6AB0
AAA8
AAA8
AAA8
6AB0
6AB0
2AA0
1AC0
0700
ENDCHAR
STARTCHAR uni25CE
ENCODING 9678
SWIDTH 960 0
DWIDTH 16 0
BBX 13 13 1 -1
BITMAP
0700
18C0
2020
4710
4890
9048
9048
9048
4890
4710
2020
18C0
0700
ENDCHAR
STARTCHAR uni25CF
ENCODING 9679
SWIDTH 960 0
DWIDTH 16 0
BBX 13 13 1 -1
BITMAP
0700
1FC0
3FE0
7FF0
7FF0
FFF8
FFF8
FFF8
7FF0
7FF0
3FE0
1FC0
0700
ENDCHAR
STARTCHAR uni25D0
ENCODING 9680
SWIDTH 960 0
DWIDTH 16 0
BBX 13 13 1 -1
BITMAP
0700
1EC0
3E20
7E10
7E10
FE08
FE08
FE08
7E10
7E10
3E20
1EC0
0700
ENDCHAR
STARTCHAR uni25D1
ENCODING 9681
SWIDTH 960 0
DWIDTH 16 0
BBX 13 13 1 -1
BITMAP
0700
1BC0
23E0
43F0
43F0
83F8
83F8
83F8
43F0
43F0
23E0
1BC0
0700
ENDCHAR
STARTCHAR uni25D2
ENCODING 9682
SWIDTH 960 0
DWIDTH 16 0
BBX 13 13 1 -1
BITMAP
0700
18C0
2020
4010
4010
8008
FFF8
FFF8
7FF0
7FF0
3FE0
1FC0
0700
ENDCHAR
STARTCHAR uni25D3
ENCODING 9683
SWIDTH 960 0
DWIDTH 16 0
BBX 13 13 1 -1
BITMAP
0700
1FC0
3FE0
7FF0
7FF0
FFF8
FFF8
8008
4010
4010
2020
18C0
0700
ENDCHAR
STARTCHAR uni25D4
ENCODING 9684
SWIDTH 960 0
DWIDTH 16 0
BBX 13 13 1 -1
BITMAP
0700
1BC0
23E0
43F0
43F0
83F8
83F8
8008
4010
4010
2020
18C0
0700
ENDCHAR
STARTCHAR uni25D5
ENCODING 9685
SWIDTH 960 0
DWIDTH 16 0
BBX 13 13 1 -1
BITMAP
0700
1BC0
23E0
43F0
43F0
83F8
FFF8
FFF8
7FF0
7FF0
3FE0
1FC0
0700
ENDCHAR
STARTCHAR uni25D6
ENCODING 9686
SWIDTH 960 0
DWIDTH 16 0
BBX 7 13 1 -1
BITMAP
06
1E
3E
7E
7E
FE
FE
FE
7E
7E
3E
1E
06
ENDCHAR
STARTCHAR uni25D7
ENCODING 9687
SWIDTH 960 0
DWIDTH 16 0
BBX 7 13 7 -1
BITMAP
C0
F0
F8
FC
FC
FE
FE
FE
FC
FC
F8
F0
C0
ENDCHAR
STARTCHAR uni25D8
ENCODING 9688
SWIDTH 960 0
DWIDTH 16 0
BBX 15 15 0 -2
BITMAP
FFFE
FFFE
FFFE
FFFE
FFFE
FC7E
FBBE
FBBE
FBBE
FC7E
FFFE
FFFE
FFFE
FFFE
FFFE
ENDCHAR
STARTCHAR uni25D9
ENCODING 9689
SWIDTH 960 0
DWIDTH 16 0
BBX 15 15 0 -2
BITMAP
FFFE
FC7E
F39E
EFEE
DFF6
DFF6
BFFA
BFFA
BFFA
DFF6
DFF6
EFEE
F39E
FC7E
FFFE
ENDCHAR
STARTCHAR uni25DA
ENCODING 9690
SWIDTH 960 0
DWIDTH 16 0
BBX 15 8 0 5
BITMAP
FFFE
FC7E
F39E
EFEE
DFF6
DFF6
BFFA
BFFA
ENDCHAR
STARTCHAR uni25DB
ENCODING 9691
SWIDTH 960 0
DWIDTH 16 0
BBX 15 8 0 -2
BITMAP
BFFA
BFFA
DFF6
DFF6
EFEE
F39E
FC7E
FFFE
ENDCHAR
STARTCHAR uni25DC
ENCODING 9692
SWIDTH 960 0
DWIDTH 16 0
BBX 7 7 1 5
BITMAP
06
18
20
40
40
80
80
ENDCHAR
STARTCHAR uni25DD
ENCODING 9693
SWIDTH 960 0
DWIDTH 16 0
BBX 7 7 7 5
BITMAP
C0
30
08
04
04
02
02
ENDCHAR
STARTCHAR uni25DE
ENCODING 9694
SWIDTH 960 0
DWIDTH 16 0
BBX 7 7 7 -1
BITMAP
02
02
04
04
08
30
C0
ENDCHAR
STARTCHAR uni25DF
ENCODING 9695
SWIDTH 960 0
DWIDTH 16 0
BBX 7 7 1 -1
BITMAP
80
80
40
40
20
18
06
ENDCHAR
STARTCHAR uni25E0
ENCODING 9696
SWIDTH 960 0
DWIDTH 16 0
BBX 13 7 1 5
BITMAP
0700
18C0
2020
4010
4010
8008
8008
ENDCHAR
STARTCHAR uni25E1
ENCODING 9697
SWIDTH 960 0
DWIDTH 16 0
BBX 13 7 1 -1
BITMAP
8008
8008
4010
4010
2020
18C0
0700
ENDCHAR
STARTCHAR uni25E2
ENCODING 9698
SWIDTH 960 0
DWIDTH 16 0
BBX 13 13 1 -1
BITMAP
0008
0018
0038
0078
00F8
01F8
03F8
07F8
0FF8
1FF8
3FF8
7FF8
FFF8
ENDCHAR
STARTCHAR uni25E3
ENCODING 9699
SWIDTH 960 0
DWIDTH 16 0
BBX 13 13 1 -1
BITMAP
8000
C000
E000
F000
F800
FC00
FE00
FF00
FF80
FFC0
FFE0
FFF0
FFF8
ENDCHAR
STARTCHAR uni25E4
ENCODING 9700
SWIDTH 960 0
DWIDTH 16 0
BBX 13 13 1 -1
BITMAP
FFF8
FFF0
FFE0
FFC0
FF80
FF00
FE00
FC00
F800
F000
E000
C000
8000
ENDCHAR
STARTCHAR uni25E5
ENCODING 9701
SWIDTH 960 0
DWIDTH 16 0
BBX 13 13 1 -1
BITMAP
FFF8
7FF8
3FF8
1FF8
0FF8
07F8
03F8
01F8
00F8
0078
0038
0018
0008
ENDCHAR
STARTCHAR uni25E6
ENCODING 9702
SWIDTH 960 0
DWIDTH 16 0
BBX 5 5 5 3
BITMAP
70
88
88
88
70
ENDCHAR
STARTCHAR uni25E7
ENCODING 9703
SWIDTH 960 0
DWIDTH 16 0
BBX 13 13 1 -1
BITMAP
FFF8
FE08
FE08
FE08
FE08
FE08
FE08
FE08
FE08
FE08
FE08
FE08
FFF8
ENDCHAR
STARTCHAR uni25E8
ENCODING 9704
SWIDTH 960 0
DWIDTH 16 0
BBX 13 13 1 -1
BITMAP
FFF8
83F8
83F8
83F8
83F8
83F8
83F8
83F8
83F8
83F8
83F8
83F8
FFF8
ENDCHAR
STARTCHAR uni25E9
ENCODING 9705
SWIDTH 960 0
DWIDTH 16 0
BBX 13 13 1 -1
BITMAP
FFF8
FFF8
FFE8
FFC8
FF88
FF08
FE08
FC08
F808
F008
E008
C008
FFF8
ENDCHAR
STARTCHAR uni25EA
ENCODING 9706
SWIDTH 960 0
DWIDTH 16 0
BBX 13 13 1 -1
BITMAP
FFF8
8018
8038
8078
80F8
81F8
83F8
87F8
8FF8
9FF8
BFF8
FFF8
FFF8
ENDCHAR
STARTCHAR uni25EB
ENCODING 9707
SWIDTH 960 0
DWIDTH 16 0
BBX 13 13 1 -1
BITMAP
FFF8
8208
8208
8208
8208
8208
8208
8208
8208
8208
8208
8208
FFF8
ENDCHAR
STARTCHAR uni25EC
ENCODING 9708
SWIDTH 960 0
DWIDTH 16 0
BBX 13 13 1 -1
BITMAP
0200
0500
0500
0880
0880
1040
1040
2220
2720
4210
4010
8008
FFF8
ENDCHAR
STARTCHAR uni25ED
ENCODING 9709
SWIDTH 960 0
DWIDTH 16 0
BBX 13 13 1 -1
BITMAP
0200
0700
0700
0E80
0E80
1E40
1E40
3E20
3E20
7E10
7E10
FE08
FFF8
ENDCHAR
STARTCHAR uni25EE
ENCODING 9710
SWIDTH 960 0
DWIDTH 16 0
BBX 13 13 1 -1
BITMAP
0200
0700
0700
0B80
0B80
13C0
13C0
23E0
23E0
43F0
43F0
83F8
FFF8
ENDCHAR
STARTCHAR uni25EF
ENCODING 9711
SWIDTH 960 0
DWIDTH 16 0
BBX 15 15 0 -2
BITMAP
07C0
1830
2008
4004
4004
8002
8002
8002
8002
8002
4004
4004
2008
1830
07C0
ENDCHAR
STARTCHAR uni25F0
ENCODING 9712
SWIDTH 960 0
DWIDTH 16 0
BBX 13 13 1 -1
BITMAP
FFF8
8208
8208
8208
8208
8208
FE08
8008
8008
8008
8008
8008
FFF8
ENDCHAR
STARTCHAR uni25F1
ENCODING 9713
SWIDTH 960 0
DWIDTH 16 0
BBX 13 13 1 -1
BITMAP
FFF8
8008
8008
8008
8008
8008
FE08
8208
8208
8208
8208
8208
FFF8
ENDCHAR
STARTCHAR uni25F2
ENCODING 9714
SWIDTH 960 0
DWIDTH 16 0
BBX 13 13 1 -1
BITMAP
FFF8
8008
8008
8008
8008
8008
83F8
8208
8208
8208
8208
8208
FFF8
ENDCHAR
STARTCHAR uni25F3
ENCODING 9715
SWIDTH 960 0
DWIDTH 16 0
BBX 13 13 1 -1
BITMAP
FFF8
8208
8208
8208
8208
8208
83F8
8008
8008
8008
8008
8008
FFF8
ENDCHAR
STARTCHAR uni25F4
ENCODING 9716
SWIDTH 960 0
DWIDTH 16 0
BBX 13 13 1 -1
BITMAP
0700
1AC0
2220
4210
4210
8208
FE08
8008
4010
4010
2020
18C0
0700
ENDCHAR
STARTCHAR uni25F5
ENCODING 9717
SWIDTH 960 0
DWIDTH 16 0
BBX 13 13 1 -1
BITMAP
0700
18C0
2020
4010
4010
8008
FE08
8208
4210
4210
2220
1AC0
0700
ENDCHAR
STARTCHAR uni25F6
ENCODING 9718
SWIDTH 960 0
DWIDTH 16 0
BBX 13 13 1 -1
BITMAP
0700
18C0
2020
4010
4010
8008
83F8
8208
4210
4210
2220
1AC0
0700
ENDCHAR
STARTCHAR uni25F7
ENCODING 9719
SWIDTH 960 0
DWIDTH 16 0
BBX 13 13 1 -1
BITMAP
0700
1AC0
2220
4210
4210
8208
83F8
8008
4010
4010
2020
18C0
0700
ENDCHAR
STARTCHAR uni25F8
ENCODING 9720
SWIDTH 960 0
DWIDTH 16 0
BBX 13 13 1 -1
BITMAP
FFF8
8010
8020
8040
8080
8100
8200
8400
8800
9000
A000
C000
8000
ENDCHAR
STARTCHAR uni25F9
ENCODING 9721
SWIDTH 960 0
DWIDTH 16 0
BBX 13 13 1 -1
BITMAP
FFF8
4008
2008
1008
0808
0408
0208
0108
0088
0048
0028
0018
0008
ENDCHAR
STARTCHAR uni25FA
ENCODING 9722
SWIDTH 960 0
DWIDTH 16 0
BBX 13 13 1 -1
BITMAP
8000
C000
A000
9000
8800
8400
8200
8100
8080
8040
8020
8010
FFF8
ENDCHAR
STARTCHAR uni25FB
ENCODING 9723
SWIDTH 960 0
DWIDTH 16 0
BBX 11 11 2 0
BITMAP
FFE0
8020
8020
8020
8020
8020
8020
8020
8020
8020
FFE0
ENDCHAR
STARTCHAR uni25FC
ENCODING 9724
SWIDTH 960 0
DWIDTH 16 0
BBX 11 11 2 0
BITMAP
FFE0
FFE0
FFE0
FFE0
FFE0
FFE0
FFE0
FFE0
FFE0
FFE0
FFE0
ENDCHAR
STARTCHAR uni25FD
ENCODING 9725
SWIDTH 960 0
DWIDTH 16 0
BBX 9 9 3 1
BITMAP
FF80
8080
8080
8080
8080
8080
8080
8080
FF80
ENDCHAR
STARTCHAR uni25FE
ENCODING 9726
SWIDTH 960 0
DWIDTH 16 0
BBX 9 9 3 1
BITMAP
FF80
FF80
FF80
FF80
FF80
FF80
FF80
FF80
FF80
ENDCHAR
STARTCHAR uni25FF
ENCODING 9727
SWIDTH 960 0
DWIDTH 16 0
BBX 13 13 1 -1
BITMAP
0008
0018
0028
0048
0088
0108
0208
0408
0808
1008
2008
4008
FFF8
ENDCHAR
STARTCHAR uni2600
ENCODING 9728
SWIDTH 960 0
DWIDTH 16 0
BBX 13 13 1 -1
BITMAP
0200
4210
2020
0700
0F80
1FC0
DFD8
1FC0
0F80
0700
2020
4210
0200
ENDCHAR
STARTCHAR uni2601
ENCODING 9729
SWIDTH 960 0
DWIDTH 16 0
BBX 15 13 0 -1
BITMAP
07E0
0810
1008
1008
1C08
2014
4002
8002
8002
8002
8022
41C4
3E38
ENDCHAR
STARTCHAR uni2602
ENCODING 9730
SWIDTH 960 0
DWIDTH 16 0
BBX 15 15 0 -2
BITMAP
0100
0FE0
3FF8
7FFC
FFFE
FFFE
9112
0100
0100
0100
0100
0100
0900
0900
0600
ENDCHAR
STARTCHAR uni2603
ENCODING 9731
SWIDTH 960 0
DWIDTH 16 0
BBX 15 15 0 -2
BITMAP
2FE4
0FE0
BFFA
0820
1010
5454
1010
9FF2
AFEA
660C
2608
2608
2008
1010
0FE0
ENDCHAR
STARTCHAR uni2604
ENCODING 9732
SWIDTH 960 0
DWIDTH 16 0
BBX 14 14 1 -1
BITMAP
0200
0208
0410
0420
0840
0880
1100
020C
3830
44C0
8500
8400
8800
7000
ENDCHAR
STARTCHAR uni2605
ENCODING 9733
SWIDTH 960 0
DWIDTH 16 0
BBX 15 15 0 -2
BITMAP
0100
0100
0380
0380
0380
07C0
FFFE
7FFC
3FF8
0FE0
0FE0
1FF0
1EF0
1830
2008
ENDCHAR
STARTCHAR uni2606
ENCODING 9734
SWIDTH 960 0
DWIDTH 16 0
BBX 15 15 0 -2
BITMAP
0100
0100
0280
0280
0280
0440
FC7E
4004
3018
0820
0820
1110
16D0
1830
2008
ENDCHAR
STARTCHAR uni2607
ENCODING 9735
SWIDTH 960 0
DWIDTH 16 0
BBX 7 13 4 -1
BITMAP
04
08
10
20
40
80
80
40
20
12
0A
06
1E
ENDCHAR
STARTCHAR uni2608
ENCODING 9736
SWIDTH 960 0
DWIDTH 16 0
BBX 9 13 3 -1
BITMAP
FF80
8080
8100
8200
8400
8800
9000
9000
8800
8480
8280
8180
8780
ENDCHAR
STARTCHAR uni2609
ENCODING 9737
SWIDTH 960 0
DWIDTH 16 0
BBX 13 13 1 -1
BITMAP
0700
18C0
2020
4010
4010
8008
8208
8008
4010
4010
2020
18C0
0700
ENDCHAR
STARTCHAR uni260A
ENCODING 9738
SWIDTH 960 0
DWIDTH 16 0
BBX 13 13 1 -1
BITMAP
3FE0
4010
8008
8008
8008
8008
4010
2020
7070
8888
8888
8888
7070
ENDCHAR
STARTCHAR uni260B
ENCODING 9739
SWIDTH 960 0
DWIDTH 16 0
BBX 13 13 1 -1
BITMAP
7070
8888
8888
8888
7070
2020
4010
8008
8008
8008
8008
4010
3FE0
ENDCHAR
STARTCHAR uni260C
ENCODING 9740
SWIDTH 960 0
DWIDTH 16 0
BBX 13 13 1 -1
BITMAP
0008
0010
0020
0040
0080
3D00
4200
8100
8100
8100
8100
4200
3C00
ENDCHAR
STARTCHAR uni260D
ENCODING 9741
SWIDTH 960 0
DWIDTH 16 0
BBX 15 15 0 -2
BITMAP
0038
0044
0082
0082
0082
0044
00B8
0100
3A00
4400
8200
8200
8200
4400
3800
ENDCHAR
STARTCHAR uni260E
ENCODING 9742
SWIDTH 960 0
DWIDTH 16 0
BBX 15 13 0 -1
BITMAP
1FF0
7FFC
FFFE
F45E
F7DE
E7CE
0FE0
1C70
3838
783C
7C7C
7FFC
3FF8
ENDCHAR
STARTCHAR uni260F
ENCODING 9743
SWIDTH 960 0
DWIDTH 16 0
BBX 15 13 0 -1
BITMAP
1FF0
600C
8002
8FE2
9BB2
E82E
0820
1390
2448
4444
4384
4004
3FF8
ENDCHAR
STARTCHAR uni2610
ENCODING 9744
SWIDTH 960 0
DWIDTH 16 0
BBX 13 13 1 -1
BITMAP
FFF8
8008
8008
8008
8008
8008
8008
8008
8008
8008
8008
8008
FFF8
ENDCHAR
STARTCHAR uni2611
ENCODING 9745
SWIDTH 960 0
DWIDTH 16 0
BBX 13 13 1 -1
BITMAP
FFF8
8008
8008
8028
8048
8088
8088
A108
9208
8A08
8408
8008
FFF8
ENDCHAR
STARTCHAR uni2612
ENCODING 9746
SWIDTH 960 0
DWIDTH 16 0
BBX 13 13 1 -1
BITMAP
FFF8
8008
8008
9048
8888
8508
8208
8508
8888
9048
8008
8008
FFF8
ENDCHAR
STARTCHAR uni2613
ENCODING 9747
SWIDTH 960 0
DWIDTH 16 0
BBX 11 11 2 0
BITMAP
8020
4040
2080
1100
0A00
0400
0A00
1100
2080
4040
8020
ENDCHAR
STARTCHAR uni2614
ENCODING 9748
SWIDTH 960 0
DWIDTH 16 0
BBX 15 15 0 -2
BITMAP
4444
1010
0100
8FE2
3FF8
7FFC
FFFE
FFFE
9112
0100
0100
0100
0900
0900
0600
ENDCHAR
STARTCHAR uni2616
ENCODING 9750
SWIDTH 960 0
DWIDTH 16 0
BBX 11 13 2 -1
BITMAP
0400
0A00
1100
2080
4040
8020
8020
8020
8020
8020
8020
8020
FFE0
ENDCHAR
STARTCHAR uni2617
ENCODING 9751
SWIDTH 960 0
DWIDTH 16 0
BBX 11 13 2 -1
BITMAP
0400
0E00
1F00
3F80
7FC0
FFE0
FFE0
FFE0
FFE0
FFE0
FFE0
FFE0
FFE0
ENDCHAR
STARTCHAR uni261C
ENCODING 9756
SWIDTH 960 0
DWIDTH 16 0
BBX 15 9 0 1
BITMAP
7FE0
881C
790A
1A8A
176A
088A
078A
045C
03E0
ENDCHAR
STARTCHAR uni261D
ENCODING 9757
SWIDTH 960 0
DWIDTH 16 0
BBX 9 15 3 -2
BITMAP
0100
0280
0280
0E80
1780
6880
AC80
AA80
B480
C880
8880
4100
7F00
4100
3E00
ENDCHAR
STARTCHAR uni261E
ENCODING 9758
SWIDTH 960 0
DWIDTH 16 0
BBX 15 9 0 1
BITMAP
0FFC
7022
A13C
A2B0
ADD0
A220
A3C0
7440
0F80
ENDCHAR
STARTCHAR uni261F
ENCODING 9759
SWIDTH 960 0
DWIDTH 16 0
BBX 9 15 3 -2
BITMAP
3E00
4100
7F00
4100
8880
C880
B480
AA80
AC80
6880
1780
0E80
0280
0280
0100
ENDCHAR
STARTCHAR uni2620
ENCODING 9760
SWIDTH 960 0
DWIDTH 16 0
BBX 15 13 0 -1
BITMAP
07C0
0FE0
1FF0
1FF0
1FF0
1390
1390
1FF0
8EE2
4EE4
3FF8
4AA4
87C2
ENDCHAR
STARTCHAR uni262A
ENCODING 9770
SWIDTH 960 0
DWIDTH 16 0
BBX 13 13 1 -1
BITMAP
0FC0
3820
7010
6000
E020
E020
E0F8
E020
E020
6000
7010
3820
0FC0
ENDCHAR
STARTCHAR uni262B
ENCODING 9771
SWIDTH 960 0
DWIDTH 16 0
BBX 13 13 1 -1
BITMAP
0A80
0D80
0000
2AA0
5250
9248
9248
9248
9248
4A90
2720
0F80
0200
ENDCHAR
STARTCHAR uni262C
ENCODING 9772
SWIDTH 960 0
DWIDTH 16 0
BBX 13 13 1 -1
BITMAP
0200
1240
2220
4710
CA98
CA98
CA98
C718
E238
DFD8
8708
0A80
1240
ENDCHAR
STARTCHAR uni262D
ENCODING 9773
SWIDTH 960 0
DWIDTH 16 0
BBX 15 14 0 -2
BITMAP
0FE0
1010
2008
41C4
0384
0704
0D84
08C4
0068
0030
3018
686C
E786
C000
ENDCHAR
STARTCHAR uni262E
ENCODING 9774
SWIDTH 960 0
DWIDTH 16 0
BBX 15 15 0 -2
BITMAP
07C0
1930
2108
4104
4104
8102
8102
8382
8542
8922
5114
610C
2108
1930
07C0
ENDCHAR
STARTCHAR uni262F
ENCODING 9775
SWIDTH 960 0
DWIDTH 16 0
BBX 15 15 0 -2
BITMAP
07C0
1F30
3F88
79C4
79C4
FFC2
FF82
FF02
FE02
FC02
7CC4
7CC4
3E08
1F30
07C0
ENDCHAR
STARTCHAR uni2630
ENCODING 9776
SWIDTH 960 0
DWIDTH 16 0
BBX 11 9 2 1
BITMAP
FFE0
0000
0000
0000
FFE0
0000
0000
0000
FFE0
ENDCHAR
STARTCHAR uni2631
ENCODING 9777
SWIDTH 960 0
DWIDTH 16 0
BBX 11 9 2 1
BITMAP
F1E0
0000
0000
0000
FFE0
0000
0000
0000
FFE0
ENDCHAR
STARTCHAR uni2632
ENCODING 9778
SWIDTH 960 0
DWIDTH 16 0
BBX 11 9 2 1
BITMAP
FFE0
0000
0000
0000
F1E0
0000
0000
0000
FFE0
ENDCHAR
STARTCHAR uni2633
ENCODING 9779
SWIDTH 960 0
DWIDTH 16 0
BBX 11 9 2 1
BITMAP
F1E0
0000
0000
0000
F1E0
0000
0000
0000
FFE0
ENDCHAR
STARTCHAR uni2634
ENCODING 9780
SWIDTH 960 0
DWIDTH 16 0
BBX 11 9 2 1
BITMAP
FFE0
0000
0000
0000
FFE0
0000
0000
0000
F1E0
ENDCHAR
STARTCHAR uni2635
ENCODING 9781
SWIDTH 960 0
DWIDTH 16 0
BBX 11 9 2 1
BITMAP
F1E0
0000
0000
0000
FFE0
0000
0000
0000
F1E0
ENDCHAR
STARTCHAR uni2636
ENCODING 9782
SWIDTH 960 0
DWIDTH 16 0
BBX 11 9 2 1
BITMAP
FFE0
0000
0000
0000
F1E0
0000
0000
0000
F1E0
ENDCHAR
STARTCHAR uni2637
ENCODING 9783
SWIDTH 960 0
DWIDTH 16 0
BBX 11 9 2 1
BITMAP
F1E0
0000
0000
0000
F1E0
0000
0000
0000
F1E0
ENDCHAR
STARTCHAR uni2638
ENCODING 9784
SWIDTH 960 0
DWIDTH 16 0
BBX 13 13 1 -1
BITMAP
0200
4210
2FA0
1240
2AA0
2720
FDF8
2720
2AA0
1240
2FA0
4210
0200
ENDCHAR
STARTCHAR uni2639
ENCODING 9785
SWIDTH 960 0
DWIDTH 16 0
BBX 13 13 1 -1
BITMAP
0F80
3060
4010
4890
8888
8888
8008
8008
8F88
5050
4010
3060
0F80
ENDCHAR
STARTCHAR uni263A
ENCODING 9786
SWIDTH 960 0
DWIDTH 16 0
BBX 13 13 1 -1
BITMAP
0F80
3060
4010
4890
8888
8888
8008
8008
9048
4F90
4010
3060
0F80
ENDCHAR
STARTCHAR uni263B
ENCODING 9787
SWIDTH 960 0
DWIDTH 16 0
BBX 13 13 1 -1
BITMAP
0F80
3FE0
7FF0
7770
F778
F778
FFF8
FFF8
EFB8
7070
7FF0
3FE0
0F80
ENDCHAR
STARTCHAR uni263C
ENCODING 9788
SWIDTH 960 0
DWIDTH 16 0
BBX 13 13 1 -1
BITMAP
0200
4210
2020
0700
0880
1040
D058
1040
0880
0700
2020
4210
0200
ENDCHAR
STARTCHAR uni263D
ENCODING 9789
SWIDTH 960 0
DWIDTH 16 0
BBX 10 13 3 -1
BITMAP
F800
2600
1100
1080
0880
0840
0840
0840
0880
1080
1100
2600
F800
ENDCHAR
STARTCHAR uni263E
ENCODING 9790
SWIDTH 960 0
DWIDTH 16 0
BBX 10 13 2 -1
BITMAP
07C0
1900
2200
4200
4400
8400
8400
8400
4400
4200
2200
1900
07C0
ENDCHAR
STARTCHAR uni2640
ENCODING 9792
SWIDTH 960 0
DWIDTH 16 0
BBX 9 13 3 -1
BITMAP
1C00
2200
4100
4100
4100
2200
1C00
0800
0800
FF80
0800
0800
0800
ENDCHAR
STARTCHAR uni2641
ENCODING 9793
SWIDTH 960 0
DWIDTH 16 0
BBX 9 13 3 -1
BITMAP
0800
0800
0800
FF80
0800
0800
1C00
2200
4100
4100
4100
2200
1C00
ENDCHAR
STARTCHAR uni2642
ENCODING 9794
SWIDTH 960 0
DWIDTH 16 0
BBX 13 13 1 -1
BITMAP
03F8
0018
0028
0048
0088
3D08
4200
8100
8100
8100
8100
4200
3C00
ENDCHAR
STARTCHAR uni2648
ENCODING 9800
SWIDTH 960 0
DWIDTH 16 0
BBX 13 13 1 -1
BITMAP
7070
8888
8888
8508
0500
0500
0500
0200
0200
0200
0200
0200
0200
ENDCHAR
STARTCHAR uni2649
ENCODING 9801
SWIDTH 960 0
DWIDTH 16 0
BBX 13 11 1 0
BITMAP
E038
1040
0880
0880
0700
0880
1040
1040
1040
0880
0700
ENDCHAR
STARTCHAR uni264A
ENCODING 9802
SWIDTH 960 0
DWIDTH 16 0
BBX 11 13 2 -1
BITMAP
8020
7FC0
1100
1100
1100
1100
1100
1100
1100
1100
1100
7FC0
8020
ENDCHAR
STARTCHAR uni264B
ENCODING 9803
SWIDTH 960 0
DWIDTH 16 0
BBX 13 13 1 -1
BITMAP
3F00
42C0
4230
4208
4200
3C00
0000
01E0
0210
8210
6210
1A10
07E0
ENDCHAR
STARTCHAR uni264C
ENCODING 9804
SWIDTH 960 0
DWIDTH 16 0
BBX 13 13 1 -1
BITMAP
0700
0880
1040
1040
1040
0840
0880
7880
8880
8880
8888
7088
0070
ENDCHAR
STARTCHAR uni264D
ENCODING 9805
SWIDTH 960 0
DWIDTH 16 0
BBX 11 13 2 -1
BITMAP
6E00
9100
9180
9140
9120
9120
9120
9120
0140
0180
0100
0280
0C40
ENDCHAR
STARTCHAR uni264E
ENCODING 9806
SWIDTH 960 0
DWIDTH 16 0
BBX 13 13 1 -1
BITMAP
0F80
1040
2020
2020
2020
2020
1040
0880
0880
F8F8
0000
0000
FFF8
ENDCHAR
STARTCHAR uni264F
ENCODING 9807
SWIDTH 960 0
DWIDTH 16 0
BBX 12 13 2 -1
BITMAP
6E00
9100
9100
9100
9100
9100
9100
9100
0100
0110
0110
0090
0070
ENDCHAR
STARTCHAR uni2650
ENCODING 9808
SWIDTH 960 0
DWIDTH 16 0
BBX 13 13 1 -1
BITMAP
01F8
0018
8028
4048
2088
1108
0A00
0400
0A00
1100
2080
4040
8020
ENDCHAR
STARTCHAR uni2651
ENCODING 9809
SWIDTH 960 0
DWIDTH 16 0
BBX 11 13 2 -1
BITMAP
DC00
2200
2200
2200
2200
2200
23C0
2220
0220
0220
05C0
0800
3000
ENDCHAR
STARTCHAR uni2652
ENCODING 9810
SWIDTH 960 0
DWIDTH 16 0
BBX 13 9 1 1
BITMAP
30C0
4920
8618
0000
0000
0000
30C0
4920
8618
ENDCHAR
STARTCHAR uni2653
ENCODING 9811
SWIDTH 960 0
DWIDTH 16 0
BBX 13 13 1 -1
BITMAP
8008
4010
2020
2020
1040
1040
FFF8
1040
1040
2020
2020
4010
8008
ENDCHAR
STARTCHAR uni2654
ENCODING 9812
SWIDTH 960 0
DWIDTH 16 0
BBX 13 13 1 -1
BITMAP
0200
0700
3AE0
4510
8208
8208
8208
8208
4210
3FE0
2020
2020
3FE0
ENDCHAR
STARTCHAR uni2655
ENCODING 9813
SWIDTH 960 0
DWIDTH 16 0
BBX 13 13 1 -1
BITMAP
0200
2520
5250
2220
1240
9548
4890
28A0
1040
2020
3FE0
2020
3FE0
ENDCHAR
STARTCHAR uni2656
ENCODING 9814
SWIDTH 960 0
DWIDTH 16 0
BBX 11 13 2 -1
BITMAP
6EC0
5B40
4040
7FC0
4040
4040
2080
2080
2080
7FC0
8020
8020
FFE0
ENDCHAR
STARTCHAR uni2657
ENCODING 9815
SWIDTH 960 0
DWIDTH 16 0
BBX 11 13 2 -1
BITMAP
0400
0A00
1100
2080
4440
4E40
4440
3180
1100
3F80
4040
8020
FFE0
ENDCHAR
STARTCHAR uni2658
ENCODING 9816
SWIDTH 960 0
DWIDTH 16 0
BBX 11 13 2 -1
BITMAP
0300
0CC0
1260
6060
5E60
7460
0440
0880
1100
3F80
4040
8020
FFE0
ENDCHAR
STARTCHAR uni2659
ENCODING 9817
SWIDTH 960 0
DWIDTH 16 0
BBX 11 13 2 -1
BITMAP
1F00
2080
2080
2080
2080
1F00
1100
1100
2080
7FC0
8020
8020
FFE0
ENDCHAR
STARTCHAR uni265A
ENCODING 9818
SWIDTH 960 0
DWIDTH 16 0
BBX 13 13 1 -1
BITMAP
0200
0700
3AE0
7DF0
FFF8
FDF8
FDF8
FDF8
7DF0
3FE0
2020
2020
3FE0
ENDCHAR
STARTCHAR uni265B
ENCODING 9819
SWIDTH 960 0
DWIDTH 16 0
BBX 13 13 1 -1
BITMAP
0200
2520
5250
2220
1240
9748
4F90
2FA0
1FC0
2020
3FE0
3FE0
3FE0
ENDCHAR
STARTCHAR uni265C
ENCODING 9820
SWIDTH 960 0
DWIDTH 16 0
BBX 11 13 2 -1
BITMAP
6EC0
7FC0
4040
7FC0
7FC0
7FC0
3F80
3F80
3F80
7FC0
8020
FFE0
FFE0
ENDCHAR
STARTCHAR uni265D
ENCODING 9821
SWIDTH 960 0
DWIDTH 16 0
BBX 11 13 2 -1
BITMAP
0400
0E00
1F00
3F80
7BC0
71C0
7BC0
3F80
1F00
3F80
4040
FFE0
FFE0
ENDCHAR
STARTCHAR uni265E
ENCODING 9822
SWIDTH 960 0
DWIDTH 16 0
BBX 11 13 2 -1
BITMAP
0300
0FC0
1DA0
7FA0
7FA0
77A0
07C0
0F80
1F00
3F80
4040
FFE0
FFE0
ENDCHAR
STARTCHAR uni265F
ENCODING 9823
SWIDTH 960 0
DWIDTH 16 0
BBX 11 13 2 -1
BITMAP
1F00
3F80
3F80
3F80
3F80
1100
1F00
1F00
3F80
7FC0
8020
FFE0
FFE0
ENDCHAR
STARTCHAR uni2660
ENCODING 9824
SWIDTH 960 0
DWIDTH 16 0
BBX 13 13 1 -1
BITMAP
0200
0700
0F80
1FC0
3FE0
7FF0
FFF8
FFF8
FFF8
7AF0
3260
0700
0F80
ENDCHAR
STARTCHAR uni2661
ENCODING 9825
SWIDTH 960 0
DWIDTH 16 0
BBX 13 13 1 -1
BITMAP
38E0
4510
8208
8008
8008
8008
8008
4010
2020
1040
0880
0500
0200
ENDCHAR
STARTCHAR uni2662
ENCODING 9826
SWIDTH 960 0
DWIDTH 16 0
BBX 13 13 1 -1
BITMAP
0200
0500
0880
1040
2020
4010
8008
4010
2020
1040
0880
0500
0200
ENDCHAR
STARTCHAR uni2663
ENCODING 9827
SWIDTH 960 0
DWIDTH 16 0
BBX 13 13 1 -1
BITMAP
0700
0F80
1FC0
1FC0
0F80
3760
7AF0
FFF8
FFF8
7AF0
3260
0700
0F80
ENDCHAR
STARTCHAR uni2664
ENCODING 9828
SWIDTH 960 0
DWIDTH 16 0
BBX 13 13 1 -1
BITMAP
0200
0500
0880
1040
2020
4010
8008
8008
8508
4D90
3560
0880
0F80
ENDCHAR
STARTCHAR uni2665
ENCODING 9829
SWIDTH 960 0
DWIDTH 16 0
BBX 13 13 1 -1
BITMAP
38E0
7DF0
FFF8
FFF8
FFF8
FFF8
FFF8
7FF0
3FE0
1FC0
0F80
0700
0200
ENDCHAR
STARTCHAR uni2666
ENCODING 9830
SWIDTH 960 0
DWIDTH 16 0
BBX 13 13 1 -1
BITMAP
0200
0700
0F80
1FC0
3FE0
7FF0
FFF8
7FF0
3FE0
1FC0
0F80
0700
0200
ENDCHAR
STARTCHAR uni2667
ENCODING 9831
SWIDTH 960 0
DWIDTH 16 0
BBX 13 13 1 -1
BITMAP
0700
0880
1040
1040
0880
3560
4D90
8508
8008
4D90
3560
0880
0F80
ENDCHAR
STARTCHAR uni2668
ENCODING 9832
SWIDTH 960 0
DWIDTH 16 0
BBX 15 13 0 -1
BITMAP
0920
1240
1240
1240
0920
0920
2920
4494
8492
8922
4004
3838
07C0
ENDCHAR
STARTCHAR uni2669
ENCODING 9833
SWIDTH 960 0
DWIDTH 16 0
BBX 5 15 3 -2
BITMAP
08
08
08
08
08
08
08
08
08
08
08
38
78
F0
E0
ENDCHAR
STARTCHAR uni266A
ENCODING 9834
SWIDTH 960 0
DWIDTH 16 0
BBX 9 15 3 -2
BITMAP
0800
0C00
0A00
0900
0880
0880
0880
0900
0800
0800
0800
3800
7800
F000
E000
ENDCHAR
STARTCHAR uni266B
ENCODING 9835
SWIDTH 960 0
DWIDTH 16 0
BBX 13 15 0 -2
BITMAP
0038
01C8
0E08
0808
0808
0808
0808
0808
0808
0808
0838
3878
78F0
F0E0
E000
ENDCHAR
STARTCHAR uni266C
ENCODING 9836
SWIDTH 960 0
DWIDTH 16 0
BBX 13 15 0 -2
BITMAP
0038
01C8
0E08
0838
09C8
0E08
0808
0808
0808
0808
0838
3878
78F0
F0E0
E000
ENDCHAR
STARTCHAR uni266D
ENCODING 9837
SWIDTH 960 0
DWIDTH 16 0
BBX 6 15 5 -2
BITMAP
80
80
80
80
80
80
B8
C4
84
84
84
88
90
A0
C0
ENDCHAR
STARTCHAR uni266E
ENCODING 9838
SWIDTH 960 0
DWIDTH 16 0
BBX 6 15 5 -2
BITMAP
80
80
80
80
9C
E4
84
84
84
84
9C
E4
04
04
04
ENDCHAR
STARTCHAR uni266F
ENCODING 9839
SWIDTH 960 0
DWIDTH 16 0
BBX 12 15 2 -2
BITMAP
0080
1080
1080
10F0
1F80
F080
1080
1080
1080
10F0
1F80
F080
1080
1080
1000
ENDCHAR
STARTCHAR uni2680
ENCODING 9856
SWIDTH 960 0
DWIDTH 16 0
BBX 12 12 2 0
BITMAP
7FE0
8010
8010
8010
8010
8610
8610
8010
8010
8010
8010
7FE0
ENDCHAR
STARTCHAR uni2681
ENCODING 9857
SWIDTH 960 0
DWIDTH 16 0
BBX 12 12 2 0
BITMAP
7FE0
8010
B010
B010
8010
8010
8010
8010
80D0
80D0
8010
7FE0
ENDCHAR
STARTCHAR uni2682
ENCODING 9858
SWIDTH 960 0
DWIDTH 16 0
BBX 12 12 2 0
BITMAP
7FE0
8010
B010
B010
8010
8610
8610
8010
80D0
80D0
8010
7FE0
ENDCHAR
STARTCHAR uni2683
ENCODING 9859
SWIDTH 960 0
DWIDTH 16 0
BBX 12 12 2 0
BITMAP
7FE0
8010
B0D0
B0D0
8010
8010
8010
8010
B0D0
B0D0
8010
7FE0
ENDCHAR
STARTCHAR uni2684
ENCODING 9860
SWIDTH 960 0
DWIDTH 16 0
BBX 12 12 2 0
BITMAP
7FE0
8010
B0D0
B0D0
8010
8610
8610
8010
B0D0
B0D0
8010
7FE0
ENDCHAR
STARTCHAR uni2685
ENCODING 9861
SWIDTH 960 0
DWIDTH 16 0
BBX 12 12 2 0
BITMAP
7FE0
8010
B0D0
B0D0
8010
B0D0
B0D0
8010
B0D0
B0D0
8010
7FE0
ENDCHAR
STARTCHAR uni2686
ENCODING 9862
SWIDTH 960 0
DWIDTH 16 0
BBX 13 13 1 -1
BITMAP
0700
18C0
2020
4010
4010
8008
8048
8008
4010
4010
2020
18C0
0700
ENDCHAR
STARTCHAR uni2687
ENCODING 9863
SWIDTH 960 0
DWIDTH 16 0
BBX 13 13 1 -1
BITMAP
0700
18C0
2020
4010
4010
8008
9048
8008
4010
4010
2020
18C0
0700
ENDCHAR
STARTCHAR uni2688
ENCODING 9864
SWIDTH 960 0
DWIDTH 16 0
BBX 13 13 1 -1
BITMAP
0700
1FC0
3FE0
7FF0
7FF0
FFF8
FFB8
FFF8
7FF0
7FF0
3FE0
1FC0
0700
ENDCHAR
STARTCHAR uni2689
ENCODING 9865
SWIDTH 960 0
DWIDTH 16 0
BBX 13 13 1 -1
BITMAP
0700
1FC0
3FE0
7FF0
7FF0
FFF8
EFB8
FFF8
7FF0
7FF0
3FE0
1FC0
0700
ENDCHAR
STARTCHAR uni268A
ENCODING 9866
SWIDTH 960 0
DWIDTH 16 0
BBX 11 1 2 5
BITMAP
FFE0
ENDCHAR
STARTCHAR uni268B
ENCODING 9867
SWIDTH 960 0
DWIDTH 16 0
BBX 11 1 2 5
BITMAP
F1E0
ENDCHAR
STARTCHAR uni268C
ENCODING 9868
SWIDTH 960 0
DWIDTH 16 0
BBX 11 5 2 3
BITMAP
FFE0
0000
0000
0000
FFE0
ENDCHAR
STARTCHAR uni268D
ENCODING 9869
SWIDTH 960 0
DWIDTH 16 0
BBX 11 5 2 3
BITMAP
F1E0
0000
0000
0000
FFE0
ENDCHAR
STARTCHAR uni268E
ENCODING 9870
SWIDTH 960 0
DWIDTH 16 0
BBX 11 5 2 3
BITMAP
FFE0
0000
0000
0000
F1E0
ENDCHAR
STARTCHAR uni268F
ENCODING 9871
SWIDTH 960 0
DWIDTH 16 0
BBX 11 5 2 3
BITMAP
F1E0
0000
0000
0000
F1E0
ENDCHAR
STARTCHAR uni2690
ENCODING 9872
SWIDTH 960 0
DWIDTH 16 0
BBX 11 15 2 -2
BITMAP
8000
E020
9060
8FA0
8020
8020
8020
8020
E020
9040
8F80
8000
8000
8000
8000
ENDCHAR
STARTCHAR uni2691
ENCODING 9873
SWIDTH 960 0
DWIDTH 16 0
BBX 11 15 2 -2
BITMAP
8000
E020
F060
FFE0
FFE0
FFE0
FFE0
FFE0
FFE0
9FC0
8F80
8000
8000
8000
8000
ENDCHAR
STARTCHAR uni2693
ENCODING 9875
SWIDTH 960 0
DWIDTH 16 0
BBX 13 13 1 -1
BITMAP
0200
0500
1240
3FE0
1240
0200
0200
0200
8208
C718
7FF0
1FC0
0700
ENDCHAR
STARTCHAR uni2694
ENCODING 9876
SWIDTH 960 0
DWIDTH 16 0
BBX 13 12 1 -1
BITMAP
4010
2020
1040
0880
0500
0200
0500
4890
7070
3060
58D0
8008
ENDCHAR
STARTCHAR uni2695
ENCODING 9877
SWIDTH 960 0
DWIDTH 16 0
BBX 9 15 3 -2
BITMAP
0800
0800
7F80
8980
8800
7E00
0900
0900
3E00
4800
3C00
0A00
1C00
2800
0800
ENDCHAR
STARTCHAR uni2698
ENCODING 9880
SWIDTH 960 0
DWIDTH 16 0
BBX 11 13 2 -1
BITMAP
0E00
1100
1100
1100
0E00
0400
E4E0
F5E0
75C0
3580
0E00
0400
0400
ENDCHAR
STARTCHAR uni2699
ENCODING 9881
SWIDTH 960 0
DWIDTH 16 0
BBX 13 13 1 -1
BITMAP
0200
4210
2FA0
1040
2020
2020
E238
2020
2020
1040
2FA0
4210
0200
ENDCHAR
STARTCHAR uni269A
ENCODING 9882
SWIDTH 960 0
DWIDTH 16 0
BBX 15 13 0 -1
BITMAP
0100
0280
3938
7FFC
FD7E
0540
0380
0100
0100
0100
0100
0100
0100
ENDCHAR
STARTCHAR uni26AA
ENCODING 9898
SWIDTH 960 0
DWIDTH 16 0
BBX 13 13 1 -1
BITMAP
0700
18C0
2020
4010
4010
8008
8008
8008
4010
4010
2020
18C0
0700
ENDCHAR
STARTCHAR uni26AB
ENCODING 9899
SWIDTH 960 0
DWIDTH 16 0
BBX 13 13 1 -1
BITMAP
0700
1FC0
3FE0
7FF0
7FF0
FFF8
FFF8
FFF8
7FF0
7FF0
3FE0
1FC0
0700
ENDCHAR
STARTCHAR uni26AC
ENCODING 9900
SWIDTH 960 0
DWIDTH 16 0
BBX 7 7 4 2
BITMAP
38
44
82
82
82
44
38
ENDCHAR
STARTCHAR uni26C4
ENCODING 9924
SWIDTH 960 0
DWIDTH 16 0
BBX 15 15 0 -2
BITMAP
0FE0
0FE0
3FF8
0820
1010
1450
1010
9FF2
AFEA
660C
2608
2608
2008
1010
0FE0
ENDCHAR
STARTCHAR uni26C5
ENCODING 9925
SWIDTH 960 0
DWIDTH 16 0
BBX 15 15 0 -2
BITMAP
0400
4040
0E00
1100
20A0
A080
21F0
1208
3C04
4002
8002
8002
8042
4184
3E78
ENDCHAR
STARTCHAR uni26C6
ENCODING 9926
SWIDTH 960 0
DWIDTH 16 0
BBX 15 15 0 -2
BITMAP
01E0
03F8
07FC
7FFE
FFFE
FFFE
FFFE
7FFC
3FF8
0000
4444
8888
0000
2222
4444
ENDCHAR
STARTCHAR uni26C7
ENCODING 9927
SWIDTH 960 0
DWIDTH 16 0
BBX 15 15 0 -2
BITMAP
4FE4
0FE0
BFFA
0FE0
1FF0
5BB4
1FF0
9FF2
A00A
79FC
39F8
39F8
39F8
3FF8
1FF0
ENDCHAR
STARTCHAR uni26C8
ENCODING 9928
SWIDTH 960 0
DWIDTH 16 0
BBX 15 15 0 -2
BITMAP
01E0
03B8
077C
7EFE
FC3E
FF7E
FEFE
7DFC
3FF8
0000
4444
8888
0000
2222
4444
ENDCHAR
STARTCHAR uni26C9
ENCODING 9929
SWIDTH 960 0
DWIDTH 16 0
BBX 11 13 2 -1
BITMAP
FFE0
8020
8020
8020
8020
8020
8020
8020
4040
2080
1100
0A00
0400
ENDCHAR
STARTCHAR uni26CA
ENCODING 9930
SWIDTH 960 0
DWIDTH 16 0
BBX 11 13 2 -1
BITMAP
FFE0
FFE0
FFE0
FFE0
FFE0
FFE0
FFE0
FFE0
7FC0
3F80
1F00
0E00
0400
ENDCHAR
STARTCHAR uni26CB
ENCODING 9931
SWIDTH 960 0
DWIDTH 16 0
BBX 13 13 1 -1
BITMAP
FFF8
8208
8508
8888
9048
A028
C018
A028
9048
8888
8508
8208
FFF8
ENDCHAR
STARTCHAR uni26D3
ENCODING 9939
SWIDTH 960 0
DWIDTH 16 0
BBX 13 15 1 -2
BITMAP
A820
7070
20A8
2088
7088
A8A8
8870
8820
A820
7070
20A8
2088
7088
A8A8
8870
ENDCHAR
STARTCHAR uni26E2
ENCODING 9954
SWIDTH 960 0
DWIDTH 16 0
BBX 7 15 4 -2
BITMAP
10
38
54
92
10
10
10
10
38
44
82
92
82
44
38
ENDCHAR
STARTCHAR uni26E8
ENCODING 9960
SWIDTH 960 0
DWIDTH 16 0
BBX 11 13 2 -1
BITMAP
FFE0
8020
8420
8420
8420
BFA0
8420
8420
8420
4440
2080
1100
0E00
ENDCHAR
STARTCHAR uni26E9
ENCODING 9961
SWIDTH 960 0
DWIDTH 16 0
BBX 13 13 1 -1
BITMAP
E038
7FF0
3FE0
2220
2220
FFF8
2020
2020
2020
2020
2020
2020
7070
ENDCHAR
STARTCHAR uni26EA
ENCODING 9962
SWIDTH 960 0
DWIDTH 16 0
BBX 13 13 1 -1
BITMAP
0200
0700
0200
0500
0880
0A80
38E0
4890
8A88
AAA8
AAA8
AAA8
FFF8
ENDCHAR
STARTCHAR uni26EB
ENCODING 9963
SWIDTH 960 0
DWIDTH 16 0
BBX 13 13 1 -1
BITMAP
E738
A528
BDE8
8008
9048
9048
9048
8008
8708
8708
8708
8708
FFF8
ENDCHAR
STARTCHAR uni26EC
ENCODING 9964
SWIDTH 960 0
DWIDTH 16 0
BBX 10 10 3 1
BITMAP
0C00
0C00
0000
0000
0000
0000
0000
0000
C0C0
C0C0
ENDCHAR
STARTCHAR uni26F1
ENCODING 9969
SWIDTH 960 0
DWIDTH 16 0
BBX 15 14 0 -2
BITMAP
0E00
0780
03E8
01F0
00F8
0078
00BC
011C
020E
0406
0802
1000
2000
FFFC
ENDCHAR
STARTCHAR uni26F2
ENCODING 9970
SWIDTH 960 0
DWIDTH 16 0
BBX 13 13 1 -1
BITMAP
28A0
4510
8508
9048
0000
4710
1FC0
0F80
0700
0700
FFF8
7FF0
3FE0
ENDCHAR
STARTCHAR uni26F5
ENCODING 9973
SWIDTH 960 0
DWIDTH 16 0
BBX 15 13 0 -1
BITMAP
0080
00C0
02A0
06A0
0A90
1290
2288
7EF8
0080
FFFE
3FFC
1FF8
0FF0
ENDCHAR
STARTCHAR uni26F6
ENCODING 9974
SWIDTH 960 0
DWIDTH 16 0
BBX 13 13 1 -1
BITMAP
7070
8008
8008
8008
0000
0000
0000
0000
0000
8008
8008
8008
7070
ENDCHAR
STARTCHAR uni26FC
ENCODING 9980
SWIDTH 960 0
DWIDTH 16 0
BBX 13 12 1 0
BITMAP
0200
0200
0200
0200
1FC0
0000
0000
2020
2020
2020
2020
F8F8
ENDCHAR
STARTCHAR uni26FD
ENCODING 9981
SWIDTH 960 0
DWIDTH 16 0
BBX 15 13 0 -1
BITMAP
1F80
3FC0
2078
2044
3FC2
3FF2
3FCA
3FCA
3FCA
3FCA
3FC4
3FC0
FFF0
ENDCHAR
STARTCHAR uni26FF
ENCODING 9983
SWIDTH 960 0
DWIDTH 16 0
BBX 15 15 0 -2
BITMAP
FFFE
8002
8002
FFFE
FFFE
FFFE
FFFE
8002
8002
FFFE
8000
8000
8000
8000
8000
ENDCHAR
STARTCHAR uni2708
ENCODING 9992
SWIDTH 960 0
DWIDTH 16 0
BBX 15 15 0 -2
BITMAP
0400
0780
0300
03E0
0180
81C0
C7E0
FFFE
C7E0
81C0
0180
03E0
0300
0780
0400
ENDCHAR
STARTCHAR uni2709
ENCODING 9993
SWIDTH 960 0
DWIDTH 16 0
BBX 15 11 0 0
BITMAP
FFFE
C006
A00A
9012
8822
8442
8382
8002
8002
8002
FFFE
ENDCHAR
STARTCHAR uni2776
ENCODING 10102
SWIDTH 960 0
DWIDTH 16 0
BBX 15 15 0 -2
BITMAP
07C0
1FF0
3FF8
7EFC
7CFC
FAFE
FEFE
FEFE
FEFE
FEFE
7EFC
783C
3FF8
1FF0
07C0
ENDCHAR
STARTCHAR uni2777
ENCODING 10103
SWIDTH 960 0
DWIDTH 16 0
BBX 15 15 0 -2
BITMAP
07C0
1FF0
3FF8
7C7C
7BBC
FFBE
FFBE
FF7E
FEFE
FDFE
7BFC
783C
3FF8
1FF0
07C0
ENDCHAR
STARTCHAR uni2778
ENCODING 10104
SWIDTH 960 0
DWIDTH 16 0
BBX 15 15 0 -2
BITMAP
07C0
1FF0
3FF8
7C7C
7BBC
FFBE
FFBE
FE7E
FFBE
FFBE
7BBC
7C7C
3FF8
1FF0
07C0
ENDCHAR
STARTCHAR uni2779
ENCODING 10105
SWIDTH 960 0
DWIDTH 16 0
BBX 15 15 0 -2
BITMAP
07C0
1FF0
3FF8
7E7C
7D7C
FD7E
FD7E
FB7E
FB7E
F83E
7F7C
7F7C
3FF8
1FF0
07C0
ENDCHAR
STARTCHAR uni277A
ENCODING 10106
SWIDTH 960 0
DWIDTH 16 0
BBX 15 15 0 -2
BITMAP
07C0
1FF0
3FF8
783C
7BFC
FBFE
FBFE
F87E
FFBE
FFBE
7BBC
7C7C
3FF8
1FF0
07C0
ENDCHAR
STARTCHAR uni277B
ENCODING 10107
SWIDTH 960 0
DWIDTH 16 0
BBX 15 15 0 -2
BITMAP
07C0
1FF0
3FF8
7C7C
7BBC
FBFE
FBFE
F87E
FBBE
FBBE
7BBC
7C7C
3FF8
1FF0
07C0
ENDCHAR
STARTCHAR uni277C
ENCODING 10108
SWIDTH 960 0
DWIDTH 16 0
BBX 15 15 0 -2
BITMAP
07C0
1FF0
3FF8
783C
7FBC
FFBE
FF7E
FF7E
FEFE
FEFE
7EFC
7EFC
3FF8
1FF0
07C0
ENDCHAR
STARTCHAR uni277D
ENCODING 10109
SWIDTH 960 0
DWIDTH 16 0
BBX 15 15 0 -2
BITMAP
07C0
1FF0
3FF8
7C7C
7BBC
FBBE
FBBE
FC7E
FBBE
FBBE
7BBC
7C7C
3FF8
1FF0
07C0
ENDCHAR
STARTCHAR uni277E
ENCODING 10110
SWIDTH 960 0
DWIDTH 16 0
BBX 15 15 0 -2
BITMAP
07C0
1FF0
3FF8
7C7C
7BBC
FBBE
FBBE
FC3E
FFBE
FFBE
7BBC
7C7C
3FF8
1FF0
07C0
ENDCHAR
STARTCHAR uni277F
ENCODING 10111
SWIDTH 960 0
DWIDTH 16 0
BBX 15 15 0 -2
BITMAP
07C0
1FF0
3FF8
771C
66EC
F6EE
F6CE
F6AE
F66E
F6EE
76EC
631C
3FF8
1FF0
07C0
ENDCHAR
STARTCHAR uni2780
ENCODING 10112
SWIDTH 960 0
DWIDTH 16 0
BBX 15 15 0 -2
BITMAP
07C0
1830
2008
4104
4304
8502
8102
8102
8102
8102
4104
47C4
2008
1830
07C0
ENDCHAR
STARTCHAR uni2781
ENCODING 10113
SWIDTH 960 0
DWIDTH 16 0
BBX 15 15 0 -2
BITMAP
07C0
1830
2008
4384
4444
8042
8042
8082
8102
8202
4404
47C4
2008
1830
07C0
ENDCHAR
STARTCHAR uni2782
ENCODING 10114
SWIDTH 960 0
DWIDTH 16 0
BBX 15 15 0 -2
BITMAP
07C0
1830
2008
4384
4444
8042
8042
8182
8042
8042
4444
4384
2008
1830
07C0
ENDCHAR
STARTCHAR uni2783
ENCODING 10115
SWIDTH 960 0
DWIDTH 16 0
BBX 15 15 0 -2
BITMAP
07C0
1830
2008
4184
4284
8282
8282
8482
8482
87C2
4084
4084
2008
1830
07C0
ENDCHAR
STARTCHAR uni2784
ENCODING 10116
SWIDTH 960 0
DWIDTH 16 0
BBX 15 15 0 -2
BITMAP
07C0
1830
2008
47C4
4404
8402
8402
8782
8042
8042
4444
4384
2008
1830
07C0
ENDCHAR
STARTCHAR uni2785
ENCODING 10117
SWIDTH 960 0
DWIDTH 16 0
BBX 15 15 0 -2
BITMAP
07C0
1830
2008
4384
4444
8402
8402
8782
8442
8442
4444
4384
2008
1830
07C0
ENDCHAR
STARTCHAR uni2786
ENCODING 10118
SWIDTH 960 0
DWIDTH 16 0
BBX 15 15 0 -2
BITMAP
07C0
1830
2008
47C4
4044
8042
8082
8082
8102
8102
4104
4104
2008
1830
07C0
ENDCHAR
STARTCHAR uni2787
ENCODING 10119
SWIDTH 960 0
DWIDTH 16 0
BBX 15 15 0 -2
BITMAP
07C0
1830
2008
4384
4444
8442
8442
8382
8442
8442
4444
4384
2008
1830
07C0
ENDCHAR
STARTCHAR uni2788
ENCODING 10120
SWIDTH 960 0
DWIDTH 16 0
BBX 15 15 0 -2
BITMAP
07C0
1830
2008
4384
4444
8442
8442
83C2
8042
8042
4444
4384
2008
1830
07C0
ENDCHAR
STARTCHAR uni2789
ENCODING 10121
SWIDTH 960 0
DWIDTH 16 0
BBX 15 15 0 -2
BITMAP
07C0
1830
2008
48E4
5914
8912
8932
8952
8992
8912
4914
5CE4
2008
1830
07C0
ENDCHAR
STARTCHAR uni278A
ENCODING 10122
SWIDTH 960 0
DWIDTH 16 0
BBX 15 15 0 -2
BITMAP
07C0
1FF0
3FF8
7EFC
7CFC
FAFE
FEFE
FEFE
FEFE
FEFE
7EFC
783C
3FF8
1FF0
07C0
ENDCHAR
STARTCHAR uni278B
ENCODING 10123
SWIDTH 960 0
DWIDTH 16 0
BBX 15 15 0 -2
BITMAP
07C0
1FF0
3FF8
7C7C
7BBC
FFBE
FFBE
FF7E
FEFE
FDFE
7BFC
783C
3FF8
1FF0
07C0
ENDCHAR
STARTCHAR uni278C
ENCODING 10124
SWIDTH 960 0
DWIDTH 16 0
BBX 15 15 0 -2
BITMAP
07C0
1FF0
3FF8
7C7C
7BBC
FFBE
FFBE
FE7E
FFBE
FFBE
7BBC
7C7C
3FF8
1FF0
07C0
ENDCHAR
STARTCHAR uni278D
ENCODING 10125
SWIDTH 960 0
DWIDTH 16 0
BBX 15 15 0 -2
BITMAP
07C0
1FF0
3FF8
7E7C
7D7C
FD7E
FD7E
FB7E
FB7E
F83E
7F7C
7F7C
3FF8
1FF0
07C0
ENDCHAR
STARTCHAR uni278E
ENCODING 10126
SWIDTH 960 0
DWIDTH 16 0
BBX 15 15 0 -2
BITMAP
07C0
1FF0
3FF8
783C
7BFC
FBFE
FBFE
F87E
FFBE
FFBE
7BBC
7C7C
3FF8
1FF0
07C0
ENDCHAR
STARTCHAR uni278F
ENCODING 10127
SWIDTH 960 0
DWIDTH 16 0
BBX 15 15 0 -2
BITMAP
07C0
1FF0
3FF8
7C7C
7BBC
FBFE
FBFE
F87E
FBBE
FBBE
7BBC
7C7C
3FF8
1FF0
07C0
ENDCHAR
STARTCHAR uni2790
ENCODING 10128
SWIDTH 960 0
DWIDTH 16 0
BBX 15 15 0 -2
BITMAP
07C0
1FF0
3FF8
783C
7FBC
FFBE
FF7E
FF7E
FEFE
FEFE
7EFC
7EFC
3FF8
1FF0
07C0
ENDCHAR
STARTCHAR uni2791
ENCODING 10129
SWIDTH 960 0
DWIDTH 16 0
BBX 15 15 0 -2
BITMAP
07C0
1FF0
3FF8
7C7C
7BBC
FBBE
FBBE
FC7E
FBBE
FBBE
7BBC
7C7C
3FF8
1FF0
07C0
ENDCHAR
STARTCHAR uni2792
ENCODING 10130
SWIDTH 960 0
DWIDTH 16 0
BBX 15 15 0 -2
BITMAP
07C0
1FF0
3FF8
7C7C
7BBC
FBBE
FBBE
FC3E
FFBE
FFBE
7BBC
7C7C
3FF8
1FF0
07C0
ENDCHAR
STARTCHAR uni2793
ENCODING 10131
SWIDTH 960 0
DWIDTH 16 0
BBX 15 15 0 -2
BITMAP
07C0
1FF0
3FF8
771C
66EC
F6EE
F6CE
F6AE
F66E
F6EE
76EC
631C
3FF8
1FF0
07C0
ENDCHAR
STARTCHAR uni3000
ENCODING 12288
SWIDTH 960 0
DWIDTH 16 0
BBX 0 0 16 -2
BITMAP
ENDCHAR
STARTCHAR uni3001
ENCODING 12289
SWIDTH 960 0
DWIDTH 16 0
BBX 4 4 2 -2
BITMAP
80
60
30
10
ENDCHAR
STARTCHAR uni3002
ENCODING 12290
SWIDTH 960 0
DWIDTH 16 0
BBX 4 4 2 -2
BITMAP
60
90
90
60
ENDCHAR
STARTCHAR uni3003
ENCODING 12291
SWIDTH 960 0
DWIDTH 16 0
BBX 7 7 4 2
BITMAP
22
22
44
44
44
88
88
ENDCHAR
STARTCHAR uni3004
ENCODING 12292
SWIDTH 960 0
DWIDTH 16 0
BBX 15 15 0 -2
BITMAP
0700
1830
2028
4024
4124
81A2
8142
8102
8D02
9302
5104
4804
2408
1830
01C0
ENDCHAR
STARTCHAR uni3005
ENCODING 12293
SWIDTH 960 0
DWIDTH 16 0
BBX 11 11 2 0
BITMAP
1000
1000
1FE0
2020
2020
4040
8040
0C80
0300
0080
0040
ENDCHAR
STARTCHAR uni3006
ENCODING 12294
SWIDTH 960 0
DWIDTH 16 0
BBX 11 11 2 0
BITMAP
0020
0040
1880
2500
4200
4500
8880
9040
A020
C000
8000
ENDCHAR
STARTCHAR uni3007
ENCODING 12295
SWIDTH 960 0
DWIDTH 16 0
BBX 15 15 0 -2
BITMAP
07C0
1830
2008
4004
4004
8002
8002
8002
8002
8002
4004
4004
2008
1830
07C0
ENDCHAR
STARTCHAR uni3008
ENCODING 12296
SWIDTH 960 0
DWIDTH 16 0
BBX 4 15 10 -2
BITMAP
10
10
20
20
40
40
80
80
80
40
40
20
20
10
10
ENDCHAR
STARTCHAR uni3009
ENCODING 12297
SWIDTH 960 0
DWIDTH 16 0
BBX 4 15 1 -2
BITMAP
80
80
40
40
20
20
10
10
10
20
20
40
40
80
80
ENDCHAR
STARTCHAR uni300A
ENCODING 12298
SWIDTH 960 0
DWIDTH 16 0
BBX 7 15 7 -2
BITMAP
12
12
24
24
48
48
90
90
90
48
48
24
24
12
12
ENDCHAR
STARTCHAR uni300B
ENCODING 12299
SWIDTH 960 0
DWIDTH 16 0
BBX 7 15 1 -2
BITMAP
90
90
48
48
24
24
12
12
12
24
24
48
48
90
90
ENDCHAR
STARTCHAR uni300C
ENCODING 12300
SWIDTH 960 0
DWIDTH 16 0
BBX 5 11 9 2
BITMAP
F8
80
80
80
80
80
80
80
80
80
80
ENDCHAR
STARTCHAR uni300D
ENCODING 12301
SWIDTH 960 0
DWIDTH 16 0
BBX 5 11 1 -2
BITMAP
08
08
08
08
08
08
08
08
08
08
F8
ENDCHAR
STARTCHAR uni300E
ENCODING 12302
SWIDTH 960 0
DWIDTH 16 0
BBX 6 11 8 2
BITMAP
FC
84
BC
A0
A0
A0
A0
A0
A0
A0
E0
ENDCHAR
STARTCHAR uni300F
ENCODING 12303
SWIDTH 960 0
DWIDTH 16 0
BBX 6 11 1 -2
BITMAP
1C
14
14
14
14
14
14
14
F4
84
FC
ENDCHAR
STARTCHAR uni3010
ENCODING 12304
SWIDTH 960 0
DWIDTH 16 0
BBX 6 15 8 -2
BITMAP
FC
F8
F0
F0
E0
E0
E0
E0
E0
E0
E0
F0
F0
F8
FC
ENDCHAR
STARTCHAR uni3011
ENCODING 12305
SWIDTH 960 0
DWIDTH 16 0
BBX 6 15 1 -2
BITMAP
FC
7C
3C
3C
1C
1C
1C
1C
1C
1C
1C
3C
3C
7C
FC
ENDCHAR
STARTCHAR uni3012
ENCODING 12306
SWIDTH 960 0
DWIDTH 16 0
BBX 11 11 2 0
BITMAP
FFE0
0000
0000
0000
FFE0
0400
0400
0400
0400
0400
0400
ENDCHAR
STARTCHAR uni3013
ENCODING 12307
SWIDTH 960 0
DWIDTH 16 0
BBX 13 13 1 -1
BITMAP
FFF8
FFF8
FFF8
FFF8
FFF8
0000
0000
0000
FFF8
FFF8
FFF8
FFF8
FFF8
ENDCHAR
STARTCHAR uni3014
ENCODING 12308
SWIDTH 960 0
DWIDTH 16 0
BBX 4 15 10 -2
BITMAP
10
20
40
80
80
80
80
80
80
80
80
80
40
20
10
ENDCHAR
STARTCHAR uni3015
ENCODING 12309
SWIDTH 960 0
DWIDTH 16 0
BBX 4 15 1 -2
BITMAP
80
40
20
10
10
10
10
10
10
10
10
10
20
40
80
ENDCHAR
STARTCHAR uni3016
ENCODING 12310
SWIDTH 960 0
DWIDTH 16 0
BBX 6 15 8 -2
BITMAP
FC
88
90
90
A0
A0
A0
A0
A0
A0
A0
90
90
88
FC
ENDCHAR
STARTCHAR uni3017
ENCODING 12311
SWIDTH 960 0
DWIDTH 16 0
BBX 6 15 1 -2
BITMAP
FC
44
24
24
14
14
14
14
14
14
14
24
24
44
FC
ENDCHAR
STARTCHAR uni3018
ENCODING 12312
SWIDTH 960 0
DWIDTH 16 0
BBX 5 15 9 -2
BITMAP
18
28
50
A0
A0
A0
A0
A0
A0
A0
A0
A0
50
28
18
ENDCHAR
STARTCHAR uni3019
ENCODING 12313
SWIDTH 960 0
DWIDTH 16 0
BBX 5 15 1 -2
BITMAP
C0
A0
50
28
28
28
28
28
28
28
28
28
50
A0
C0
ENDCHAR
STARTCHAR uni301A
ENCODING 12314
SWIDTH 960 0
DWIDTH 16 0
BBX 5 15 9 -2
BITMAP
F8
A0
A0
A0
A0
A0
A0
A0
A0
A0
A0
A0
A0
A0
F8
ENDCHAR
STARTCHAR uni301B
ENCODING 12315
SWIDTH 960 0
DWIDTH 16 0
BBX 5 15 1 -2
BITMAP
F8
28
28
28
28
28
28
28
28
28
28
28
28
28
F8
ENDCHAR
STARTCHAR uni301C
ENCODING 12316
SWIDTH 960 0
DWIDTH 16 0
BBX 15 5 0 3
BITMAP
3800
4602
8102
80C4
0038
ENDCHAR
STARTCHAR uni301D
ENCODING 12317
SWIDTH 960 0
DWIDTH 16 0
BBX 4 4 10 9
BITMAP
A0
A0
50
50
ENDCHAR
STARTCHAR uni301E
ENCODING 12318
SWIDTH 960 0
DWIDTH 16 0
BBX 4 4 1 9
BITMAP
50
50
A0
A0
ENDCHAR
STARTCHAR uni301F
ENCODING 12319
SWIDTH 960 0
DWIDTH 16 0
BBX 4 4 1 -2
BITMAP
A0
A0
50
50
ENDCHAR
STARTCHAR uni3020
ENCODING 12320
SWIDTH 960 0
DWIDTH 16 0
BBX 15 11 0 0
BITMAP
3FF8
0000
3FF8
4104
4924
9552
8102
4824
47C4
2008
1FF0
ENDCHAR
STARTCHAR uni3021
ENCODING 12321
SWIDTH 960 0
DWIDTH 16 0
BBX 1 15 7 -2
BITMAP
80
80
80
80
80
80
80
80
80
80
80
80
80
80
80
ENDCHAR
STARTCHAR uni3022
ENCODING 12322
SWIDTH 960 0
DWIDTH 16 0
BBX 7 15 4 -2
BITMAP
02
82
82
82
82
82
82
82
82
82
82
82
82
82
02
ENDCHAR
STARTCHAR uni3023
ENCODING 12323
SWIDTH 960 0
DWIDTH 16 0
BBX 9 15 3 -2
BITMAP
0080
8080
8880
8880
8880
8880
8880
8880
8880
8880
8880
8880
8880
8080
0080
ENDCHAR
STARTCHAR uni3024
ENCODING 12324
SWIDTH 960 0
DWIDTH 16 0
BBX 14 15 0 -2
BITMAP
0010
0010
4010
2010
1010
0810
0420
0220
0140
0080
0140
0220
0C10
3008
C004
ENDCHAR
STARTCHAR uni3025
ENCODING 12325
SWIDTH 960 0
DWIDTH 16 0
BBX 11 15 2 -2
BITMAP
1020
2040
C080
3100
0E00
0900
1080
2080
2080
2080
2080
2080
2080
1100
0E00
ENDCHAR
STARTCHAR uni3026
ENCODING 12326
SWIDTH 960 0
DWIDTH 16 0
BBX 15 4 0 9
BITMAP
0100
0100
0100
FFFE
ENDCHAR
STARTCHAR uni3027
ENCODING 12327
SWIDTH 960 0
DWIDTH 16 0
BBX 15 9 0 4
BITMAP
0100
0100
0100
FFFE
0000
0000
0000
0000
7FFC
ENDCHAR
STARTCHAR uni3028
ENCODING 12328
SWIDTH 960 0
DWIDTH 16 0
BBX 15 15 0 -2
BITMAP
0100
0100
0100
FFFE
0000
0000
0000
0000
7FFC
0000
0000
0000
0000
0000
FFFE
ENDCHAR
STARTCHAR uni3029
ENCODING 12329
SWIDTH 960 0
DWIDTH 16 0
BBX 15 15 0 -2
BITMAP
0800
0800
0800
0FFE
1010
1010
2810
4420
8220
0140
0080
0140
0620
1810
E008
ENDCHAR
STARTCHAR uni3036
ENCODING 12342
SWIDTH 960 0
DWIDTH 16 0
BBX 15 15 0 -2
BITMAP
07C0
1830
2008
4004
5FF4
8002
8002
9FF2
8102
8102
4104
4104
2108
1830
07C0
ENDCHAR
STARTCHAR uni3037
ENCODING 12343
SWIDTH 960 0
DWIDTH 16 0
BBX 15 15 0 -2
BITMAP
8282
8282
4444
4444
2828
2828
1010
1010
1010
2828
2828
4444
4444
8282
8282
ENDCHAR
STARTCHAR uni3038
ENCODING 12344
SWIDTH 960 0
DWIDTH 16 0
BBX 15 15 0 -2
BITMAP
0100
0100
0100
0100
0100
0100
FFFE
0100
0100
0100
0100
0100
0100
0100
0100
ENDCHAR
STARTCHAR uni3039
ENCODING 12345
SWIDTH 960 0
DWIDTH 16 0
BBX 15 15 0 -2
BITMAP
0820
0820
0820
0820
0820
0820
FFFE
0820
0820
0820
0820
0820
0820
0820
0820
ENDCHAR
STARTCHAR uni303A
ENCODING 12346
SWIDTH 960 0
DWIDTH 16 0
BBX 15 15 0 -2
BITMAP
1010
1110
1110
1110
1110
1110
FFFE
1110
1110
1110
1110
2110
2110
4110
8010
ENDCHAR
STARTCHAR uni303C
ENCODING 12348
SWIDTH 960 0
DWIDTH 16 0
BBX 15 15 0 -2
BITMAP
FFFE
8006
800A
8012
8022
8042
8082
8102
8202
8402
8802
9002
A002
C002
FFFE
ENDCHAR
STARTCHAR uni303E
ENCODING 12350
SWIDTH 960 0
DWIDTH 16 0
BBX 15 15 0 -2
BITMAP
DBB6
8002
0000
8612
8922
10C0
8002
8082
9FF2
0100
8202
9FF2
0400
8002
DBB6
ENDCHAR
STARTCHAR uni303F
ENCODING 12351
SWIDTH 960 0
DWIDTH 16 0
BBX 9 15 3 -2
BITMAP
FF80
C180
A280
A280
9480
9480
8880
8880
8880
9480
9480
A280
A280
C180
FF80
ENDCHAR
STARTCHAR uni3041
ENCODING 12353
SWIDTH 960 0
DWIDTH 16 0
BBX 11 12 2 -2
BITMAP
0800
0800
7FC0
0800
0800
1F80
2940
4920
8A20
8C20
8840
7180
ENDCHAR
STARTCHAR uni3042
ENCODING 12354
SWIDTH 960 0
DWIDTH 16 0
BBX 15 15 0 -2
BITMAP
0400
0400
7FF8
0400
0440
07E0
1C58
2444
4482
8482
8502
8202
4604
3908
0030
ENDCHAR
STARTCHAR uni3043
ENCODING 12355
SWIDTH 960 0
DWIDTH 16 0
BBX 11 11 2 -2
BITMAP
8080
8080
8080
8040
8040
8040
8020
8420
4420
4800
3000
ENDCHAR
STARTCHAR uni3044
ENCODING 12356
SWIDTH 960 0
DWIDTH 16 0
BBX 13 14 1 -2
BITMAP
8000
8040
8040
8020
8020
8010
8010
8010
8008
8008
8208
4200
4400
3800
ENDCHAR
STARTCHAR uni3045
ENCODING 12357
SWIDTH 960 0
DWIDTH 16 0
BBX 9 12 3 -2
BITMAP
3800
0600
0000
1E00
E100
0080
0080
0080
0080
0100
0600
3800
ENDCHAR
STARTCHAR uni3046
ENCODING 12358
SWIDTH 960 0
DWIDTH 16 0
BBX 13 15 1 -2
BITMAP
1C00
0380
0060
0000
0000
0FC0
3020
C010
0008
0008
0008
0010
0020
01C0
1E00
ENDCHAR
STARTCHAR uni3047
ENCODING 12359
SWIDTH 960 0
DWIDTH 16 0
BBX 11 12 2 -2
BITMAP
1800
0700
0000
0000
7F80
0100
0200
0400
0A00
1200
2200
C1E0
ENDCHAR
STARTCHAR uni3048
ENCODING 12360
SWIDTH 960 0
DWIDTH 16 0
BBX 15 15 0 -2
BITMAP
1800
0700
00E0
0000
0000
7FF0
0020
0040
0080
0180
0240
0440
0840
3040
C03E
ENDCHAR
STARTCHAR uni3049
ENCODING 12361
SWIDTH 960 0
DWIDTH 16 0
BBX 11 12 2 -2
BITMAP
0800
0800
7E80
0840
0820
3F80
4840
8820
8820
8820
8840
7180
ENDCHAR
STARTCHAR uni304A
ENCODING 12362
SWIDTH 960 0
DWIDTH 16 0
BBX 15 15 0 -2
BITMAP
0400
0400
0408
7FC4
0402
0402
07C0
1C30
2408
4404
8404
8404
8408
4410
38E0
ENDCHAR
STARTCHAR uni304B
ENCODING 12363
SWIDTH 960 0
DWIDTH 16 0
BBX 14 15 0 -2
BITMAP
0800
0800
0800
0810
FF88
0848
0844
1044
1044
1040
2040
2040
4080
4080
8700
ENDCHAR
STARTCHAR uni304C
ENCODING 12364
SWIDTH 960 0
DWIDTH 16 0
BBX 15 15 0 -2
BITMAP
0814
080A
080A
0820
FF90
0850
0848
1048
1048
1040
2040
2040
4080
4080
8700
ENDCHAR
STARTCHAR uni304D
ENCODING 12365
SWIDTH 960 0
DWIDTH 16 0
BBX 14 15 0 -2
BITMAP
0400
0400
0278
7F80
0200
011C
FFE0
0080
0040
1FE0
2018
2000
2000
1000
0FF0
ENDCHAR
STARTCHAR uni304E
ENCODING 12366
SWIDTH 960 0
DWIDTH 16 0
BBX 15 15 0 -2
BITMAP
0414
040A
026A
7F80
0200
011C
FFE0
0080
0040
1FE0
2018
2000
2000
1000
0FF0
ENDCHAR
STARTCHAR uni304F
ENCODING 12367
SWIDTH 960 0
DWIDTH 16 0
BBX 12 15 1 -2
BITMAP
0010
0020
0040
0180
0600
1800
6000
8000
6000
1800
0600
0180
0040
0020
0010
ENDCHAR
STARTCHAR uni3050
ENCODING 12368
SWIDTH 960 0
DWIDTH 16 0
BBX 14 15 1 -2
BITMAP
0010
0020
0040
0180
0628
1814
6014
8000
6000
1800
0600
0180
0040
0020
0010
ENDCHAR
STARTCHAR uni3051
ENCODING 12369
SWIDTH 960 0
DWIDTH 16 0
BBX 15 15 0 -2
BITMAP
4020
4020
4020
4020
87FE
8020
8020
8020
8020
8020
8020
8040
4040
4080
4300
ENDCHAR
STARTCHAR uni3052
ENCODING 12370
SWIDTH 960 0
DWIDTH 16 0
BBX 15 15 0 -2
BITMAP
4054
404A
404A
4040
8FFC
8040
8040
8040
8040
8040
8040
8080
4080
4100
4600
ENDCHAR
STARTCHAR uni3053
ENCODING 12371
SWIDTH 960 0
DWIDTH 16 0
BBX 13 13 1 -2
BITMAP
7FF0
0000
0000
0000
0000
0000
4000
8000
8000
8000
8000
4000
3FF8
ENDCHAR
STARTCHAR uni3054
ENCODING 12372
SWIDTH 960 0
DWIDTH 16 0
BBX 14 15 1 -2
BITMAP
0028
0014
7FD4
0000
0000
0000
0000
0000
4000
8000
8000
8000
8000
4000
3FF8
ENDCHAR
STARTCHAR uni3055
ENCODING 12373
SWIDTH 960 0
DWIDTH 16 0
BBX 14 15 0 -2
BITMAP
0400
0400
0200
023C
FFC0
0100
0080
0040
0FE0
1018
2000
2000
2000
1000
0FF0
ENDCHAR
STARTCHAR uni3056
ENCODING 12374
SWIDTH 960 0
DWIDTH 16 0
BBX 15 15 0 -2
BITMAP
0414
040A
020A
027C
FF80
0100
0080
0040
0FE0
1018
2000
2000
2000
1000
0FF0
ENDCHAR
STARTCHAR uni3057
ENCODING 12375
SWIDTH 960 0
DWIDTH 16 0
BBX 12 15 1 -2
BITMAP
8000
8000
8000
8000
8000
8000
8000
8000
8000
8000
8010
8020
8040
4180
3E00
ENDCHAR
STARTCHAR uni3058
ENCODING 12376
SWIDTH 960 0
DWIDTH 16 0
BBX 12 15 1 -2
BITMAP
8000
8000
8140
80A0
80A0
8000
8000
8000
8000
8000
8010
8020
8040
4180
3E00
ENDCHAR
STARTCHAR uni3059
ENCODING 12377
SWIDTH 960 0
DWIDTH 16 0
BBX 14 15 0 -2
BITMAP
0080
0080
0080
FFFC
0080
0080
0E80
1180
1080
1180
0E80
0080
0100
0200
1C00
ENDCHAR
STARTCHAR uni305A
ENCODING 12378
SWIDTH 960 0
DWIDTH 16 0
BBX 15 15 0 -2
BITMAP
0094
008A
008A
FFFC
0080
0080
0E80
1180
1080
1180
0E80
0080
0100
0200
1C00
ENDCHAR
STARTCHAR uni305B
ENCODING 12379
SWIDTH 960 0
DWIDTH 16 0
BBX 15 15 0 -2
BITMAP
1020
1020
1020
1020
1020
FFFE
1020
1020
1020
1020
11C0
1000
1000
0800
07F8
ENDCHAR
STARTCHAR uni305C
ENCODING 12380
SWIDTH 960 0
DWIDTH 16 0
BBX 15 15 0 -2
BITMAP
2054
204A
204A
2040
2040
FFFC
2040
2040
2040
2040
2380
2000
2000
1000
0FF0
ENDCHAR
STARTCHAR uni305D
ENCODING 12381
SWIDTH 960 0
DWIDTH 16 0
BBX 15 14 0 -2
BITMAP
1FE0
0040
0080
0300
0400
0FFE
F0C0
0300
0400
0800
0800
0800
0400
03F0
ENDCHAR
STARTCHAR uni305E
ENCODING 12382
SWIDTH 960 0
DWIDTH 16 0
BBX 15 14 0 -2
BITMAP
3FC0
0094
010A
060A
0800
1FFC
E180
0600
0800
1000
1000
1000
0800
07E0
ENDCHAR
STARTCHAR uni305F
ENCODING 12383
SWIDTH 960 0
DWIDTH 16 0
BBX 14 15 0 -2
BITMAP
0800
0800
0800
FFC0
0800
0800
11FC
1000
1000
2000
2100
2200
4200
4200
81FC
ENDCHAR
STARTCHAR uni3060
ENCODING 12384
SWIDTH 960 0
DWIDTH 16 0
BBX 15 15 0 -2
BITMAP
0814
080A
080A
FFC0
0800
0800
11FC
1000
1000
2000
2100
2200
4200
4200
81FC
ENDCHAR
STARTCHAR uni3061
ENCODING 12385
SWIDTH 960 0
DWIDTH 16 0
BBX 13 15 0 -2
BITMAP
0200
0200
0400
0400
FFF8
0800
0800
1000
1FE0
3010
4008
0008
0008
0010
1FE0
ENDCHAR
STARTCHAR uni3062
ENCODING 12386
SWIDTH 960 0
DWIDTH 16 0
BBX 15 15 0 -2
BITMAP
0214
020A
040A
0400
FFF8
0800
0800
1000
1FE0
3010
4008
0008
0008
0010
1FE0
ENDCHAR
STARTCHAR uni3063
ENCODING 12387
SWIDTH 960 0
DWIDTH 16 0
BBX 11 11 2 -2
BITMAP
0F00
3080
C040
0020
0020
0020
0020
0020
0040
0180
0E00
ENDCHAR
STARTCHAR uni3064
ENCODING 12388
SWIDTH 960 0
DWIDTH 16 0
BBX 14 13 0 -2
BITMAP
0FE0
3010
C008
0004
0004
0004
0004
0004
0008
0010
0060
0180
0E00
ENDCHAR
STARTCHAR uni3065
ENCODING 12389
SWIDTH 960 0
DWIDTH 16 0
BBX 15 15 0 -2
BITMAP
0014
000A
0FEA
3010
C008
0004
0004
0004
0004
0004
0008
0010
0060
0180
0E00
ENDCHAR
STARTCHAR uni3066
ENCODING 12390
SWIDTH 960 0
DWIDTH 16 0
BBX 15 13 0 -2
BITMAP
07FE
F840
0080
0100
0200
0200
0400
0400
0400
0400
0200
0100
00F8
ENDCHAR
STARTCHAR uni3067
ENCODING 12391
SWIDTH 960 0
DWIDTH 16 0
BBX 15 13 0 -2
BITMAP
07FE
F840
0080
0114
020A
020A
0400
0400
0400
0400
0200
0100
00F8
ENDCHAR
STARTCHAR uni3068
ENCODING 12392
SWIDTH 960 0
DWIDTH 16 0
BBX 12 15 1 -2
BITMAP
2000
2000
1000
1000
1030
08C0
0B00
0C00
3000
4000
8000
8000
8000
6000
1FF0
ENDCHAR
STARTCHAR uni3069
ENCODING 12393
SWIDTH 960 0
DWIDTH 16 0
BBX 14 15 1 -2
BITMAP
2028
2014
1014
1000
1030
08C0
0B00
0C00
3000
4000
8000
8000
8000
6000
1FF0
ENDCHAR
STARTCHAR uni306A
ENCODING 12394
SWIDTH 960 0
DWIDTH 16 0
BBX 15 15 0 -2
BITMAP
0400
0400
0430
FF8C
0802
0800
1020
1020
2020
2020
47E0
8830
0828
0844
0782
ENDCHAR
STARTCHAR uni306B
ENCODING 12395
SWIDTH 960 0
DWIDTH 16 0
BBX 15 15 0 -2
BITMAP
4000
4000
47FE
4000
8000
8000
8000
8000
8200
8400
8400
8400
4400
4200
41FE
ENDCHAR
STARTCHAR uni306C
ENCODING 12396
SWIDTH 960 0
DWIDTH 16 0
BBX 15 15 0 -2
BITMAP
0080
0080
2080
2080
27E0
2890
3108
5104
5104
8A04
8A04
8474
8488
888C
7072
ENDCHAR
STARTCHAR uni306D
ENCODING 12397
SWIDTH 960 0
DWIDTH 16 0
BBX 15 15 0 -2
BITMAP
1000
1000
1000
1070
F988
1204
1404
1804
1004
3004
5004
90F4
9108
110C
10F2
ENDCHAR
STARTCHAR uni306E
ENCODING 12398
SWIDTH 960 0
DWIDTH 16 0
BBX 15 13 0 -2
BITMAP
07C0
1930
2108
4104
4104
8202
8202
8202
8404
8404
4808
3010
00E0
ENDCHAR
STARTCHAR uni306F
ENCODING 12399
SWIDTH 960 0
DWIDTH 16 0
BBX 15 15 0 -2
BITMAP
4020
4020
4020
4020
8FFE
8020
8020
8020
8020
8020
87E0
8830
4828
4844
4782
ENDCHAR
STARTCHAR uni3070
ENCODING 12400
SWIDTH 960 0
DWIDTH 16 0
BBX 15 15 0 -2
BITMAP
4054
404A
404A
4040
8FFC
8040
8040
8040
8040
8040
87C0
8860
4850
4888
4704
ENDCHAR
STARTCHAR uni3071
ENCODING 12401
SWIDTH 960 0
DWIDTH 16 0
BBX 15 15 0 -2
BITMAP
404C
4052
4052
404C
8FF8
8040
8040
8040
8040
8040
87C0
8860
4850
4888
4704
ENDCHAR
STARTCHAR uni3072
ENCODING 12402
SWIDTH 960 0
DWIDTH 16 0
BBX 15 13 0 -2
BITMAP
FC20
0820
1010
2018
2014
4012
4010
4020
4020
4020
4040
2080
1F00
ENDCHAR
STARTCHAR uni3073
ENCODING 12403
SWIDTH 960 0
DWIDTH 16 0
BBX 15 15 0 -2
BITMAP
0014
000A
FC2A
0820
1010
2018
2014
4012
4010
4020
4020
4020
4040
2080
1F00
ENDCHAR
STARTCHAR uni3074
ENCODING 12404
SWIDTH 960 0
DWIDTH 16 0
BBX 15 15 0 -2
BITMAP
000C
0012
FC12
082C
1010
2018
2014
4012
4010
4020
4020
4020
4040
2080
1F00
ENDCHAR
STARTCHAR uni3075
ENCODING 12405
SWIDTH 960 0
DWIDTH 16 0
BBX 15 15 0 -2
BITMAP
0E00
0180
0060
0000
0100
0100
0100
0088
2084
2044
4042
4042
8042
1080
0F00
ENDCHAR
STARTCHAR uni3076
ENCODING 12406
SWIDTH 960 0
DWIDTH 16 0
BBX 15 15 0 -2
BITMAP
0C00
0314
00CA
000A
0100
0100
0100
0088
2084
2044
4042
4042
8042
1080
0F00
ENDCHAR
STARTCHAR uni3077
ENCODING 12407
SWIDTH 960 0
DWIDTH 16 0
BBX 15 15 0 -2
BITMAP
0C0C
0312
00D2
000C
0100
0100
0100
0088
2084
2044
4042
4042
8042
1080
0F00
ENDCHAR
STARTCHAR uni3078
ENCODING 12408
SWIDTH 960 0
DWIDTH 16 0
BBX 15 10 0 0
BITMAP
0400
0A00
1100
1100
2080
2040
4020
8010
0008
0006
ENDCHAR
STARTCHAR uni3079
ENCODING 12409
SWIDTH 960 0
DWIDTH 16 0
BBX 15 11 0 0
BITMAP
0028
0414
0A14
1100
1100
2080
2040
4020
8010
0008
0006
ENDCHAR
STARTCHAR uni307A
ENCODING 12410
SWIDTH 960 0
DWIDTH 16 0
BBX 15 11 0 0
BITMAP
0018
0424
0A24
1118
1100
2080
2040
4020
8010
0008
0006
ENDCHAR
STARTCHAR uni307B
ENCODING 12411
SWIDTH 960 0
DWIDTH 16 0
BBX 15 15 0 -2
BITMAP
47FE
4020
4020
4020
8020
8FFE
8020
8020
8020
8020
87E0
8830
4828
4844
4782
ENDCHAR
STARTCHAR uni307C
ENCODING 12412
SWIDTH 960 0
DWIDTH 16 0
BBX 15 15 0 -2
BITMAP
47F4
404A
404A
4040
8040
8FFC
8040
8040
8040
8040
87C0
8860
4850
4888
4704
ENDCHAR
STARTCHAR uni307D
ENCODING 12413
SWIDTH 960 0
DWIDTH 16 0
BBX 15 15 0 -2
BITMAP
47EC
4052
4052
404C
8040
8FFC
8040
8040
8040
8040
87C0
8860
4850
4888
4704
ENDCHAR
STARTCHAR uni307E
ENCODING 12414
SWIDTH 960 0
DWIDTH 16 0
BBX 14 15 0 -2
BITMAP
0100
0100
7FF8
0100
0100
0100
FFFC
0100
0100
0100
3F00
4180
4160
4110
3E08
ENDCHAR
STARTCHAR uni307F
ENCODING 12415
SWIDTH 960 0
DWIDTH 16 0
BBX 15 14 0 -2
BITMAP
3F80
0080
0100
0100
0110
0210
0FD0
3238
4214
8412
8420
8820
7040
0080
ENDCHAR
STARTCHAR uni3080
ENCODING 12416
SWIDTH 960 0
DWIDTH 16 0
BBX 15 15 0 -2
BITMAP
0800
0800
0808
FF84
0804
0802
7802
8800
8800
8800
8808
7008
1008
1010
0FE0
ENDCHAR
STARTCHAR uni3081
ENCODING 12417
SWIDTH 960 0
DWIDTH 16 0
BBX 15 15 0 -2
BITMAP
0040
2040
2040
2040
27F0
3848
2084
5082
9102
9102
8A02
8402
8A04
7018
00E0
ENDCHAR
STARTCHAR uni3082
ENCODING 12418
SWIDTH 960 0
DWIDTH 16 0
BBX 14 15 0 -2
BITMAP
0800
0800
0800
FF80
0800
0800
0800
FF88
1008
1004
1004
1004
1008
0810
07E0
ENDCHAR
STARTCHAR uni3083
ENCODING 12419
SWIDTH 960 0
DWIDTH 16 0
BBX 11 12 2 -2
BITMAP
2200
2200
21C0
1620
3820
D020
0840
0980
0800
0400
0400
0400
ENDCHAR
STARTCHAR uni3084
ENCODING 12420
SWIDTH 960 0
DWIDTH 16 0
BBX 15 15 0 -2
BITMAP
0080
1080
1040
1040
08F8
0F04
3802
C802
0802
040C
0470
0400
0200
0200
0200
ENDCHAR
STARTCHAR uni3085
ENCODING 12421
SWIDTH 960 0
DWIDTH 16 0
BBX 11 12 2 -2
BITMAP
4200
4200
9F80
A240
C220
C220
9220
9240
8F80
0200
0200
1C00
ENDCHAR
STARTCHAR uni3086
ENCODING 12422
SWIDTH 960 0
DWIDTH 16 0
BBX 15 15 0 -2
BITMAP
0080
4080
43E0
8C98
9084
A082
C082
C082
8082
9084
8898
87E0
0100
0200
0C00
ENDCHAR
STARTCHAR uni3087
ENCODING 12423
SWIDTH 960 0
DWIDTH 16 0
BBX 11 12 2 -2
BITMAP
0400
0400
0400
07E0
0400
0400
0400
7C00
8600
8580
8440
7820
ENDCHAR
STARTCHAR uni3088
ENCODING 12424
SWIDTH 960 0
DWIDTH 16 0
BBX 13 15 1 -2
BITMAP
0200
0200
0200
0200
03F0
0200
0200
0200
0200
0200
7E00
8380
8260
8210
7C08
ENDCHAR
STARTCHAR uni3089
ENCODING 12425
SWIDTH 960 0
DWIDTH 16 0
BBX 12 15 2 -2
BITMAP
1800
0600
01C0
4000
4000
8000
8FC0
B020
C010
0010
0010
0020
0040
0380
3C00
ENDCHAR
STARTCHAR uni308A
ENCODING 12426
SWIDTH 960 0
DWIDTH 16 0
BBX 11 15 2 -2
BITMAP
4780
4840
9020
A020
A020
C020
C020
8020
8020
0020
0040
0040
0080
0300
3C00
ENDCHAR
STARTCHAR uni308B
ENCODING 12427
SWIDTH 960 0
DWIDTH 16 0
BBX 15 15 0 -2
BITMAP
3FF0
0020
0040
0080
0300
0400
0FF0
3008
C004
0002
0E02
1102
1104
1118
0FE0
ENDCHAR
STARTCHAR uni308C
ENCODING 12428
SWIDTH 960 0
DWIDTH 16 0
BBX 15 15 0 -2
BITMAP
1000
1000
1000
10E0
F910
1210
1410
1810
1010
3020
5020
5020
9020
9022
101C
ENDCHAR
STARTCHAR uni308D
ENCODING 12429
SWIDTH 960 0
DWIDTH 16 0
BBX 15 15 0 -2
BITMAP
3FF0
0020
0040
0080
0300
0400
0FF0
3008
C004
0002
0002
0002
0004
0018
0FE0
ENDCHAR
STARTCHAR uni308E
ENCODING 12430
SWIDTH 960 0
DWIDTH 16 0
BBX 11 12 2 -2
BITMAP
2000
2000
2380
F440
2820
3020
2020
6020
6020
A020
A040
2180
ENDCHAR
STARTCHAR uni308F
ENCODING 12431
SWIDTH 960 0
DWIDTH 16 0
BBX 15 15 0 -2
BITMAP
1000
1000
1000
10E0
FB18
1404
1402
1802
1002
3002
5002
5002
9004
9018
1060
ENDCHAR
STARTCHAR uni3090
ENCODING 12432
SWIDTH 960 0
DWIDTH 16 0
BBX 15 15 0 -2
BITMAP
3F00
0100
0100
0100
0200
0FF0
1208
2204
4404
4402
8472
888A
8886
9084
6078
ENDCHAR
STARTCHAR uni3091
ENCODING 12433
SWIDTH 960 0
DWIDTH 16 0
BBX 15 15 0 -2
BITMAP
1FF0
0020
0040
0180
07E0
1810
6008
0E08
1108
1130
0FC0
1000
3C78
4284
8102
ENDCHAR
STARTCHAR uni3092
ENCODING 12434
SWIDTH 960 0
DWIDTH 16 0
BBX 15 15 0 -2
BITMAP
0200
0200
0270
7F80
0400
0800
0F00
109E
20E0
4380
8480
0880
0880
0800
07FC
ENDCHAR
STARTCHAR uni3093
ENCODING 12435
SWIDTH 960 0
DWIDTH 16 0
BBX 15 15 0 -2
BITMAP
0100
0100
0200
0200
0400
0400
0800
0B00
1480
1882
2082
2084
4084
4088
8070
ENDCHAR
STARTCHAR uni3094
ENCODING 12436
SWIDTH 960 0
DWIDTH 16 0
BBX 15 15 0 -2
BITMAP
1C14
038A
006A
0000
0000
0FC0
3020
C010
0008
0008
0008
0010
0020
01C0
1E00
ENDCHAR
STARTCHAR uni3095
ENCODING 12437
SWIDTH 960 0
DWIDTH 16 0
BBX 11 12 2 -2
BITMAP
1000
1000
1080
FE40
1120
1120
1100
1100
2100
2100
4100
8600
ENDCHAR
STARTCHAR uni3096
ENCODING 12438
SWIDTH 960 0
DWIDTH 16 0
BBX 11 12 2 -2
BITMAP
4100
4100
4100
9FE0
8100
8100
8100
8100
8100
4100
4200
4C00
ENDCHAR
STARTCHAR uni3099
ENCODING 12441
SWIDTH 960 0
DWIDTH 16 0
BBX 4 3 11 10
BITMAP
A0
50
50
ENDCHAR
STARTCHAR uni309A
ENCODING 12442
SWIDTH 960 0
DWIDTH 16 0
BBX 4 4 11 9
BITMAP
60
90
90
60
ENDCHAR
STARTCHAR uni309B
ENCODING 12443
SWIDTH 960 0
DWIDTH 16 0
BBX 4 3 0 10
BITMAP
A0
50
50
ENDCHAR
STARTCHAR uni309C
ENCODING 12444
SWIDTH 960 0
DWIDTH 16 0
BBX 4 4 0 9
BITMAP
60
90
90
60
ENDCHAR
STARTCHAR uni309D
ENCODING 12445
SWIDTH 960 0
DWIDTH 16 0
BBX 7 10 4 0
BITMAP
80
80
40
40
20
10
08
06
18
60
ENDCHAR
STARTCHAR uni309E
ENCODING 12446
SWIDTH 960 0
DWIDTH 16 0
BBX 8 11 4 0
BITMAP
0A
85
85
40
40
20
10
08
06
18
60
ENDCHAR
STARTCHAR uni309F
ENCODING 12447
SWIDTH 960 0
DWIDTH 16 0
BBX 13 15 1 -2
BITMAP
0400
0470
0B80
1C00
1000
2000
2380
4C60
7010
8008
0008
0008
0010
2060
1F80
ENDCHAR
STARTCHAR uni30FB
ENCODING 12539
SWIDTH 960 0
DWIDTH 16 0
BBX 4 4 6 3
BITMAP
60
F0
F0
60
ENDCHAR
STARTCHAR uni30FC
ENCODING 12540
SWIDTH 960 0
DWIDTH 16 0
BBX 13 1 1 5
BITMAP
FFF8
ENDCHAR
STARTCHAR uni3105
ENCODING 12549
SWIDTH 960 0
DWIDTH 16 0
BBX 11 13 2 -1
BITMAP
2000
2000
4000
4000
8000
FFE0
0020
0020
0020
0020
0020
0020
01C0
ENDCHAR
STARTCHAR uni3106
ENCODING 12550
SWIDTH 960 0
DWIDTH 16 0
BBX 13 13 1 -1
BITMAP
1000
1000
2000
3FE0
0020
0040
1040
0880
0500
0200
0D80
3060
C018
ENDCHAR
STARTCHAR uni3107
ENCODING 12551
SWIDTH 960 0
DWIDTH 16 0
BBX 13 13 1 -1
BITMAP
FFF8
8008
8008
8008
8008
8008
8008
8008
8008
8008
8008
8008
8008
ENDCHAR
STARTCHAR uni3108
ENCODING 12552
SWIDTH 960 0
DWIDTH 16 0
BBX 13 13 1 -1
BITMAP
FFF8
8000
8000
8000
8000
8000
8000
8000
8000
8000
8000
8000
FFF8
ENDCHAR
STARTCHAR uni3109
ENCODING 12553
SWIDTH 960 0
DWIDTH 16 0
BBX 12 13 1 -1
BITMAP
1000
1000
2000
4000
7FF0
0210
0210
0410
0410
0810
1010
2010
C060
ENDCHAR
STARTCHAR uni310A
ENCODING 12554
SWIDTH 960 0
DWIDTH 16 0
BBX 13 13 1 -1
BITMAP
0200
0200
0200
0200
FFF8
0400
0400
0800
0820
1010
1010
20F8
7F08
ENDCHAR
STARTCHAR uni310B
ENCODING 12555
SWIDTH 960 0
DWIDTH 16 0
BBX 11 13 2 -1
BITMAP
FF80
0100
0200
0400
0800
1FE0
0020
0020
0020
0020
0020
0020
01C0
ENDCHAR
STARTCHAR uni310C
ENCODING 12556
SWIDTH 960 0
DWIDTH 16 0
BBX 12 13 1 -1
BITMAP
2200
2200
2200
4200
7FF0
0210
0210
0410
0410
0810
1010
2010
C0E0
ENDCHAR
STARTCHAR uni310D
ENCODING 12557
SWIDTH 960 0
DWIDTH 16 0
BBX 13 13 1 -1
BITMAP
1040
1040
1040
2080
2080
4100
8200
4100
2080
1040
0820
0410
0208
ENDCHAR
STARTCHAR uni310E
ENCODING 12558
SWIDTH 960 0
DWIDTH 16 0
BBX 13 13 1 -1
BITMAP
FFF8
0400
0800
0800
1000
1FF0
0010
0010
0010
0010
0010
0010
00E0
ENDCHAR
STARTCHAR uni310F
ENCODING 12559
SWIDTH 960 0
DWIDTH 16 0
BBX 13 13 1 -1
BITMAP
1FF8
1000
1000
1000
1000
1000
1000
1000
1000
2000
2000
4000
8000
ENDCHAR
STARTCHAR uni3110
ENCODING 12560
SWIDTH 960 0
DWIDTH 16 0
BBX 8 13 4 -1
BITMAP
01
81
81
81
81
81
81
9F
E1
01
01
01
01
ENDCHAR
STARTCHAR uni3111
ENCODING 12561
SWIDTH 960 0
DWIDTH 16 0
BBX 7 13 4 -1
BITMAP
10
10
10
20
20
40
80
40
20
10
08
04
02
ENDCHAR
STARTCHAR uni3112
ENCODING 12562
SWIDTH 960 0
DWIDTH 16 0
BBX 13 13 1 -1
BITMAP
FFF8
0200
0200
0200
0200
0200
0200
0200
0200
0200
0200
0200
0200
ENDCHAR
STARTCHAR uni3113
ENCODING 12563
SWIDTH 960 0
DWIDTH 16 0
BBX 13 13 1 -1
BITMAP
0200
0200
4210
4210
4210
4210
4210
4210
7FF0
0200
0200
0200
FFF8
ENDCHAR
STARTCHAR uni3114
ENCODING 12564
SWIDTH 960 0
DWIDTH 16 0
BBX 12 13 2 -1
BITMAP
0080
0100
0210
0C20
7040
0080
0300
0E00
F200
0200
0200
0200
0200
ENDCHAR
STARTCHAR uni3115
ENCODING 12565
SWIDTH 960 0
DWIDTH 16 0
BBX 13 13 1 -1
BITMAP
1FF8
0008
0008
0008
0008
1FF8
1000
1000
1000
2000
2000
4000
8000
ENDCHAR
STARTCHAR uni3116
ENCODING 12566
SWIDTH 960 0
DWIDTH 16 0
BBX 11 13 2 -1
BITMAP
FFE0
8020
8020
9020
8820
8420
8220
8220
8120
8120
8020
8020
FFE0
ENDCHAR
STARTCHAR uni3117
ENCODING 12567
SWIDTH 960 0
DWIDTH 16 0
BBX 13 13 1 -1
BITMAP
FFF8
0408
0408
0408
0408
0408
0408
0470
0400
0400
0400
0400
0400
ENDCHAR
STARTCHAR uni3118
ENCODING 12568
SWIDTH 960 0
DWIDTH 16 0
BBX 13 13 1 -1
BITMAP
0400
0400
0400
FFF8
0800
0800
1000
1FE0
0020
0020
0040
0040
0080
ENDCHAR
STARTCHAR uni3119
ENCODING 12569
SWIDTH 960 0
DWIDTH 16 0
BBX 13 13 1 -1
BITMAP
0200
0200
0200
0400
0400
0400
0800
0800
1020
1010
2010
41F8
FE08
ENDCHAR
STARTCHAR uni311A
ENCODING 12570
SWIDTH 960 0
DWIDTH 16 0
BBX 11 13 2 -1
BITMAP
8020
4040
2080
1100
0A00
0400
0400
0400
0400
0400
0400
0400
0400
ENDCHAR
STARTCHAR uni311B
ENCODING 12571
SWIDTH 960 0
DWIDTH 16 0
BBX 13 13 1 -1
BITMAP
FFF8
0200
0200
0200
0200
1E00
2000
4000
4000
4000
4010
2020
1FC0
ENDCHAR
STARTCHAR uni311C
ENCODING 12572
SWIDTH 960 0
DWIDTH 16 0
BBX 13 13 1 -1
BITMAP
0200
0200
0200
FFF8
0200
0200
1E00
2000
4000
4000
4010
2020
1FC0
ENDCHAR
STARTCHAR uni311D
ENCODING 12573
SWIDTH 960 0
DWIDTH 16 0
BBX 13 13 1 -1
BITMAP
1040
1040
1040
1040
1040
FFF8
1040
1040
1040
1000
1000
1000
0FF0
ENDCHAR
STARTCHAR uni311E
ENCODING 12574
SWIDTH 960 0
DWIDTH 16 0
BBX 13 13 1 -1
BITMAP
FFF8
0200
2200
2200
2200
4200
7FF8
0408
0408
0810
1010
2020
C040
ENDCHAR
STARTCHAR uni311F
ENCODING 12575
SWIDTH 960 0
DWIDTH 16 0
BBX 13 13 1 -1
BITMAP
0600
1A00
E200
0200
0100
0100
0080
0080
0040
0040
0020
0010
0008
ENDCHAR
STARTCHAR uni3120
ENCODING 12576
SWIDTH 960 0
DWIDTH 16 0
BBX 13 13 1 -1
BITMAP
0400
0400
0800
0800
1080
2100
7E00
0400
0820
1010
2010
41F8
FE08
ENDCHAR
STARTCHAR uni3121
ENCODING 12577
SWIDTH 960 0
DWIDTH 16 0
BBX 13 13 1 -1
BITMAP
7FF0
0010
0010
2010
1020
0820
0440
0280
0100
0280
0C40
3020
C018
ENDCHAR
STARTCHAR uni3122
ENCODING 12578
SWIDTH 960 0
DWIDTH 16 0
BBX 11 13 2 -1
BITMAP
FFC0
1040
1040
2080
2080
4100
7FE0
0020
0040
0040
0080
0100
0200
ENDCHAR
STARTCHAR uni3123
ENCODING 12579
SWIDTH 960 0
DWIDTH 16 0
BBX 10 13 2 -1
BITMAP
0800
1000
1000
2000
2000
4000
FFC0
0040
0080
0100
0200
0400
0800
ENDCHAR
STARTCHAR uni3124
ENCODING 12580
SWIDTH 960 0
DWIDTH 16 0
BBX 13 13 1 -1
BITMAP
0200
0200
0200
0200
FFF8
0200
0300
0500
0500
0900
1100
2100
C0F8
ENDCHAR
STARTCHAR uni3125
ENCODING 12581
SWIDTH 960 0
DWIDTH 16 0
BBX 13 13 1 -1
BITMAP
0100
0100
0100
0200
0200
0400
0400
0800
0800
1000
2000
4000
FFF8
ENDCHAR
STARTCHAR uni3126
ENCODING 12582
SWIDTH 960 0
DWIDTH 16 0
BBX 13 13 1 -1
BITMAP
1080
1080
1080
1080
1080
1080
1080
1080
1080
2080
2080
4080
8078
ENDCHAR
STARTCHAR uni3127
ENCODING 12583
SWIDTH 960 0
DWIDTH 16 0
BBX 13 1 1 5
BITMAP
FFF8
ENDCHAR
STARTCHAR uni3128
ENCODING 12584
SWIDTH 960 0
DWIDTH 16 0
BBX 13 13 1 -1
BITMAP
0008
4008
2010
1010
0820
0440
0280
0100
0280
0440
0820
3010
C008
ENDCHAR
STARTCHAR uni3129
ENCODING 12585
SWIDTH 960 0
DWIDTH 16 0
BBX 13 13 1 -1
BITMAP
8008
8008
8008
8008
8008
8008
8008
8008
8008
8008
8008
8008
FFF8
ENDCHAR
STARTCHAR uni312A
ENCODING 12586
SWIDTH 960 0
DWIDTH 16 0
BBX 13 13 1 -1
BITMAP
FFF8
0800
0800
0800
0800
0FE0
0820
1020
1020
2020
2020
4020
80C0
ENDCHAR
STARTCHAR uni312B
ENCODING 12587
SWIDTH 960 0
DWIDTH 16 0
BBX 13 13 1 -1
BITMAP
FFF8
1080
1080
1080
1080
1080
1080
1080
1080
2080
2080
4080
8078
ENDCHAR
STARTCHAR uni312C
ENCODING 12588
SWIDTH 960 0
DWIDTH 16 0
BBX 13 13 1 -1
BITMAP
0100
0080
1FF8
1000
1000
1000
1000
1000
1000
2000
2000
4000
8000
ENDCHAR
STARTCHAR uni312D
ENCODING 12589
SWIDTH 960 0
DWIDTH 16 0
BBX 13 13 1 -1
BITMAP
FFF8
0200
0200
0200
7FF0
4210
4210
4210
4210
4210
4210
0200
0200
ENDCHAR
STARTCHAR uni312E
ENCODING 12590
SWIDTH 960 0
DWIDTH 16 0
BBX 13 13 1 -1
BITMAP
0700
0000
0000
FFF8
0200
0200
7E00
4000
4000
4000
4000
4000
3FF0
ENDCHAR
STARTCHAR uni312F
ENCODING 12591
SWIDTH 960 0
DWIDTH 16 0
BBX 11 13 2 -1
BITMAP
FF00
0100
0200
0400
0800
1FE0
0820
0820
0820
0820
0820
0820
09C0
ENDCHAR
STARTCHAR uni3220
ENCODING 12832
SWIDTH 960 0
DWIDTH 16 0
BBX 15 15 0 -2
BITMAP
1010
2008
4004
4004
8002
8002
8002
9FF2
8002
8002
8002
4004
4004
2008
1010
ENDCHAR
STARTCHAR uni3221
ENCODING 12833
SWIDTH 960 0
DWIDTH 16 0
BBX 15 15 0 -2
BITMAP
1010
2008
4004
4004
8FE2
8002
8002
8002
8002
8002
9FF2
4004
4004
2008
1010
ENDCHAR
STARTCHAR uni3222
ENCODING 12834
SWIDTH 960 0
DWIDTH 16 0
BBX 15 15 0 -2
BITMAP
1010
2008
4004
4FE4
8002
8002
8002
87C2
8002
8002
8002
5FF4
4004
2008
1010
ENDCHAR
STARTCHAR uni3223
ENCODING 12835
SWIDTH 960 0
DWIDTH 16 0
BBX 15 15 0 -2
BITMAP
1010
2008
4004
5FF4
9292
9292
9292
9292
94F2
9812
9012
5FF4
4004
2008
1010
ENDCHAR
STARTCHAR uni3224
ENCODING 12836
SWIDTH 960 0
DWIDTH 16 0
BBX 15 15 0 -2
BITMAP
1010
2008
4004
5FE4
8202
8202
8202
9FC2
8442
8442
8442
5FF4
4004
2008
1010
ENDCHAR
STARTCHAR uni3225-zh_tr
ENCODING 12837
SWIDTH 960 0
DWIDTH 16 0
BBX 15 15 0 -2
BITMAP
1010
2008
4004
4104
8102
8102
9FF2
8002
8002
8442
8822
5014
4004
2008
1010
ENDCHAR
STARTCHAR uni3226
ENCODING 12838
SWIDTH 960 0
DWIDTH 16 0
BBX 15 15 0 -2
BITMAP
1010
2008
4004
4404
8402
8472
8782
9C02
8402
8422
8422
43E4
4004
2008
1010
ENDCHAR
STARTCHAR uni3227-zh_tw
ENCODING 12839
SWIDTH 960 0
DWIDTH 16 0
BBX 15 15 0 -2
BITMAP
1010
2008
4004
47C4
8042
8442
8442
8422
8822
8822
9012
5014
4004
2008
1010
ENDCHAR
STARTCHAR uni3228
ENCODING 12840
SWIDTH 960 0
DWIDTH 16 0
BBX 15 15 0 -2
BITMAP
1010
2008
4004
4204
8202
9FC2
8242
8242
8442
8452
8852
5074
4004
2008
1010
ENDCHAR
STARTCHAR uni3229
ENCODING 12841
SWIDTH 960 0
DWIDTH 16 0
BBX 15 15 0 -2
BITMAP
1010
2008
4004
4104
8102
8102
9FF2
8102
8102
8102
8102
4104
4004
2008
1010
ENDCHAR
STARTCHAR uni322A
ENCODING 12842
SWIDTH 960 0
DWIDTH 16 0
BBX 15 15 0 -2
BITMAP
1010
2008
4004
47E4
8422
87E2
8422
8422
87E2
8422
8822
50E4
4004
2008
1010
ENDCHAR
STARTCHAR uni322B
ENCODING 12843
SWIDTH 960 0
DWIDTH 16 0
BBX 15 15 0 -2
BITMAP
1010
2008
4004
4104
8102
8912
8912
9122
8102
8282
8442
5834
4004
2008
1010
ENDCHAR
STARTCHAR uni322C
ENCODING 12844
SWIDTH 960 0
DWIDTH 16 0
BBX 15 15 0 -2
BITMAP
1010
2008
4004
4104
8112
9DA2
8542
8542
8922
8922
9112
4304
4004
2008
1010
ENDCHAR
STARTCHAR uni322D
ENCODING 12845
SWIDTH 960 0
DWIDTH 16 0
BBX 15 15 0 -2
BITMAP
1010
2008
4004
4104
8102
9FF2
8102
8382
8542
8922
9112
4104
4004
2008
1010
ENDCHAR
STARTCHAR uni322E
ENCODING 12846
SWIDTH 960 0
DWIDTH 16 0
BBX 15 15 0 -2
BITMAP
1010
2008
4104
4284
8C62
B7DA
8102
8102
8FE2
8922
8542
5FF4
4004
2008
1010
ENDCHAR
STARTCHAR uni322F
ENCODING 12847
SWIDTH 960 0
DWIDTH 16 0
BBX 15 15 0 -2
BITMAP
1010
2008
4004
4104
8102
8102
8FE2
8102
8102
8102
8102
5FF4
4004
2008
1010
ENDCHAR
STARTCHAR uni3230
ENCODING 12848
SWIDTH 960 0
DWIDTH 16 0
BBX 15 15 0 -2
BITMAP
1010
2008
4004
4FE4
8822
8822
8822
8FE2
8822
8822
8822
4FE4
4004
2008
1010
ENDCHAR
STARTCHAR uni323D
ENCODING 12861
SWIDTH 960 0
DWIDTH 16 0
BBX 15 15 0 -2
BITMAP
1010
2008
4104
4284
8C62
B01A
8102
8902
89E2
8902
8902
5FF4
4004
2008
1010
ENDCHAR
STARTCHAR uni3241
ENCODING 12865
SWIDTH 960 0
DWIDTH 16 0
BBX 15 15 0 -2
BITMAP
1010
2008
4004
4884
8882
97F2
B082
91C2
92A2
92A2
9492
5084
4004
2008
1010
ENDCHAR
STARTCHAR uni3244
ENCODING 12868
SWIDTH 960 0
DWIDTH 16 0
BBX 15 15 0 -2
BITMAP
07C0
1830
2008
5EF4
5294
9EF2
9292
9EF2
9012
97D2
5454
57D4
3038
1830
07C0
ENDCHAR
STARTCHAR uni3246-zh_tr
ENCODING 12870
SWIDTH 960 0
DWIDTH 16 0
BBX 15 15 0 -2
BITMAP
07C0
1830
2108
4104
5FF4
8442
8442
8282
8282
8102
46C4
5834
2008
1830
07C0
ENDCHAR
STARTCHAR uni3248
ENCODING 12872
SWIDTH 960 0
DWIDTH 16 0
BBX 15 15 0 -2
BITMAP
FFFE
F83E
E00E
C8E6
D916
8912
8932
8952
8992
8912
C916
DCE6
E00E
F83E
FFFE
ENDCHAR
STARTCHAR uni3249
ENCODING 12873
SWIDTH 960 0
DWIDTH 16 0
BBX 15 15 0 -2
BITMAP
FFFE
F83E
E00E
CC66
D296
8292
82B2
84D2
8492
8892
D096
DE66
E00E
F83E
FFFE
ENDCHAR
STARTCHAR uni324A
ENCODING 12874
SWIDTH 960 0
DWIDTH 16 0
BBX 15 15 0 -2
BITMAP
FFFE
F83E
E00E
CC66
D296
8292
82B2
84D2
8292
8292
D296
CC66
E00E
F83E
FFFE
ENDCHAR
STARTCHAR uni324B
ENCODING 12875
SWIDTH 960 0
DWIDTH 16 0
BBX 15 15 0 -2
BITMAP
FFFE
F83E
E00E
C466
CC96
8C92
94B2
94D2
9492
9E92
C496
C466
E00E
F83E
FFFE
ENDCHAR
STARTCHAR uni324C
ENCODING 12876
SWIDTH 960 0
DWIDTH 16 0
BBX 15 15 0 -2
BITMAP
FFFE
F83E
E00E
DE66
D096
9092
90B2
9CD2
8292
8292
D296
CC66
E00E
F83E
FFFE
ENDCHAR
STARTCHAR uni324D
ENCODING 12877
SWIDTH 960 0
DWIDTH 16 0
BBX 15 15 0 -2
BITMAP
FFFE
F83E
E00E
CC66
D296
9092
90B2
9CD2
9292
9292
D296
CC66
E00E
F83E
FFFE
ENDCHAR
STARTCHAR uni324E
ENCODING 12878
SWIDTH 960 0
DWIDTH 16 0
BBX 15 15 0 -2
BITMAP
FFFE
F83E
E00E
DE66
C296
8292
82B2
84D2
8492
8492
C496
C466
E00E
F83E
FFFE
ENDCHAR
STARTCHAR uni324F
ENCODING 12879
SWIDTH 960 0
DWIDTH 16 0
BBX 15 15 0 -2
BITMAP
FFFE
F83E
E00E
CC66
D296
9292
92B2
8CD2
9292
9292
D296
CC66
E00E
F83E
FFFE
ENDCHAR
STARTCHAR uni3251
ENCODING 12881
SWIDTH 960 0
DWIDTH 16 0
BBX 15 15 0 -2
BITMAP
07C0
1830
2008
4C24
5264
82A2
8222
8422
8422
8822
5024
5EF4
2008
1830
07C0
ENDCHAR
STARTCHAR uni3252
ENCODING 12882
SWIDTH 960 0
DWIDTH 16 0
BBX 15 15 0 -2
BITMAP
07C0
1830
2008
4C64
5294
8212
8212
8422
8422
8842
5084
5EF4
2008
1830
07C0
ENDCHAR
STARTCHAR uni3253
ENCODING 12883
SWIDTH 960 0
DWIDTH 16 0
BBX 15 15 0 -2
BITMAP
07C0
1830
2008
4C64
5294
8212
8212
8422
8412
8812
5094
5E64
2008
1830
07C0
ENDCHAR
STARTCHAR uni3254
ENCODING 12884
SWIDTH 960 0
DWIDTH 16 0
BBX 15 15 0 -2
BITMAP
07C0
1830
2008
4C24
5264
8262
82A2
84A2
84A2
88F2
5024
5E24
2008
1830
07C0
ENDCHAR
STARTCHAR uni3255
ENCODING 12885
SWIDTH 960 0
DWIDTH 16 0
BBX 15 15 0 -2
BITMAP
07C0
1830
2008
4CF4
5284
8282
8282
84E2
8412
8812
5094
5E64
2008
1830
07C0
ENDCHAR
STARTCHAR uni3256
ENCODING 12886
SWIDTH 960 0
DWIDTH 16 0
BBX 15 15 0 -2
BITMAP
07C0
1830
2008
4C64
5294
8282
8282
84E2
8492
8892
5094
5E64
2008
1830
07C0
ENDCHAR
STARTCHAR uni3257
ENCODING 12887
SWIDTH 960 0
DWIDTH 16 0
BBX 15 15 0 -2
BITMAP
07C0
1830
2008
4CF4
5214
8212
8212
8422
8422
8822
5024
5E24
2008
1830
07C0
ENDCHAR
STARTCHAR uni3258
ENCODING 12888
SWIDTH 960 0
DWIDTH 16 0
BBX 15 15 0 -2
BITMAP
07C0
1830
2008
4C64
5294
8292
8292
8462
8492
8892
5094
5E64
2008
1830
07C0
ENDCHAR
STARTCHAR uni3259
ENCODING 12889
SWIDTH 960 0
DWIDTH 16 0
BBX 15 15 0 -2
BITMAP
07C0
1830
2008
4C64
5294
8292
8292
8472
8412
8812
5094
5E64
2008
1830
07C0
ENDCHAR
STARTCHAR uni325A
ENCODING 12890
SWIDTH 960 0
DWIDTH 16 0
BBX 15 15 0 -2
BITMAP
07C0
1830
2008
4C64
5294
8292
82B2
84D2
8292
8292
5294
4C64
2008
1830
07C0
ENDCHAR
STARTCHAR uni325B
ENCODING 12891
SWIDTH 960 0
DWIDTH 16 0
BBX 15 15 0 -2
BITMAP
07C0
1830
2008
4C24
5264
82A2
8222
8422
8222
8222
5224
4CF4
2008
1830
07C0
ENDCHAR
STARTCHAR uni325C
ENCODING 12892
SWIDTH 960 0
DWIDTH 16 0
BBX 15 15 0 -2
BITMAP
07C0
1830
2008
4C64
5294
8212
8212
8422
8222
8242
5284
4CF4
2008
1830
07C0
ENDCHAR
ENDFONT
